<?xml version="1.0" encoding="UTF-8"?>
<svg xmlns="http://www.w3.org/2000/svg" xmlns:xlink="http://www.w3.org/1999/xlink" version="1.2" >
<font id="Circular Std Bold">
<font-face  font-family="Circular Std" units-per-em="1000" ascent="809" descent="-191" font-style="normal" font-weight="700" font-stretch="normal" cap-height="709" x-height="492" underline-position="-155" underline-thickness="80" />
<missing-glyph  horiz-adv-x="584" d="M71 0 L513 0 L513 709 L71 709 L71 0 Z M180 109 L180 600 L404 600 L404 109 L180 109 Z " />
<glyph glyph-name=".null" d="" />
<glyph glyph-name="CR" unicode="&#xd;" horiz-adv-x="250" d="" />
<glyph glyph-name="space" unicode="&#x20;" horiz-adv-x="247" d="" />
<glyph glyph-name="uni000D" horiz-adv-x="247" d="" />
<glyph glyph-name="exclam" unicode="&#x21;" horiz-adv-x="334" d="M247 709 L86 709 L118 216 L215 216 L247 709 Z M88 71 C88 27 123 -8 166 -8 C210 -8 246 27 246 71 C246 115 210 151 166 151 C123 151 88 115 88 71 L88 71 Z " />
<glyph glyph-name="quotedbl" unicode="&#x22;" horiz-adv-x="402" d="M34 584 C34 575 37 563 38 558 L85 375 L132 375 L179 558 C181 564 183 576 183 584 C183 628 152 660 109 660 C66 660 34 628 34 584 L34 584 Z M219 584 C219 575 222 563 223 558 L270 375 L317 375 L364 558 C366 564 368 576 368 584 C368 628 337 660 294 660 C251 660 219 628 219 584 L219 584 Z " />
<glyph glyph-name="numbersign" unicode="&#x23;" horiz-adv-x="742" d="M91 396 L214 396 L184 256 L41 256 L41 161 L163 161 L129 0 L234 0 L268 161 L399 161 L365 0 L469 0 L503 161 L651 161 L651 256 L524 256 L554 396 L701 396 L701 492 L574 492 L608 648 L504 648 L470 492 L339 492 L373 648 L268 648 L234 492 L91 492 L91 396 Z M319 396 L450 396 L420 256 L289 256 L319 396 Z " />
<glyph glyph-name="dollar" unicode="&#x24;" horiz-adv-x="596" d="M360 -117 L360 -9 C480 10 546 95 546 187 C546 277 489 352 363 380 L272 401 C225 411 203 437 203 468 C203 509 238 546 302 546 C384 546 410 488 416 453 L539 488 C525 555 475 635 360 656 L360 766 L258 766 L258 659 C151 642 69 564 69 458 C69 362 136 294 244 270 L336 250 C386 239 411 213 411 179 C411 135 373 104 308 104 C216 104 174 162 168 225 L44 195 C53 110 119 9 258 -10 L258 -117 L360 -117 Z " />
<glyph glyph-name="percent" unicode="&#x25;" horiz-adv-x="854" d="M144 496 C144 537 173 565 210 565 C248 565 276 537 276 496 C276 455 248 426 210 426 C173 426 144 454 144 496 L144 496 Z M44 496 C44 405 119 333 210 333 C300 333 377 403 377 496 C377 588 300 660 210 660 C120 660 44 588 44 496 L44 496 Z M581 152 C581 193 610 221 647 221 C685 221 713 193 713 152 C713 111 685 82 647 82 C610 82 581 110 581 152 L581 152 Z M481 152 C481 61 556 -11 647 -11 C737 -11 814 59 814 152 C814 244 737 316 647 316 C557 316 481 244 481 152 L481 152 Z M258 0 L716 649 L600 649 L142 0 L258 0 Z " />
<glyph glyph-name="ampersand" unicode="&#x26;" horiz-adv-x="717" d="M545 0 L717 0 L557 168 L656 272 L656 438 L477 251 L370 364 L397 384 C448 422 497 474 497 546 C497 652 413 725 300 725 C204 725 104 659 104 540 C104 476 148 422 182 386 L193 374 L188 371 C114 316 67 265 67 177 C67 82 143 -13 282 -13 C358 -13 419 23 472 77 L545 0 Z M284 103 C232 103 199 144 199 185 C199 227 222 254 256 279 L271 290 L392 162 C358 126 327 103 284 103 L284 103 Z M230 544 C230 592 266 615 299 615 C341 615 371 585 371 547 C371 521 359 496 326 472 L291 446 L272 467 C254 485 230 514 230 544 L230 544 Z " />
<glyph glyph-name="quotesingle" unicode="&#x27;" horiz-adv-x="217" d="M34 584 C34 575 37 563 38 558 L85 375 L132 375 L179 558 C181 564 183 576 183 584 C183 628 152 660 109 660 C66 660 34 628 34 584 L34 584 Z " />
<glyph glyph-name="parenleft" unicode="&#x28;" horiz-adv-x="330" d="M43 322 C43 93 136 -61 253 -175 L330 -105 C223 9 155 142 155 322 C155 502 223 634 330 748 L253 819 C136 704 43 551 43 322 L43 322 Z " />
<glyph glyph-name="parenright" unicode="&#x29;" horiz-adv-x="330" d="M287 322 C287 551 194 704 77 819 L0 748 C107 634 175 502 175 322 C175 142 107 9 0 -105 L77 -175 C194 -61 287 93 287 322 L287 322 Z " />
<glyph glyph-name="asterisk" unicode="&#x2a;" horiz-adv-x="455" d="M281 709 L174 709 L174 582 L57 621 L25 523 L143 485 L70 386 L153 324 L227 425 L303 324 L386 385 L312 485 L430 523 L397 621 L281 582 L281 709 Z " />
<glyph glyph-name="plus" unicode="&#x2b;" horiz-adv-x="589" d="M49 349 L49 240 L238 240 L238 44 L350 44 L350 240 L540 240 L540 349 L350 349 L350 544 L238 544 L238 349 L49 349 Z " />
<glyph glyph-name="comma" unicode="&#x2c;" horiz-adv-x="312" d="M61 80 C61 32 95 -3 144 -3 C155 -3 166 0 170 3 C168 -52 120 -95 75 -105 L75 -169 C149 -160 251 -98 251 49 C251 114 214 164 152 164 C100 164 61 128 61 80 L61 80 Z " />
<glyph glyph-name="hyphen" unicode="&#x2d;" horiz-adv-x="380" d="M335 238 L335 356 L45 356 L45 238 L335 238 Z " />
<glyph glyph-name="period" unicode="&#x2e;" horiz-adv-x="311" d="M64 84 C64 34 105 -7 155 -7 C206 -7 247 34 247 84 C247 134 206 175 155 175 C105 175 64 134 64 84 L64 84 Z " />
<glyph glyph-name="slash" unicode="&#x2f;" horiz-adv-x="475" d="M475 718 L354 718 L0 -9 L120 -9 L475 718 Z " />
<glyph glyph-name="zero" unicode="0" horiz-adv-x="624" d="M179 324 C179 392 189 450 214 489 C234 521 265 542 312 542 C360 542 389 521 409 489 C435 450 445 392 445 324 C445 256 435 198 409 159 C389 127 360 106 312 106 C265 106 234 127 214 159 C189 198 179 256 179 324 L179 324 Z M41 324 C41 241 54 160 98 93 C141 29 211 -16 312 -16 C413 -16 483 29 525 93 C569 160 583 241 583 324 C583 407 569 488 525 555 C483 619 413 664 312 664 C211 664 141 619 98 555 C54 488 41 407 41 324 L41 324 Z " />
<glyph glyph-name="one" unicode="1" horiz-adv-x="396" d="M324 0 L324 649 L205 649 C192 581 126 528 31 527 L31 434 L187 434 L187 0 L324 0 Z " />
<glyph glyph-name="two" unicode="2" horiz-adv-x="543" d="M173 398 C170 409 168 422 168 434 C168 495 202 542 271 542 C336 542 369 500 369 453 C369 408 347 374 292 341 L185 277 C69 207 33 114 32 0 L512 0 L512 119 L201 119 C211 144 232 162 257 178 L382 254 C462 303 508 371 508 455 C508 568 419 664 274 664 C123 664 37 561 37 447 C37 431 40 411 42 402 L173 398 Z " />
<glyph glyph-name="three" unicode="3" horiz-adv-x="549" d="M214 288 C228 293 245 298 273 298 C335 298 379 263 379 202 C379 148 338 104 269 104 C201 104 154 152 151 218 L18 192 C26 83 118 -15 269 -15 C426 -15 518 88 518 200 C518 319 428 394 330 398 L498 538 L498 649 L39 649 L39 530 L323 530 L153 384 L214 288 Z " />
<glyph glyph-name="four" unicode="4" horiz-adv-x="597" d="M32 139 L339 139 L339 0 L475 0 L475 139 L582 139 L582 257 L475 257 L475 649 L305 649 L32 283 L32 139 Z M339 257 L154 257 L339 505 L339 257 Z " />
<glyph glyph-name="five" unicode="5" horiz-adv-x="554" d="M29 182 C37 80 135 -16 276 -16 C432 -16 525 89 525 210 C525 349 433 427 303 427 C260 427 214 413 186 387 L218 530 L490 530 L490 649 L124 649 L47 316 C61 312 160 278 173 273 C194 297 229 317 273 317 C333 317 388 282 388 208 C388 143 338 102 276 102 C207 102 161 151 158 211 L29 182 Z " />
<glyph glyph-name="six" unicode="6" horiz-adv-x="582" d="M538 634 C511 650 462 664 402 664 C188 664 42 516 42 283 C42 87 163 -15 305 -15 C448 -15 556 80 556 213 C556 347 465 431 332 431 C256 431 202 395 178 359 C193 481 283 545 393 545 C434 545 472 534 500 522 L538 634 Z M190 210 C190 277 242 318 304 318 C367 318 419 277 419 210 C419 143 367 101 304 101 C244 101 190 144 190 210 L190 210 Z " />
<glyph glyph-name="seven" unicode="7" horiz-adv-x="503" d="M498 649 L5 649 L5 530 L339 530 C339 530 122 349 95 0 L238 0 C267 327 449 492 498 534 L498 649 Z " />
<glyph glyph-name="eight" unicode="8" horiz-adv-x="568" d="M284 383 C224 384 189 422 189 468 C189 511 224 550 284 550 C345 550 380 511 380 468 C380 422 345 384 284 383 L284 383 Z M284 99 C213 99 175 143 175 189 C175 236 211 281 284 281 C357 281 394 236 394 189 C394 143 356 99 284 99 L284 99 Z M284 -15 C432 -15 529 63 529 175 C529 245 483 308 415 333 C480 357 516 421 516 478 C516 587 419 664 284 664 C149 664 52 587 52 478 C52 420 89 357 154 333 C85 307 39 245 39 175 C39 63 136 -15 284 -15 L284 -15 Z " />
<glyph glyph-name="nine" unicode="9" horiz-adv-x="583" d="M53 21 C87 0 148 -15 203 -15 C425 -15 542 123 542 357 C542 564 424 664 283 664 C139 664 34 569 34 436 C34 302 137 218 258 218 C326 218 381 247 408 288 C399 169 320 104 202 104 C157 104 110 119 87 132 L53 21 Z M390 440 C390 376 339 333 278 333 C217 333 167 375 167 440 C167 504 218 547 278 547 C339 547 390 504 390 440 L390 440 Z " />
<glyph glyph-name="colon" unicode="&#x3a;" horiz-adv-x="312" d="M67 82 C67 33 107 -7 156 -7 C206 -7 247 33 247 82 C247 132 206 172 156 172 C107 172 67 132 67 82 L67 82 Z M66 409 C66 360 106 320 155 320 C205 320 246 360 246 409 C246 459 205 499 155 499 C106 499 66 459 66 409 L66 409 Z " />
<glyph glyph-name="semicolon" unicode="&#x3b;" horiz-adv-x="314" d="M68 75 C68 29 100 -4 147 -4 C157 -4 168 -1 171 2 C170 -50 124 -91 81 -101 L81 -162 C152 -153 248 -94 248 46 C248 107 213 155 154 155 C105 155 68 121 68 75 L68 75 Z M67 409 C67 360 107 320 156 320 C206 320 247 360 247 409 C247 459 206 499 156 499 C107 499 67 459 67 409 L67 409 Z " />
<glyph glyph-name="less" unicode="&#x3c;" horiz-adv-x="497" d="M35 244 L465 28 L465 153 L169 296 L465 439 L465 562 L35 345 L35 244 Z " />
<glyph glyph-name="equal" unicode="&#x3d;" horiz-adv-x="603" d="M544 341 L544 448 L59 448 L59 341 L544 341 Z M544 142 L544 250 L59 250 L59 142 L544 142 Z " />
<glyph glyph-name="greater" unicode="&#x3e;" horiz-adv-x="497" d="M462 345 L32 562 L32 437 L328 294 L32 151 L32 28 L462 245 L462 345 Z " />
<glyph glyph-name="question" unicode="&#x3f;" horiz-adv-x="529" d="M303 216 L303 222 C303 263 322 294 357 319 L398 348 C457 390 497 446 497 525 C497 626 416 724 261 724 C113 724 32 620 32 512 C32 497 33 481 37 467 L163 462 C160 471 159 482 159 494 C159 550 190 607 261 607 C328 607 361 563 361 517 C361 487 348 460 318 438 L270 402 C213 359 191 310 191 257 C191 242 193 229 195 216 L303 216 Z M172 71 C172 27 207 -8 251 -8 C295 -8 331 27 331 71 C331 115 295 151 251 151 C207 151 172 115 172 71 L172 71 Z " />
<glyph glyph-name="at" unicode="&#x40;" horiz-adv-x="827" d="M589 139 C692 141 792 244 792 396 C792 584 638 725 432 725 C217 725 39 564 39 331 C39 104 207 -48 441 -48 C520 -48 619 -17 673 32 L625 100 C569 58 504 41 441 41 C252 41 140 167 140 333 C140 513 266 634 433 634 C589 634 697 536 697 395 C697 298 648 226 599 226 C578 226 567 242 567 259 C567 266 568 272 569 277 L621 522 L526 522 L518 478 C503 517 459 535 421 535 C315 535 224 441 224 310 C224 208 289 137 376 137 C421 137 467 159 492 200 C501 167 534 139 589 139 L589 139 Z M496 366 C494 286 453 227 398 227 C347 227 327 266 327 319 C327 386 368 445 428 445 C472 445 496 414 496 366 L496 366 Z " />
<glyph glyph-name="A" unicode="A" horiz-adv-x="722" d="M562 0 L712 0 L442 709 L282 709 L10 0 L156 0 L215 162 L503 162 L562 0 Z M359 556 L457 288 L261 288 L359 556 Z " />
<glyph glyph-name="B" unicode="B" horiz-adv-x="610" d="M81 709 L81 0 L355 0 C488 0 574 83 574 198 C574 286 518 349 449 366 C508 386 552 445 552 518 C552 628 474 709 336 709 L81 709 Z M217 416 L217 593 L314 593 C381 593 416 559 416 505 C416 451 378 416 315 416 L217 416 Z M217 115 L217 302 L331 302 C400 302 436 263 436 207 C436 150 396 115 329 115 L217 115 Z " />
<glyph glyph-name="C" unicode="C" horiz-adv-x="764" d="M402 -15 C601 -15 703 117 730 226 L601 265 C582 199 523 120 402 120 C288 120 182 203 182 354 C182 515 294 591 400 591 C523 591 578 516 595 448 L725 489 C697 604 596 724 400 724 C210 724 39 580 39 354 C39 128 204 -15 402 -15 L402 -15 Z " />
<glyph glyph-name="D" unicode="D" horiz-adv-x="724" d="M219 128 L219 581 L330 581 C446 581 542 508 542 354 C542 200 445 128 329 128 L219 128 Z M334 0 C536 0 685 130 685 354 C685 578 537 709 335 709 L81 709 L81 0 L334 0 Z " />
<glyph glyph-name="E" unicode="E" horiz-adv-x="582" d="M525 0 L525 130 L219 130 L219 294 L496 294 L496 417 L219 417 L219 579 L525 579 L525 709 L81 709 L81 0 L525 0 Z " />
<glyph glyph-name="F" unicode="F" horiz-adv-x="562" d="M220 0 L220 276 L495 276 L495 403 L219 403 L219 578 L529 578 L529 709 L81 709 L81 0 L220 0 Z " />
<glyph glyph-name="G" unicode="G" horiz-adv-x="781" d="M723 0 L723 369 L369 369 L369 249 L593 249 C585 199 534 111 403 111 C284 111 179 194 179 354 C179 522 295 595 402 595 C517 595 576 522 594 459 L726 506 C691 615 588 724 402 724 C210 724 39 583 39 354 C39 125 202 -15 393 -15 C500 -15 570 33 602 81 L611 0 L723 0 Z " />
<glyph glyph-name="H" unicode="H" horiz-adv-x="748" d="M667 0 L667 709 L528 709 L528 424 L219 424 L219 709 L81 709 L81 0 L219 0 L219 294 L528 294 L528 0 L667 0 Z " />
<glyph glyph-name="I" unicode="I" horiz-adv-x="302" d="M221 0 L221 709 L81 709 L81 0 L221 0 Z " />
<glyph glyph-name="J" unicode="J" horiz-adv-x="557" d="M20 216 C20 77 112 -15 252 -15 C390 -15 483 91 483 219 L483 709 L345 709 L345 219 C345 157 309 116 251 116 C195 116 154 149 153 222 L153 287 L20 263 L20 216 Z " />
<glyph glyph-name="K" unicode="K" horiz-adv-x="698" d="M513 0 L686 0 L403 400 L684 709 L503 709 L219 388 L219 709 L81 709 L81 0 L219 0 L219 197 L307 294 L513 0 Z " />
<glyph glyph-name="L" unicode="L" horiz-adv-x="560" d="M535 0 L535 132 L219 132 L219 709 L81 709 L81 0 L535 0 Z " />
<glyph glyph-name="M" unicode="M" horiz-adv-x="953" d="M872 0 L872 709 L684 709 L476 197 L263 709 L81 709 L81 0 L213 0 L213 493 L417 0 L532 0 L736 497 L736 0 L872 0 Z " />
<glyph glyph-name="N" unicode="N" horiz-adv-x="767" d="M686 0 L686 709 L548 709 L548 240 L253 709 L81 709 L81 0 L219 0 L219 503 L541 0 L686 0 Z " />
<glyph glyph-name="O" unicode="O" horiz-adv-x="807" d="M182 355 C182 515 294 591 403 591 C513 591 625 515 625 355 C625 195 513 119 403 119 C294 119 182 195 182 355 L182 355 Z M39 354 C39 126 211 -15 403 -15 C596 -15 768 126 768 354 C768 583 596 724 403 724 C211 724 39 583 39 354 L39 354 Z " />
<glyph glyph-name="P" unicode="P" horiz-adv-x="606" d="M220 386 L220 589 L329 589 C398 589 440 550 440 487 C440 426 398 386 329 386 L220 386 Z M346 267 C486 267 579 359 579 488 C579 616 486 709 346 709 L81 709 L81 0 L219 0 L219 267 L346 267 Z " />
<glyph glyph-name="Q" unicode="Q" horiz-adv-x="807" d="M39 354 C39 126 211 -15 403 -15 C469 -15 533 2 588 33 L675 -63 L766 15 L681 109 C735 171 768 254 768 354 C768 583 596 724 403 724 C211 724 39 583 39 354 L39 354 Z M182 355 C182 515 294 591 403 591 C513 591 625 515 625 355 C625 297 610 250 586 214 L475 338 L383 259 L494 137 C466 125 434 119 403 119 C294 119 182 195 182 355 L182 355 Z " />
<glyph glyph-name="R" unicode="R" horiz-adv-x="625" d="M431 0 L585 0 L433 290 C526 317 584 392 584 491 C584 614 496 709 358 709 L81 709 L81 0 L220 0 L220 273 L292 273 L431 0 Z M220 392 L220 589 L332 589 C402 589 443 550 443 490 C443 432 402 392 332 392 L220 392 Z " />
<glyph glyph-name="S" unicode="S" horiz-adv-x="604" d="M558 540 C542 620 476 724 304 724 C170 724 57 628 57 502 C57 395 130 322 243 299 L342 279 C397 268 428 236 428 195 C428 145 387 108 313 108 C213 108 164 171 158 241 L30 207 C41 106 124 -15 312 -15 C477 -15 568 95 568 204 C568 304 499 388 370 413 L271 432 C219 442 194 473 194 512 C194 559 238 602 305 602 C395 602 427 541 434 502 L558 540 Z " />
<glyph glyph-name="T" unicode="T" horiz-adv-x="619" d="M603 578 L603 709 L16 709 L16 578 L240 578 L240 0 L379 0 L379 578 L603 578 Z " />
<glyph glyph-name="U" unicode="U" horiz-adv-x="693" d="M346 -16 C498 -16 619 77 619 251 L619 709 L481 709 L481 261 C481 168 430 119 346 119 C264 119 212 168 212 261 L212 709 L74 709 L74 251 C74 77 195 -16 346 -16 L346 -16 Z " />
<glyph glyph-name="V" unicode="V" horiz-adv-x="687" d="M346 182 L161 709 L10 709 L272 0 L414 0 L677 709 L531 709 L346 182 Z " />
<glyph glyph-name="W" unicode="W" horiz-adv-x="1027" d="M746 219 L588 709 L445 709 L288 221 L158 709 L12 709 L209 0 L353 0 L515 505 L677 0 L819 0 L1015 709 L874 709 L746 219 Z " />
<glyph glyph-name="X" unicode="X" horiz-adv-x="669" d="M651 709 L490 709 L335 464 L183 709 L17 709 L249 355 L16 0 L178 0 L332 245 L485 0 L652 0 L419 354 L651 709 Z " />
<glyph glyph-name="Y" unicode="Y" horiz-adv-x="655" d="M257 298 L257 0 L395 0 L395 298 L645 709 L490 709 L331 428 L172 709 L10 709 L257 298 Z " />
<glyph glyph-name="Z" unicode="Z" horiz-adv-x="640" d="M597 0 L597 132 L217 132 L592 580 L592 709 L52 709 L52 578 L408 578 L39 134 L39 0 L597 0 Z " />
<glyph glyph-name="bracketleft" unicode="&#x5b;" horiz-adv-x="317" d="M312 -164 L312 -61 L192 -61 L192 709 L312 709 L312 810 L81 810 L81 -164 L312 -164 Z " />
<glyph glyph-name="backslash" unicode="&#x5c;" horiz-adv-x="476" d="M354 -9 L476 -9 L123 718 L0 718 L354 -9 Z " />
<glyph glyph-name="bracketright" unicode="&#x5d;" horiz-adv-x="317" d="M236 -164 L236 810 L5 810 L5 709 L124 709 L124 -61 L5 -61 L5 -164 L236 -164 Z " />
<glyph glyph-name="asciicircum" unicode="&#x5e;" horiz-adv-x="530" d="M514 351 L316 709 L214 709 L16 351 L143 351 L266 582 L389 351 L514 351 Z " />
<glyph glyph-name="underscore" unicode="&#x5f;" horiz-adv-x="523" d="M517 -109 L517 0 L6 0 L6 -109 L517 -109 Z " />
<glyph glyph-name="grave" unicode="&#x60;" horiz-adv-x="296" d="M162 551 L270 551 L180 701 L26 701 L162 551 Z " />
<glyph glyph-name="a" unicode="a" horiz-adv-x="539" d="M41 134 C41 57 105 -14 210 -14 C283 -14 330 20 355 59 C355 40 357 13 360 0 L482 0 C479 17 476 52 476 78 L476 320 C476 419 418 507 262 507 C130 507 59 422 51 345 L169 320 C173 363 205 400 263 400 C319 400 346 371 346 336 C346 319 337 305 309 301 L188 283 C106 271 41 222 41 134 L41 134 Z M238 85 C195 85 174 113 174 142 C174 180 201 199 235 204 L346 221 L346 199 C346 112 294 85 238 85 L238 85 Z " />
<glyph glyph-name="b" unicode="b" horiz-adv-x="612" d="M200 0 L200 60 C226 18 278 -12 346 -12 C486 -12 578 99 578 248 C578 394 495 505 351 505 C278 505 224 473 202 438 L202 724 L71 724 L71 0 L200 0 Z M445 247 C445 157 391 107 323 107 C256 107 200 158 200 247 C200 337 256 386 323 386 C391 386 445 337 445 247 L445 247 Z " />
<glyph glyph-name="c" unicode="c" horiz-adv-x="550" d="M292 384 C358 384 389 342 401 301 L520 341 C499 424 423 507 289 507 C146 507 34 398 34 246 C34 95 148 -15 293 -15 C424 -15 501 69 523 151 L406 190 C395 152 361 107 293 107 C225 107 167 157 167 246 C167 335 224 384 292 384 L292 384 Z " />
<glyph glyph-name="d" unicode="d" horiz-adv-x="613" d="M540 724 L409 724 L409 443 C395 469 355 504 270 504 C131 504 34 391 34 247 C34 98 134 -12 274 -12 C340 -12 390 18 412 57 C412 34 415 10 417 0 L544 0 C542 20 540 56 540 89 L540 724 Z M168 247 C168 335 222 385 290 385 C358 385 411 336 411 248 C411 159 358 107 290 107 C220 107 168 159 168 247 L168 247 Z " />
<glyph glyph-name="e" unicode="e" horiz-adv-x="553" d="M168 302 C171 347 209 399 278 399 C354 399 386 351 388 302 L168 302 Z M401 174 C385 130 351 99 289 99 C223 99 168 146 165 211 L517 211 C517 213 519 233 519 252 C519 410 428 507 276 507 C150 507 34 405 34 248 C34 82 153 -15 288 -15 C409 -15 487 56 512 141 L401 174 Z " />
<glyph glyph-name="f" unicode="f" horiz-adv-x="356" d="M299 614 C321 614 334 611 341 609 L341 721 C330 726 303 731 275 731 C166 731 96 659 96 548 L96 492 L14 492 L14 378 L96 378 L96 0 L230 0 L230 378 L341 378 L341 492 L230 492 L230 546 C230 601 269 614 299 614 L299 614 Z " />
<glyph glyph-name="g" unicode="g" horiz-adv-x="597" d="M36 -27 C50 -121 140 -205 275 -205 C460 -205 533 -82 533 53 L533 492 L405 492 L405 434 C388 467 343 501 265 501 C130 501 36 391 36 261 C36 123 134 22 265 22 C336 22 382 53 402 85 L402 49 C402 -46 355 -88 271 -88 C208 -88 165 -49 156 5 L36 -27 Z M288 136 C219 136 170 184 170 261 C170 337 222 385 288 385 C352 385 404 337 404 261 C404 185 356 136 288 136 L288 136 Z " />
<glyph glyph-name="h" unicode="h" horiz-adv-x="584" d="M204 289 C207 343 240 385 296 385 C360 385 387 342 387 287 L387 0 L520 0 L520 310 C520 418 462 505 337 505 C290 505 236 489 204 451 L204 724 L71 724 L71 0 L204 0 L204 289 Z " />
<glyph glyph-name="i" unicode="i" horiz-adv-x="275" d="M204 0 L204 492 L71 492 L71 0 L204 0 Z M55 653 C55 609 92 572 137 572 C183 572 219 609 219 653 C219 699 183 736 137 736 C92 736 55 699 55 653 L55 653 Z " />
<glyph glyph-name="j" unicode="j" horiz-adv-x="275" d="M71 -30 C71 -66 56 -88 16 -88 C-3 -88 -16 -85 -25 -83 L-25 -194 C-18 -197 11 -205 50 -205 C145 -205 204 -138 204 -43 L204 492 L71 492 L71 -30 Z M55 654 C55 609 92 573 137 573 C183 573 219 609 219 654 C219 700 183 737 137 737 C92 737 55 700 55 654 L55 654 Z " />
<glyph glyph-name="k" unicode="k" horiz-adv-x="559" d="M548 492 L374 492 L204 309 L204 724 L71 724 L71 0 L204 0 L204 130 L259 188 L389 0 L552 0 L351 285 L548 492 Z " />
<glyph glyph-name="l" unicode="l" horiz-adv-x="275" d="M204 0 L204 724 L71 724 L71 0 L204 0 Z " />
<glyph glyph-name="m" unicode="m" horiz-adv-x="886" d="M204 0 L204 288 C204 342 238 385 296 385 C356 385 383 345 383 292 L383 0 L515 0 L515 288 C515 341 549 385 606 385 C667 385 693 345 693 292 L693 0 L822 0 L822 319 C822 451 735 506 644 506 C579 506 527 484 488 424 C463 477 409 506 342 506 C288 506 225 480 198 432 L198 492 L71 492 L71 0 L204 0 Z " />
<glyph glyph-name="n" unicode="n" horiz-adv-x="584" d="M204 283 C204 340 238 385 296 385 C360 385 387 342 387 287 L387 0 L520 0 L520 310 C520 418 464 505 342 505 C289 505 230 482 200 431 L200 492 L71 492 L71 0 L204 0 L204 283 Z " />
<glyph glyph-name="o" unicode="o" horiz-adv-x="584" d="M292 106 C227 106 167 154 167 246 C167 339 227 386 292 386 C357 386 417 339 417 246 C417 153 357 106 292 106 L292 106 Z M292 507 C145 507 34 398 34 246 C34 95 145 -15 292 -15 C439 -15 550 95 550 246 C550 398 439 507 292 507 L292 507 Z " />
<glyph glyph-name="p" unicode="p" horiz-adv-x="612" d="M204 -190 L204 48 C228 15 278 -12 346 -12 C485 -12 578 98 578 247 C578 393 495 503 351 503 C277 503 222 470 200 432 L200 492 L71 492 L71 -190 L204 -190 Z M447 246 C447 158 393 107 325 107 C257 107 202 159 202 246 C202 333 257 384 325 384 C393 384 447 333 447 246 L447 246 Z " />
<glyph glyph-name="q" unicode="q" horiz-adv-x="608" d="M541 -190 L541 492 L414 492 L414 435 C400 463 356 504 270 504 C127 504 34 391 34 247 C34 99 134 -12 274 -12 C339 -12 388 12 411 49 L411 -190 L541 -190 Z M168 247 C168 335 222 385 290 385 C358 385 412 335 412 247 C412 159 358 107 290 107 C222 107 168 159 168 247 L168 247 Z " />
<glyph glyph-name="r" unicode="r" horiz-adv-x="391" d="M371 494 C361 495 351 496 340 496 C298 496 230 484 200 419 L200 492 L71 492 L71 0 L204 0 L204 225 C204 331 263 364 331 364 C343 364 356 363 371 360 L371 494 Z " />
<glyph glyph-name="s" unicode="s" horiz-adv-x="461" d="M29 137 C35 81 86 -15 234 -15 C363 -15 425 67 425 147 C425 219 376 278 279 298 L209 313 C182 318 164 333 164 357 C164 385 192 406 227 406 C283 406 304 369 308 340 L419 365 C413 418 366 507 226 507 C120 507 42 434 42 346 C42 277 85 220 180 199 L245 184 C283 176 298 158 298 136 C298 110 277 87 233 87 C175 87 146 123 143 162 L29 137 Z " />
<glyph glyph-name="t" unicode="t" horiz-adv-x="373" d="M235 639 L115 639 L115 570 C115 526 91 492 39 492 L14 492 L14 374 L103 374 L103 145 C103 50 163 -7 259 -7 C298 -7 322 0 334 5 L334 115 C327 113 309 111 293 111 C255 111 235 125 235 168 L235 374 L334 374 L334 492 L235 492 L235 639 Z " />
<glyph glyph-name="u" unicode="u" horiz-adv-x="586" d="M393 0 L520 0 C518 17 515 51 515 89 L515 492 L382 492 L382 206 C382 149 348 109 289 109 C227 109 199 153 199 208 L199 492 L66 492 L66 181 C66 74 134 -13 253 -13 C305 -13 362 7 389 53 C389 33 391 10 393 0 L393 0 Z " />
<glyph glyph-name="v" unicode="v" horiz-adv-x="545" d="M535 492 L395 492 L278 162 L156 492 L10 492 L211 0 L344 0 L535 492 Z " />
<glyph glyph-name="w" unicode="w" horiz-adv-x="831" d="M350 492 L243 176 L152 492 L12 492 L169 0 L304 0 L417 336 L532 0 L665 0 L819 492 L687 492 L596 175 L490 492 L350 492 Z " />
<glyph glyph-name="x" unicode="x" horiz-adv-x="532" d="M12 0 L162 0 C179 27 245 124 263 151 L366 0 L522 0 L344 251 L516 492 L365 492 L268 346 C251 373 187 465 170 492 L12 492 L187 247 L12 0 Z " />
<glyph glyph-name="y" unicode="y" horiz-adv-x="560" d="M241 -194 L550 492 L408 492 L287 204 L156 492 L7 492 L216 62 L100 -194 L241 -194 Z " />
<glyph glyph-name="z" unicode="z" horiz-adv-x="481" d="M444 0 L444 116 L200 116 L440 381 L440 492 L43 492 L43 377 L270 377 L37 117 L37 0 L444 0 Z " />
<glyph glyph-name="braceleft" unicode="&#x7b;" horiz-adv-x="375" d="M45 271 C102 271 145 246 145 178 L145 36 C145 -95 219 -158 339 -158 L370 -158 L370 -57 L340 -57 C291 -57 257 -33 257 33 L257 200 C257 264 220 310 156 326 C220 343 257 389 257 452 L257 620 C257 686 291 709 340 709 L370 709 L370 810 L339 810 C219 810 145 748 145 617 L145 475 C145 407 102 382 45 382 L45 271 Z " />
<glyph glyph-name="bar" unicode="&#x7c;" horiz-adv-x="273" d="M192 -158 L192 810 L81 810 L81 -158 L192 -158 Z " />
<glyph glyph-name="braceright" unicode="&#x7d;" horiz-adv-x="375" d="M330 382 C273 382 229 407 229 475 L229 617 C229 748 155 810 36 810 L5 810 L5 709 L34 709 C84 709 118 686 118 620 L118 452 C118 389 154 343 218 326 C155 310 118 264 118 200 L118 33 C118 -33 84 -57 34 -57 L5 -57 L5 -158 L36 -158 C155 -158 229 -95 229 36 L229 178 C229 246 273 271 330 271 L330 382 Z " />
<glyph glyph-name="asciitilde" unicode="&#x7e;" horiz-adv-x="583" d="M286 233 C321 213 359 204 392 204 C460 204 520 240 557 308 L484 367 C462 333 430 316 396 316 C379 316 360 320 343 330 L296 356 C261 375 225 384 192 384 C123 384 63 347 26 279 L100 220 C123 254 155 272 189 272 C205 272 222 268 239 259 L286 233 Z " />
<glyph glyph-name="uni00A0" unicode="&#xa0;" horiz-adv-x="247" d="" />
<glyph glyph-name="exclamdown" unicode="&#xa1;" horiz-adv-x="302" d="M200 283 L103 283 L71 -210 L231 -210 L200 283 Z M72 428 C72 384 107 348 151 348 C194 348 230 384 230 428 C230 471 194 507 151 507 C107 507 72 471 72 428 L72 428 Z " />
<glyph glyph-name="cent" unicode="&#xa2;" horiz-adv-x="549" d="M332 0 L332 84 C430 100 489 168 508 235 L396 271 C386 235 353 194 289 194 C224 194 168 240 168 322 C168 405 223 450 288 450 C351 450 380 411 392 373 L505 410 C487 477 431 543 332 559 L332 649 L231 649 L231 558 C121 536 41 444 41 322 C41 203 121 111 231 87 L231 0 L332 0 Z " />
<glyph glyph-name="sterling" unicode="&#xa3;" horiz-adv-x="592" d="M63 375 L63 273 L161 273 C163 262 165 250 165 238 C165 180 123 134 59 111 L59 0 L394 0 C502 0 573 80 573 190 L454 200 C454 152 423 116 373 116 L218 116 C267 146 290 197 290 252 C290 259 289 266 289 273 L440 273 L440 375 L257 375 C245 406 235 434 235 468 C235 525 276 552 321 552 C376 552 408 517 409 457 L529 475 C528 558 476 664 319 664 C188 664 106 571 106 470 C106 433 114 403 124 375 L63 375 Z " />
<glyph glyph-name="currency" unicode="&#xa4;" horiz-adv-x="587" d="M78 245 C78 205 89 169 107 137 L36 65 L116 -15 L188 59 C220 41 256 32 295 32 C332 32 368 41 399 58 L471 -15 L551 65 L481 136 C500 168 511 205 511 245 C511 285 500 323 480 355 L551 426 L471 506 L398 432 C367 449 332 458 295 458 C257 458 222 448 190 431 L116 506 L36 426 L108 353 C89 322 78 285 78 245 L78 245 Z M190 245 C190 306 234 350 295 350 C356 350 400 306 400 245 C400 184 356 140 295 140 C234 140 190 184 190 245 L190 245 Z " />
<glyph glyph-name="yen" unicode="&#xa5;" horiz-adv-x="614" d="M553 135 L553 229 L373 229 L373 299 L553 299 L553 392 L438 392 L592 649 L447 649 L311 404 L173 649 L22 649 L177 392 L70 392 L70 299 L243 299 L243 229 L70 229 L70 135 L243 135 L243 0 L373 0 L373 135 L553 135 Z " />
<glyph glyph-name="brokenbar" unicode="&#xa6;" horiz-adv-x="273" d="M81 810 L81 412 L192 412 L192 810 L81 810 Z M81 240 L81 -158 L192 -158 L192 240 L81 240 Z " />
<glyph glyph-name="section" unicode="&#xa7;" horiz-adv-x="561" d="M491 251 C491 343 424 388 349 427 L248 479 C219 492 204 516 204 541 C204 582 235 611 282 611 C334 611 368 580 368 516 L494 537 C490 646 412 724 283 724 C173 724 70 649 70 532 C70 478 96 426 147 389 C107 367 70 325 70 264 C70 172 137 127 211 89 L313 36 C340 22 357 1 357 -26 C357 -68 325 -96 280 -96 C227 -96 192 -64 192 -1 L67 -22 C72 -134 149 -209 279 -209 C388 -209 491 -134 491 -17 C491 38 465 89 414 126 C454 148 491 189 491 251 L491 251 Z M326 292 C358 275 369 253 369 226 C369 202 355 183 337 169 L235 223 C202 240 192 262 192 289 C192 312 205 331 224 346 L326 292 Z " />
<glyph glyph-name="dieresis" unicode="&#xa8;" horiz-adv-x="405" d="M27 628 C27 589 58 558 97 558 C136 558 168 589 168 628 C168 667 136 699 97 699 C58 699 27 667 27 628 L27 628 Z M237 628 C237 589 267 558 307 558 C346 558 378 589 378 628 C378 667 346 699 307 699 C267 699 237 667 237 628 L237 628 Z " />
<glyph glyph-name="copyright" unicode="&#xa9;" horiz-adv-x="816" d="M124 354 C124 518 248 646 407 646 C566 646 690 518 690 354 C690 191 566 63 407 63 C248 63 124 191 124 354 L124 354 Z M39 354 C39 151 203 -16 407 -16 C611 -16 777 151 777 354 C777 558 611 725 407 725 C203 725 39 558 39 354 L39 354 Z M411 458 C462 458 485 426 494 395 L585 426 C569 489 511 552 409 552 C300 552 215 469 215 353 C215 238 302 155 412 155 C512 155 570 219 587 281 L498 311 C490 282 464 247 412 247 C360 247 316 286 316 353 C316 421 360 458 411 458 L411 458 Z " />
<glyph glyph-name="ordfeminine" unicode="&#xaa;" horiz-adv-x="423" d="M55 397 C55 343 99 292 174 292 C223 292 255 313 274 342 C274 320 276 307 277 302 L370 302 C368 312 365 332 365 356 L365 526 C365 597 324 659 213 659 C114 659 66 595 62 544 L151 526 C153 553 174 578 213 578 C248 578 266 560 266 539 C266 527 260 518 241 515 L158 501 C94 491 55 456 55 397 L55 397 Z M198 366 C169 366 156 385 156 403 C156 429 173 441 196 444 L266 455 L266 439 C266 383 232 366 198 366 L198 366 Z " />
<glyph glyph-name="guillemotleft" unicode="&#xab;" horiz-adv-x="524" d="M290 101 L154 294 L290 492 L165 492 L27 295 L164 101 L290 101 Z M506 101 L370 294 L507 492 L381 492 L244 295 L380 101 L506 101 Z " />
<glyph glyph-name="logicalnot" unicode="&#xac;" horiz-adv-x="590" d="M534 136 L534 441 L45 441 L45 331 L420 331 L420 136 L534 136 Z " />
<glyph glyph-name="uni00AD" unicode="&#xad;" horiz-adv-x="380" d="M335 238 L335 356 L45 356 L45 238 L335 238 Z " />
<glyph glyph-name="registered" unicode="&#xae;" horiz-adv-x="816" d="M39 354 C39 151 203 -16 407 -16 C611 -16 777 151 777 354 C777 558 611 725 407 725 C203 725 39 558 39 354 L39 354 Z M124 354 C124 518 248 646 407 646 C566 646 690 518 690 354 C690 191 566 63 407 63 C248 63 124 191 124 354 L124 354 Z M467 157 L572 157 L492 311 C538 331 569 374 569 427 C569 499 509 557 432 557 L274 557 L274 157 L369 157 L369 296 L398 296 L467 157 Z M369 374 L369 479 L415 479 C451 479 473 459 473 426 C473 394 451 374 415 374 L369 374 Z " />
<glyph glyph-name="macron" unicode="&#xaf;" horiz-adv-x="335" d="M308 577 L308 674 L27 674 L27 577 L308 577 Z " />
<glyph glyph-name="degree" unicode="&#xb0;" horiz-adv-x="373" d="M120 499 C120 540 149 568 186 568 C224 568 252 540 252 499 C252 458 224 429 186 429 C149 429 120 457 120 499 L120 499 Z M20 499 C20 408 95 336 186 336 C276 336 353 406 353 499 C353 591 276 663 186 663 C96 663 20 591 20 499 L20 499 Z " />
<glyph glyph-name="plusminus" unicode="&#xb1;" horiz-adv-x="592" d="M62 421 L62 313 L240 313 L240 190 L352 190 L352 313 L530 313 L530 421 L352 421 L352 544 L240 544 L240 421 L62 421 Z M62 153 L62 44 L530 44 L530 153 L62 153 Z " />
<glyph glyph-name="twosuperior" unicode="&#xb2;" horiz-adv-x="394" d="M149 565 C147 571 146 578 146 583 C146 616 166 635 197 635 C225 635 239 614 239 596 C239 577 226 560 201 545 L141 510 C75 471 52 418 52 353 L52 341 L343 341 L343 426 L179 426 C179 432 184 437 191 441 L261 483 C311 513 340 547 340 595 C340 661 288 717 198 717 C104 717 54 662 54 593 C54 582 56 571 58 564 L149 565 Z " />
<glyph glyph-name="threesuperior" unicode="&#xb3;" horiz-adv-x="411" d="M51 448 C59 389 113 333 203 333 C300 333 360 391 360 458 C360 521 318 558 259 566 L349 627 L349 709 L65 709 L65 626 L226 626 L139 567 L172 499 C179 502 191 505 204 505 C231 505 257 492 257 460 C257 435 236 416 203 416 C169 416 145 439 142 469 L51 448 Z " />
<glyph glyph-name="acute" unicode="&#xb4;" horiz-adv-x="295" d="M269 701 L117 701 L26 551 L133 551 L269 701 Z " />
<glyph glyph-name="mu" unicode="&#xb5;" horiz-adv-x="594" d="M399 0 L526 0 C524 13 521 49 521 89 L521 492 L388 492 L388 206 C388 149 354 109 295 109 C233 109 205 153 205 208 L205 492 L72 492 L72 -190 L205 -190 L205 -6 C221 -11 239 -13 259 -13 C311 -13 368 7 395 53 C395 33 397 10 399 0 L399 0 Z " />
<glyph glyph-name="paragraph" unicode="&#xb6;" horiz-adv-x="666" d="M351 607 L447 607 L447 -194 L553 -194 L553 607 L650 607 L650 709 L263 709 C134 709 26 635 26 501 C26 388 119 301 230 301 L247 301 L247 -194 L351 -194 L351 607 Z " />
<glyph glyph-name="periodcentered" unicode="&#xb7;" horiz-adv-x="288" d="M61 309 C61 261 99 225 147 225 C195 225 233 261 233 309 C233 357 195 394 147 394 C99 394 61 357 61 309 L61 309 Z " />
<glyph glyph-name="cedilla" unicode="&#xb8;" horiz-adv-x="298" d="M119 -108 C127 -105 138 -104 146 -104 C170 -104 184 -117 184 -132 C184 -150 167 -160 143 -160 C108 -160 82 -137 68 -123 L25 -177 C44 -201 88 -229 144 -229 C237 -229 272 -180 272 -134 C272 -84 232 -49 175 -48 L214 13 L131 13 L83 -63 L119 -108 Z " />
<glyph glyph-name="onesuperior" unicode="&#xb9;" horiz-adv-x="303" d="M232 342 L232 709 L141 709 C134 673 101 631 38 631 L38 565 L129 565 L129 342 L232 342 Z " />
<glyph glyph-name="ordmasculine" unicode="&#xba;" horiz-adv-x="482" d="M242 385 C200 385 161 415 161 476 C161 536 200 566 242 566 C284 566 323 536 323 476 C323 415 284 385 242 385 L242 385 Z M242 659 C138 659 58 583 58 476 C58 368 138 292 242 292 C345 292 425 368 425 476 C425 583 345 659 242 659 L242 659 Z " />
<glyph glyph-name="guillemotright" unicode="&#xbb;" horiz-adv-x="524" d="M360 101 L497 295 L359 492 L234 492 L370 294 L234 101 L360 101 Z M144 101 L280 295 L142 492 L17 492 L153 294 L18 101 L144 101 Z " />
<glyph glyph-name="onequarter" unicode="&#xbc;" horiz-adv-x="808" d="M240 282 L240 649 L149 649 C142 613 109 571 46 571 L46 505 L137 505 L137 282 L240 282 Z M429 71 L607 71 L607 0 L707 0 L707 71 L768 71 L768 150 L707 150 L707 368 L598 368 L429 170 L429 71 Z M607 150 L510 150 L607 264 L607 150 Z M213 0 L671 649 L555 649 L97 0 L213 0 Z " />
<glyph glyph-name="onehalf" unicode="&#xbd;" horiz-adv-x="826" d="M240 282 L240 649 L149 649 C142 613 109 571 46 571 L46 505 L137 505 L137 282 L240 282 Z M212 0 L670 649 L554 649 L96 0 L212 0 Z M586 224 C584 230 583 237 583 242 C583 275 603 294 634 294 C662 294 676 273 676 255 C676 236 663 219 638 204 L578 169 C512 130 489 77 489 12 L489 0 L780 0 L780 85 L616 85 C616 91 621 96 628 100 L698 142 C748 172 777 206 777 254 C777 320 725 376 635 376 C541 376 491 321 491 252 C491 241 493 230 495 223 L586 224 Z " />
<glyph glyph-name="threequarters" unicode="&#xbe;" horiz-adv-x="884" d="M50 388 C58 329 112 273 202 273 C299 273 359 331 359 398 C359 461 317 498 258 506 L348 567 L348 649 L64 649 L64 566 L225 566 L138 507 L171 439 C178 442 190 445 203 445 C230 445 256 432 256 400 C256 375 235 356 202 356 C168 356 144 379 141 409 L50 388 Z M505 71 L683 71 L683 0 L783 0 L783 71 L844 71 L844 150 L783 150 L783 368 L674 368 L505 170 L505 71 Z M683 150 L586 150 L683 264 L683 150 Z M296 0 L754 649 L638 649 L180 0 L296 0 Z " />
<glyph glyph-name="questiondown" unicode="&#xbf;" horiz-adv-x="493" d="M206 284 L206 278 C206 237 186 205 152 181 L111 152 C53 111 14 53 14 -26 C14 -126 94 -225 249 -225 C398 -225 479 -123 479 -15 C479 0 477 15 474 29 L346 41 C350 30 352 14 352 0 C352 -54 319 -106 249 -106 C182 -106 150 -63 150 -17 C150 13 162 40 192 62 L240 97 C298 139 317 189 317 243 C317 258 316 271 314 284 L206 284 Z M179 428 C179 384 215 349 259 349 C303 349 338 384 338 428 C338 472 303 507 259 507 C215 507 179 472 179 428 L179 428 Z " />
<glyph glyph-name="Agrave" unicode="&#xc0;" horiz-adv-x="722" d="M562 0 L712 0 L442 709 L282 709 L10 0 L156 0 L215 162 L503 162 L562 0 Z M359 556 L457 288 L261 288 L359 556 Z M310 759 L432 759 L328 886 L165 886 L310 759 Z " />
<glyph glyph-name="Aacute" unicode="&#xc1;" horiz-adv-x="722" d="M562 0 L712 0 L442 709 L282 709 L10 0 L156 0 L215 162 L503 162 L562 0 Z M359 556 L457 288 L261 288 L359 556 Z M558 886 L394 886 L291 759 L413 759 L558 886 Z " />
<glyph glyph-name="Acircumflex" unicode="&#xc2;" horiz-adv-x="722" d="M562 0 L712 0 L442 709 L282 709 L10 0 L156 0 L215 162 L503 162 L562 0 Z M359 556 L457 288 L261 288 L359 556 Z M291 759 L356 824 L423 759 L548 759 L426 886 L290 886 L170 759 L291 759 Z " />
<glyph glyph-name="Atilde" unicode="&#xc3;" horiz-adv-x="722" d="M562 0 L712 0 L442 709 L282 709 L10 0 L156 0 L215 162 L503 162 L562 0 Z M359 556 L457 288 L261 288 L359 556 Z M525 890 L445 890 L445 878 C445 856 432 847 416 847 C402 847 387 857 369 866 L363 870 C342 882 317 893 287 893 C233 893 186 858 186 784 L186 757 L266 757 C266 787 275 800 295 800 C310 800 325 791 343 780 L349 776 C369 763 394 752 424 752 C479 752 525 789 525 862 L525 890 Z " />
<glyph glyph-name="Adieresis" unicode="&#xc4;" horiz-adv-x="722" d="M128 823 C128 782 158 751 199 751 C240 751 272 782 272 823 C272 863 240 895 199 895 C158 895 128 863 128 823 L128 823 Z M446 823 C446 782 477 751 518 751 C559 751 591 782 591 823 C591 863 559 895 518 895 C477 895 446 863 446 823 L446 823 Z M562 0 L712 0 L442 709 L282 709 L10 0 L156 0 L215 162 L503 162 L562 0 Z M359 556 L457 288 L261 288 L359 556 Z " />
<glyph glyph-name="Aring" unicode="&#xc5;" horiz-adv-x="722" d="M409 759 C409 729 386 709 359 709 C331 709 309 729 309 759 C309 790 331 810 359 810 C386 810 409 790 409 759 L409 759 Z M359 556 L457 288 L261 288 L359 556 Z M562 0 L712 0 L457 668 C480 691 495 723 495 759 C495 836 431 891 359 891 C287 891 223 836 223 759 C223 720 239 688 265 664 L10 0 L156 0 L215 162 L503 162 L562 0 Z " />
<glyph glyph-name="AE" unicode="&#xc6;" horiz-adv-x="1060" d="M1003 0 L1003 130 L697 130 L697 294 L973 294 L973 417 L697 417 L697 579 L1002 579 L1002 709 L478 709 L8 0 L177 0 L284 167 L558 167 L558 0 L1003 0 Z M358 283 L558 595 L558 283 L358 283 Z " />
<glyph glyph-name="Ccedilla" unicode="&#xc7;" horiz-adv-x="764" d="M370 -108 C377 -105 389 -104 397 -104 C421 -104 435 -117 435 -132 C435 -150 418 -160 394 -160 C359 -160 333 -137 319 -123 L276 -177 C295 -201 339 -229 395 -229 C488 -229 523 -180 523 -134 C523 -84 483 -49 426 -48 L449 -12 C618 6 705 126 730 226 L601 265 C582 199 523 120 402 120 C288 120 182 203 182 354 C182 515 294 591 400 591 C523 591 578 516 595 448 L725 489 C697 604 596 724 400 724 C210 724 39 580 39 354 C39 142 185 3 366 -13 L334 -63 L370 -108 Z " />
<glyph glyph-name="Egrave" unicode="&#xc8;" horiz-adv-x="582" d="M273 759 L395 759 L291 886 L128 886 L273 759 Z M525 0 L525 130 L219 130 L219 294 L496 294 L496 417 L219 417 L219 579 L525 579 L525 709 L81 709 L81 0 L525 0 Z " />
<glyph glyph-name="Eacute" unicode="&#xc9;" horiz-adv-x="582" d="M491 886 L327 886 L224 759 L346 759 L491 886 Z M525 0 L525 130 L219 130 L219 294 L496 294 L496 417 L219 417 L219 579 L525 579 L525 709 L81 709 L81 0 L525 0 Z " />
<glyph glyph-name="Ecircumflex" unicode="&#xca;" horiz-adv-x="582" d="M233 759 L298 824 L365 759 L490 759 L368 886 L232 886 L112 759 L233 759 Z M525 0 L525 130 L219 130 L219 294 L496 294 L496 417 L219 417 L219 579 L525 579 L525 709 L81 709 L81 0 L525 0 Z " />
<glyph glyph-name="Edieresis" unicode="&#xcb;" horiz-adv-x="582" d="M121 823 C121 782 151 751 192 751 C233 751 265 782 265 823 C265 863 233 895 192 895 C151 895 121 863 121 823 L121 823 Z M346 823 C346 782 376 751 417 751 C458 751 490 782 490 823 C490 863 458 895 417 895 C376 895 346 863 346 823 L346 823 Z M525 0 L525 130 L219 130 L219 294 L496 294 L496 417 L219 417 L219 579 L525 579 L525 709 L81 709 L81 0 L525 0 Z " />
<glyph glyph-name="Igrave" unicode="&#xcc;" horiz-adv-x="302" d="M221 0 L221 709 L81 709 L81 0 L221 0 Z M97 759 L219 759 L115 886 L-48 886 L97 759 Z " />
<glyph glyph-name="Iacute" unicode="&#xcd;" horiz-adv-x="302" d="M221 0 L221 709 L81 709 L81 0 L221 0 Z M350 886 L186 886 L83 759 L205 759 L350 886 Z " />
<glyph glyph-name="Icircumflex" unicode="&#xce;" horiz-adv-x="302" d="M221 0 L221 709 L81 709 L81 0 L221 0 Z M87 759 L152 824 L219 759 L344 759 L222 886 L86 886 L-34 759 L87 759 Z " />
<glyph glyph-name="Idieresis" unicode="&#xcf;" horiz-adv-x="302" d="M-12 823 C-12 783 17 753 57 753 C96 753 128 783 128 823 C128 862 96 893 57 893 C17 893 -12 862 -12 823 L-12 823 Z M177 823 C177 783 207 753 246 753 C286 753 317 783 317 823 C317 862 286 893 246 893 C207 893 177 862 177 823 L177 823 Z M221 0 L221 709 L81 709 L81 0 L221 0 Z " />
<glyph glyph-name="Eth" unicode="&#xd0;" horiz-adv-x="747" d="M357 0 C559 0 708 130 708 354 C708 578 560 709 358 709 L104 709 L104 417 L16 417 L16 315 L104 315 L104 0 L357 0 Z M242 128 L242 315 L379 315 L379 417 L242 417 L242 581 L353 581 C469 581 565 508 565 354 C565 200 468 128 352 128 L242 128 Z " />
<glyph glyph-name="Ntilde" unicode="&#xd1;" horiz-adv-x="767" d="M555 890 L475 890 L475 878 C475 856 462 847 446 847 C432 847 417 857 399 866 L393 870 C372 882 347 893 317 893 C263 893 216 858 216 784 L216 757 L296 757 C296 787 305 800 325 800 C340 800 355 791 373 780 L379 776 C399 763 424 752 454 752 C509 752 555 789 555 862 L555 890 Z M686 0 L686 709 L548 709 L548 240 L253 709 L81 709 L81 0 L219 0 L219 503 L541 0 L686 0 Z " />
<glyph glyph-name="Ograve" unicode="&#xd2;" horiz-adv-x="807" d="M346 759 L468 759 L364 886 L201 886 L346 759 Z M182 355 C182 515 294 591 403 591 C513 591 625 515 625 355 C625 195 513 119 403 119 C294 119 182 195 182 355 L182 355 Z M39 354 C39 126 211 -15 403 -15 C596 -15 768 126 768 354 C768 583 596 724 403 724 C211 724 39 583 39 354 L39 354 Z " />
<glyph glyph-name="Oacute" unicode="&#xd3;" horiz-adv-x="807" d="M600 886 L436 886 L333 759 L455 759 L600 886 Z M182 355 C182 515 294 591 403 591 C513 591 625 515 625 355 C625 195 513 119 403 119 C294 119 182 195 182 355 L182 355 Z M39 354 C39 126 211 -15 403 -15 C596 -15 768 126 768 354 C768 583 596 724 403 724 C211 724 39 583 39 354 L39 354 Z " />
<glyph glyph-name="Ocircumflex" unicode="&#xd4;" horiz-adv-x="807" d="M336 759 L401 824 L468 759 L593 759 L471 886 L335 886 L215 759 L336 759 Z M182 355 C182 515 294 591 403 591 C513 591 625 515 625 355 C625 195 513 119 403 119 C294 119 182 195 182 355 L182 355 Z M39 354 C39 126 211 -15 403 -15 C596 -15 768 126 768 354 C768 583 596 724 403 724 C211 724 39 583 39 354 L39 354 Z " />
<glyph glyph-name="Otilde" unicode="&#xd5;" horiz-adv-x="807" d="M571 890 L491 890 L491 878 C491 856 478 847 462 847 C448 847 433 857 415 866 L409 870 C388 882 363 893 333 893 C279 893 232 858 232 784 L232 757 L312 757 C312 787 321 800 341 800 C356 800 371 791 389 780 L395 776 C415 763 440 752 470 752 C525 752 571 789 571 862 L571 890 Z M182 355 C182 515 294 591 403 591 C513 591 625 515 625 355 C625 195 513 119 403 119 C294 119 182 195 182 355 L182 355 Z M39 354 C39 126 211 -15 403 -15 C596 -15 768 126 768 354 C768 583 596 724 403 724 C211 724 39 583 39 354 L39 354 Z " />
<glyph glyph-name="Odieresis" unicode="&#xd6;" horiz-adv-x="807" d="M165 823 C165 782 196 751 237 751 C278 751 310 782 310 823 C310 863 278 895 237 895 C196 895 165 863 165 823 L165 823 Z M498 823 C498 782 529 751 570 751 C610 751 642 782 642 823 C642 863 610 895 570 895 C529 895 498 863 498 823 L498 823 Z M182 355 C182 515 294 591 403 591 C513 591 625 515 625 355 C625 195 513 119 403 119 C294 119 182 195 182 355 L182 355 Z M39 354 C39 126 211 -15 403 -15 C596 -15 768 126 768 354 C768 583 596 724 403 724 C211 724 39 583 39 354 L39 354 Z " />
<glyph glyph-name="multiply" unicode="&#xd7;" horiz-adv-x="563" d="M447 47 L526 127 L360 295 L526 464 L446 542 L281 375 L117 542 L37 463 L202 295 L37 127 L116 48 L281 215 L447 47 Z " />
<glyph glyph-name="Oslash" unicode="&#xd8;" horiz-adv-x="807" d="M39 354 C39 248 76 161 135 98 L64 7 L154 -58 L222 30 C276 1 338 -15 403 -15 C596 -15 768 126 768 354 C768 460 731 548 672 611 L742 702 L654 768 L584 678 C530 708 467 724 403 724 C211 724 39 583 39 354 L39 354 Z M182 355 C182 515 294 591 403 591 C436 591 470 584 500 570 L222 211 C197 247 182 295 182 355 L182 355 Z M625 355 C625 195 513 119 403 119 C370 119 337 126 307 140 L585 499 C610 463 625 414 625 355 L625 355 Z " />
<glyph glyph-name="Ugrave" unicode="&#xd9;" horiz-adv-x="693" d="M303 759 L425 759 L321 886 L158 886 L303 759 Z M346 -16 C498 -16 619 77 619 251 L619 709 L481 709 L481 261 C481 168 430 119 346 119 C264 119 212 168 212 261 L212 709 L74 709 L74 251 C74 77 195 -16 346 -16 L346 -16 Z " />
<glyph glyph-name="Uacute" unicode="&#xda;" horiz-adv-x="693" d="M528 886 L364 886 L261 759 L383 759 L528 886 Z M346 -16 C498 -16 619 77 619 251 L619 709 L481 709 L481 261 C481 168 430 119 346 119 C264 119 212 168 212 261 L212 709 L74 709 L74 251 C74 77 195 -16 346 -16 L346 -16 Z " />
<glyph glyph-name="Ucircumflex" unicode="&#xdb;" horiz-adv-x="693" d="M279 759 L344 824 L411 759 L536 759 L414 886 L278 886 L158 759 L279 759 Z M346 -16 C498 -16 619 77 619 251 L619 709 L481 709 L481 261 C481 168 430 119 346 119 C264 119 212 168 212 261 L212 709 L74 709 L74 251 C74 77 195 -16 346 -16 L346 -16 Z " />
<glyph glyph-name="Udieresis" unicode="&#xdc;" horiz-adv-x="693" d="M155 823 C155 782 186 751 227 751 C267 751 299 782 299 823 C299 863 267 895 227 895 C186 895 155 863 155 823 L155 823 Z M395 823 C395 782 426 751 467 751 C507 751 539 782 539 823 C539 863 507 895 467 895 C426 895 395 863 395 823 L395 823 Z M346 -16 C498 -16 619 77 619 251 L619 709 L481 709 L481 261 C481 168 430 119 346 119 C264 119 212 168 212 261 L212 709 L74 709 L74 251 C74 77 195 -16 346 -16 L346 -16 Z " />
<glyph glyph-name="Yacute" unicode="&#xdd;" horiz-adv-x="655" d="M257 298 L257 0 L395 0 L395 298 L645 709 L490 709 L331 428 L172 709 L10 709 L257 298 Z M516 886 L352 886 L249 759 L371 759 L516 886 Z " />
<glyph glyph-name="Thorn" unicode="&#xde;" horiz-adv-x="604" d="M220 257 L220 461 L329 461 C398 461 440 421 440 358 C440 297 398 257 329 257 L220 257 Z M342 139 C477 139 579 233 579 359 C579 485 477 580 341 580 L219 580 L219 709 L81 709 L81 0 L219 0 L219 139 L342 139 Z " />
<glyph glyph-name="germandbls" unicode="&#xdf;" horiz-adv-x="596" d="M401 343 C401 360 411 368 428 379 L448 391 C494 421 536 463 536 541 C536 641 448 724 310 724 C184 724 71 648 71 486 L71 0 L202 0 L202 477 C202 569 253 607 310 607 C375 607 404 571 404 535 C404 505 387 483 355 463 L335 450 C304 430 268 394 268 334 C268 256 327 221 378 200 L408 188 C442 174 456 157 456 132 C456 110 437 86 403 86 C357 86 341 123 341 149 L234 128 C234 70 281 -15 402 -15 C528 -15 580 73 580 141 C580 212 535 268 468 295 L438 308 C414 318 402 324 401 343 L401 343 Z " />
<glyph glyph-name="agrave" unicode="&#xe0;" horiz-adv-x="539" d="M41 134 C41 57 105 -14 210 -14 C283 -14 330 20 355 59 C355 40 357 13 360 0 L482 0 C479 17 476 52 476 78 L476 320 C476 419 418 507 262 507 C130 507 59 422 51 345 L169 320 C173 363 205 400 263 400 C319 400 346 371 346 336 C346 319 337 305 309 301 L188 283 C106 271 41 222 41 134 L41 134 Z M238 85 C195 85 174 113 174 142 C174 180 201 199 235 204 L346 221 L346 199 C346 112 294 85 238 85 L238 85 Z M227 551 L335 551 L245 701 L91 701 L227 551 Z " />
<glyph glyph-name="aacute" unicode="&#xe1;" horiz-adv-x="539" d="M41 134 C41 57 105 -14 210 -14 C283 -14 330 20 355 59 C355 40 357 13 360 0 L482 0 C479 17 476 52 476 78 L476 320 C476 419 418 507 262 507 C130 507 59 422 51 345 L169 320 C173 363 205 400 263 400 C319 400 346 371 346 336 C346 319 337 305 309 301 L188 283 C106 271 41 222 41 134 L41 134 Z M238 85 C195 85 174 113 174 142 C174 180 201 199 235 204 L346 221 L346 199 C346 112 294 85 238 85 L238 85 Z M443 701 L291 701 L200 551 L307 551 L443 701 Z " />
<glyph glyph-name="acircumflex" unicode="&#xe2;" horiz-adv-x="539" d="M41 134 C41 57 105 -14 210 -14 C283 -14 330 20 355 59 C355 40 357 13 360 0 L482 0 C479 17 476 52 476 78 L476 320 C476 419 418 507 262 507 C130 507 59 422 51 345 L169 320 C173 363 205 400 263 400 C319 400 346 371 346 336 C346 319 337 305 309 301 L188 283 C106 271 41 222 41 134 L41 134 Z M238 85 C195 85 174 113 174 142 C174 180 201 199 235 204 L346 221 L346 199 C346 112 294 85 238 85 L238 85 Z M193 552 L263 627 L334 552 L441 552 L331 699 L199 699 L89 552 L193 552 Z " />
<glyph glyph-name="atilde" unicode="&#xe3;" horiz-adv-x="539" d="M41 134 C41 57 105 -14 210 -14 C283 -14 330 20 355 59 C355 40 357 13 360 0 L482 0 C479 17 476 52 476 78 L476 320 C476 419 418 507 262 507 C130 507 59 422 51 345 L169 320 C173 363 205 400 263 400 C319 400 346 371 346 336 C346 319 337 305 309 301 L188 283 C106 271 41 222 41 134 L41 134 Z M238 85 C195 85 174 113 174 142 C174 180 201 199 235 204 L346 221 L346 199 C346 112 294 85 238 85 L238 85 Z M443 696 L363 696 C363 667 351 653 330 653 C314 653 299 662 282 672 L276 676 C255 687 233 698 204 698 C143 698 95 658 95 577 L95 556 L177 556 C178 587 191 599 212 599 C236 599 246 589 259 581 L265 577 C284 564 308 555 336 555 C398 555 443 595 443 678 L443 696 Z " />
<glyph glyph-name="adieresis" unicode="&#xe4;" horiz-adv-x="539" d="M41 134 C41 57 105 -14 210 -14 C283 -14 330 20 355 59 C355 40 357 13 360 0 L482 0 C479 17 476 52 476 78 L476 320 C476 419 418 507 262 507 C130 507 59 422 51 345 L169 320 C173 363 205 400 263 400 C319 400 346 371 346 336 C346 319 337 305 309 301 L188 283 C106 271 41 222 41 134 L41 134 Z M238 85 C195 85 174 113 174 142 C174 180 201 199 235 204 L346 221 L346 199 C346 112 294 85 238 85 L238 85 Z M91 628 C91 589 122 558 161 558 C200 558 232 589 232 628 C232 667 200 699 161 699 C122 699 91 667 91 628 L91 628 Z M301 628 C301 589 331 558 371 558 C410 558 442 589 442 628 C442 667 410 699 371 699 C331 699 301 667 301 628 L301 628 Z " />
<glyph glyph-name="aring" unicode="&#xe5;" horiz-adv-x="539" d="M41 134 C41 57 105 -14 210 -14 C283 -14 330 20 355 59 C355 40 357 13 360 0 L482 0 C479 17 476 52 476 78 L476 320 C476 419 418 507 262 507 C130 507 59 422 51 345 L169 320 C173 363 205 400 263 400 C319 400 346 371 346 336 C346 319 337 305 309 301 L188 283 C106 271 41 222 41 134 L41 134 Z M238 85 C195 85 174 113 174 142 C174 180 201 199 235 204 L346 221 L346 199 C346 112 294 85 238 85 L238 85 Z M375 653 C375 718 321 765 260 765 C199 765 145 718 145 653 C145 589 199 543 260 543 C321 543 375 589 375 653 L375 653 Z M300 653 C300 629 282 612 259 612 C236 612 219 629 219 653 C219 678 236 695 259 695 C282 695 300 678 300 653 L300 653 Z " />
<glyph glyph-name="ae" unicode="&#xe6;" horiz-adv-x="871" d="M715 176 C700 131 665 98 602 98 C536 98 481 143 478 211 L831 211 C832 213 834 233 834 252 C834 410 745 507 595 507 C534 507 477 484 433 443 C401 482 347 507 266 507 C137 507 58 424 51 345 L167 321 C171 363 206 401 265 401 C323 401 351 371 351 336 C351 320 343 305 314 301 L188 283 C106 271 41 222 41 134 C41 57 106 -15 223 -15 C296 -15 362 9 410 73 C456 16 525 -15 601 -15 C720 -15 802 56 827 141 L715 176 Z M242 85 C196 85 172 114 172 142 C172 180 200 199 235 204 L351 221 L351 198 C351 112 294 85 242 85 L242 85 Z M481 302 C484 347 521 399 591 399 C669 399 701 351 703 302 L481 302 Z " />
<glyph glyph-name="ccedilla" unicode="&#xe7;" horiz-adv-x="550" d="M258 -108 C265 -105 277 -104 285 -104 C309 -104 323 -117 323 -132 C323 -150 306 -160 282 -160 C247 -160 221 -137 207 -123 L164 -177 C183 -201 227 -229 283 -229 C376 -229 411 -180 411 -134 C411 -84 371 -49 314 -48 L337 -12 C441 4 503 79 523 151 L406 190 C395 152 361 107 293 107 C225 107 167 157 167 246 C167 335 224 384 292 384 C358 384 389 342 401 301 L520 341 C499 424 423 507 289 507 C146 507 34 398 34 246 C34 109 128 5 254 -12 L222 -63 L258 -108 Z " />
<glyph glyph-name="egrave" unicode="&#xe8;" horiz-adv-x="553" d="M168 302 C171 347 209 399 278 399 C354 399 386 351 388 302 L168 302 Z M401 174 C385 130 351 99 289 99 C223 99 168 146 165 211 L517 211 C517 213 519 233 519 252 C519 410 428 507 276 507 C150 507 34 405 34 248 C34 82 153 -15 288 -15 C409 -15 487 56 512 141 L401 174 Z M240 551 L348 551 L258 701 L104 701 L240 551 Z " />
<glyph glyph-name="eacute" unicode="&#xe9;" horiz-adv-x="553" d="M458 701 L306 701 L215 551 L322 551 L458 701 Z M168 302 C171 347 209 399 278 399 C354 399 386 351 388 302 L168 302 Z M401 174 C385 130 351 99 289 99 C223 99 168 146 165 211 L517 211 C517 213 519 233 519 252 C519 410 428 507 276 507 C150 507 34 405 34 248 C34 82 153 -15 288 -15 C409 -15 487 56 512 141 L401 174 Z " />
<glyph glyph-name="ecircumflex" unicode="&#xea;" horiz-adv-x="553" d="M210 552 L280 627 L351 552 L458 552 L348 699 L216 699 L106 552 L210 552 Z M168 302 C171 347 209 399 278 399 C354 399 386 351 388 302 L168 302 Z M401 174 C385 130 351 99 289 99 C223 99 168 146 165 211 L517 211 C517 213 519 233 519 252 C519 410 428 507 276 507 C150 507 34 405 34 248 C34 82 153 -15 288 -15 C409 -15 487 56 512 141 L401 174 Z " />
<glyph glyph-name="edieresis" unicode="&#xeb;" horiz-adv-x="553" d="M107 628 C107 589 138 558 177 558 C216 558 248 589 248 628 C248 667 216 699 177 699 C138 699 107 667 107 628 L107 628 Z M317 628 C317 589 347 558 387 558 C426 558 458 589 458 628 C458 667 426 699 387 699 C347 699 317 667 317 628 L317 628 Z M168 302 C171 347 209 399 278 399 C354 399 386 351 388 302 L168 302 Z M401 174 C385 130 351 99 289 99 C223 99 168 146 165 211 L517 211 C517 213 519 233 519 252 C519 410 428 507 276 507 C150 507 34 405 34 248 C34 82 153 -15 288 -15 C409 -15 487 56 512 141 L401 174 Z " />
<glyph glyph-name="igrave" unicode="&#xec;" horiz-adv-x="275" d="M204 0 L204 492 L71 492 L71 0 L204 0 Z M94 551 L202 551 L112 701 L-42 701 L94 551 Z " />
<glyph glyph-name="iacute" unicode="&#xed;" horiz-adv-x="275" d="M321 701 L169 701 L78 551 L185 551 L321 701 Z M204 0 L204 492 L71 492 L71 0 L204 0 Z " />
<glyph glyph-name="icircumflex" unicode="&#xee;" horiz-adv-x="275" d="M66 552 L136 627 L207 552 L314 552 L204 699 L72 699 L-38 552 L66 552 Z M204 0 L204 492 L71 492 L71 0 L204 0 Z " />
<glyph glyph-name="idieresis" unicode="&#xef;" horiz-adv-x="275" d="M-21 628 C-21 590 9 560 47 560 C85 560 116 590 116 628 C116 667 85 697 47 697 C9 697 -21 667 -21 628 L-21 628 Z M158 628 C158 590 188 560 226 560 C265 560 295 590 295 628 C295 667 265 697 226 697 C188 697 158 667 158 628 L158 628 Z M204 0 L204 492 L71 492 L71 0 L204 0 Z " />
<glyph glyph-name="eth" unicode="&#xf0;" horiz-adv-x="581" d="M512 622 L478 703 L364 655 C303 700 233 729 166 746 L125 646 C161 635 199 620 236 600 L149 563 L181 483 L318 541 C350 510 377 471 392 424 C369 448 320 462 275 462 C157 462 34 382 34 229 C34 89 144 -15 290 -15 C461 -15 548 120 548 277 C548 408 502 515 435 590 L512 622 Z M290 105 C226 105 166 150 166 231 C166 312 226 357 290 357 C355 357 415 314 415 231 C415 149 355 105 290 105 L290 105 Z " />
<glyph glyph-name="ntilde" unicode="&#xf1;" horiz-adv-x="584" d="M204 283 C204 340 238 385 296 385 C360 385 387 342 387 287 L387 0 L520 0 L520 310 C520 418 464 505 342 505 C289 505 230 482 200 431 L200 492 L71 492 L71 0 L204 0 L204 283 Z M474 696 L394 696 C394 667 382 653 361 653 C345 653 330 662 313 672 L307 676 C286 687 264 698 235 698 C174 698 126 658 126 577 L126 556 L208 556 C209 587 222 599 243 599 C267 599 277 589 290 581 L296 577 C315 564 339 555 367 555 C429 555 474 595 474 678 L474 696 Z " />
<glyph glyph-name="ograve" unicode="&#xf2;" horiz-adv-x="584" d="M292 106 C227 106 167 154 167 246 C167 339 227 386 292 386 C357 386 417 339 417 246 C417 153 357 106 292 106 L292 106 Z M292 507 C145 507 34 398 34 246 C34 95 145 -15 292 -15 C439 -15 550 95 550 246 C550 398 439 507 292 507 L292 507 Z M245 551 L353 551 L263 701 L109 701 L245 551 Z " />
<glyph glyph-name="oacute" unicode="&#xf3;" horiz-adv-x="584" d="M467 701 L315 701 L224 551 L331 551 L467 701 Z M292 106 C227 106 167 154 167 246 C167 339 227 386 292 386 C357 386 417 339 417 246 C417 153 357 106 292 106 L292 106 Z M292 507 C145 507 34 398 34 246 C34 95 145 -15 292 -15 C439 -15 550 95 550 246 C550 398 439 507 292 507 L292 507 Z " />
<glyph glyph-name="ocircumflex" unicode="&#xf4;" horiz-adv-x="584" d="M222 552 L292 627 L363 552 L470 552 L360 699 L228 699 L118 552 L222 552 Z M292 106 C227 106 167 154 167 246 C167 339 227 386 292 386 C357 386 417 339 417 246 C417 153 357 106 292 106 L292 106 Z M292 507 C145 507 34 398 34 246 C34 95 145 -15 292 -15 C439 -15 550 95 550 246 C550 398 439 507 292 507 L292 507 Z " />
<glyph glyph-name="otilde" unicode="&#xf5;" horiz-adv-x="584" d="M292 106 C227 106 167 154 167 246 C167 339 227 386 292 386 C357 386 417 339 417 246 C417 153 357 106 292 106 L292 106 Z M292 507 C145 507 34 398 34 246 C34 95 145 -15 292 -15 C439 -15 550 95 550 246 C550 398 439 507 292 507 L292 507 Z M467 696 L387 696 C387 667 375 653 354 653 C338 653 323 662 306 672 L300 676 C279 687 257 698 228 698 C167 698 119 658 119 577 L119 556 L201 556 C202 587 215 599 236 599 C260 599 270 589 283 581 L289 577 C308 564 332 555 360 555 C422 555 467 595 467 678 L467 696 Z " />
<glyph glyph-name="odieresis" unicode="&#xf6;" horiz-adv-x="584" d="M116 628 C116 589 147 558 186 558 C225 558 257 589 257 628 C257 667 225 699 186 699 C147 699 116 667 116 628 L116 628 Z M326 628 C326 589 356 558 396 558 C435 558 467 589 467 628 C467 667 435 699 396 699 C356 699 326 667 326 628 L326 628 Z M292 106 C227 106 167 154 167 246 C167 339 227 386 292 386 C357 386 417 339 417 246 C417 153 357 106 292 106 L292 106 Z M292 507 C145 507 34 398 34 246 C34 95 145 -15 292 -15 C439 -15 550 95 550 246 C550 398 439 507 292 507 L292 507 Z " />
<glyph glyph-name="divide" unicode="&#xf7;" horiz-adv-x="587" d="M213 112 C213 70 248 34 291 34 C334 34 369 70 369 112 C369 154 334 189 291 189 C248 189 213 154 213 112 L213 112 Z M213 478 C213 436 248 400 291 400 C334 400 369 436 369 478 C369 520 334 555 291 555 C248 555 213 520 213 478 L213 478 Z M49 239 L538 239 L538 350 L49 350 L49 239 Z " />
<glyph glyph-name="oslash" unicode="&#xf8;" horiz-adv-x="584" d="M292 507 C145 507 34 398 34 246 C34 176 58 115 98 69 L48 8 L114 -46 L164 16 C201 -3 245 -15 292 -15 C439 -15 550 95 550 246 C550 314 527 374 489 419 L541 484 L477 538 L424 473 C386 495 341 507 292 507 L292 507 Z M167 246 C167 339 227 386 292 386 C310 386 328 382 345 375 L182 174 C172 194 167 217 167 246 L167 246 Z M292 106 C275 106 259 109 244 115 L404 314 C412 295 417 272 417 246 C417 153 357 106 292 106 L292 106 Z " />
<glyph glyph-name="ugrave" unicode="&#xf9;" horiz-adv-x="586" d="M393 0 L520 0 C518 17 515 51 515 89 L515 492 L382 492 L382 206 C382 149 348 109 289 109 C227 109 199 153 199 208 L199 492 L66 492 L66 181 C66 74 134 -13 253 -13 C305 -13 362 7 389 53 C389 33 391 10 393 0 L393 0 Z M258 551 L366 551 L276 701 L122 701 L258 551 Z " />
<glyph glyph-name="uacute" unicode="&#xfa;" horiz-adv-x="586" d="M450 701 L298 701 L207 551 L314 551 L450 701 Z M393 0 L520 0 C518 17 515 51 515 89 L515 492 L382 492 L382 206 C382 149 348 109 289 109 C227 109 199 153 199 208 L199 492 L66 492 L66 181 C66 74 134 -13 253 -13 C305 -13 362 7 389 53 C389 33 391 10 393 0 L393 0 Z " />
<glyph glyph-name="ucircumflex" unicode="&#xfb;" horiz-adv-x="586" d="M220 552 L290 627 L361 552 L468 552 L358 699 L226 699 L116 552 L220 552 Z M393 0 L520 0 C518 17 515 51 515 89 L515 492 L382 492 L382 206 C382 149 348 109 289 109 C227 109 199 153 199 208 L199 492 L66 492 L66 181 C66 74 134 -13 253 -13 C305 -13 362 7 389 53 C389 33 391 10 393 0 L393 0 Z " />
<glyph glyph-name="udieresis" unicode="&#xfc;" horiz-adv-x="586" d="M118 628 C118 589 149 558 188 558 C227 558 259 589 259 628 C259 667 227 699 188 699 C149 699 118 667 118 628 L118 628 Z M328 628 C328 589 358 558 398 558 C437 558 469 589 469 628 C469 667 437 699 398 699 C358 699 328 667 328 628 L328 628 Z M393 0 L520 0 C518 17 515 51 515 89 L515 492 L382 492 L382 206 C382 149 348 109 289 109 C227 109 199 153 199 208 L199 492 L66 492 L66 181 C66 74 134 -13 253 -13 C305 -13 362 7 389 53 C389 33 391 10 393 0 L393 0 Z " />
<glyph glyph-name="yacute" unicode="&#xfd;" horiz-adv-x="560" d="M241 -194 L550 492 L408 492 L287 204 L156 492 L7 492 L216 62 L100 -194 L241 -194 Z M449 701 L297 701 L206 551 L313 551 L449 701 Z " />
<glyph glyph-name="thorn" unicode="&#xfe;" horiz-adv-x="612" d="M204 -190 L204 48 C228 15 278 -12 346 -12 C485 -12 578 98 578 247 C578 393 495 503 351 503 C281 503 228 473 204 438 L204 724 L71 724 L71 -190 L204 -190 Z M447 246 C447 158 393 107 325 107 C257 107 202 159 202 246 C202 333 257 384 325 384 C393 384 447 333 447 246 L447 246 Z " />
<glyph glyph-name="ydieresis" unicode="&#xff;" horiz-adv-x="560" d="M241 -194 L550 492 L408 492 L287 204 L156 492 L7 492 L216 62 L100 -194 L241 -194 Z M107 628 C107 589 138 558 177 558 C216 558 248 589 248 628 C248 667 216 699 177 699 C138 699 107 667 107 628 L107 628 Z M317 628 C317 589 347 558 387 558 C426 558 458 589 458 628 C458 667 426 699 387 699 C347 699 317 667 317 628 L317 628 Z " />
<glyph glyph-name="dotlessi" unicode="&#x131;" horiz-adv-x="275" d="M204 0 L204 492 L71 492 L71 0 L204 0 Z " />
<glyph glyph-name="Lslash" unicode="&#x141;" horiz-adv-x="582" d="M557 0 L557 132 L241 132 L241 322 L402 395 L402 506 L241 433 L241 709 L103 709 L103 370 L11 328 L11 217 L103 259 L103 0 L557 0 Z " />
<glyph glyph-name="lslash" unicode="&#x142;" horiz-adv-x="327" d="M229 0 L229 318 L316 358 L316 469 L229 429 L229 724 L96 724 L96 369 L11 330 L11 219 L96 258 L96 0 L229 0 Z " />
<glyph glyph-name="OE" unicode="&#x152;" horiz-adv-x="1126" d="M182 355 C182 515 294 591 403 591 C513 591 625 515 625 355 C625 195 513 119 403 119 C294 119 182 195 182 355 L182 355 Z M1069 0 L1069 130 L763 130 L763 294 L1040 294 L1040 417 L763 417 L763 579 L1069 579 L1069 709 L625 709 L625 637 C571 693 496 724 403 724 C211 724 39 583 39 354 C39 126 211 -15 403 -15 C496 -15 571 15 625 71 L625 0 L1069 0 Z " />
<glyph glyph-name="oe" unicode="&#x153;" horiz-adv-x="937" d="M552 302 C555 347 593 399 662 399 C738 399 770 351 772 302 L552 302 Z M292 106 C227 106 167 154 167 246 C167 339 227 386 292 386 C357 386 417 339 417 246 C417 153 357 106 292 106 L292 106 Z M292 507 C145 507 34 398 34 246 C34 95 145 -15 292 -15 C369 -15 436 15 483 66 C530 13 599 -15 672 -15 C793 -15 871 56 896 141 L785 174 C769 130 735 99 673 99 C607 99 552 146 549 211 L901 211 C901 213 903 233 903 252 C903 410 812 507 660 507 C592 507 528 478 482 427 C436 477 369 507 292 507 L292 507 Z " />
<glyph glyph-name="Scaron" unicode="&#x160;" horiz-adv-x="604" d="M121 886 L241 759 L377 759 L499 886 L378 886 L311 822 L245 886 L121 886 Z M558 540 C542 620 476 724 304 724 C170 724 57 628 57 502 C57 395 130 322 243 299 L342 279 C397 268 428 236 428 195 C428 145 387 108 313 108 C213 108 164 171 158 241 L30 207 C41 106 124 -15 312 -15 C477 -15 568 95 568 204 C568 304 499 388 370 413 L271 432 C219 442 194 473 194 512 C194 559 238 602 305 602 C395 602 427 541 434 502 L558 540 Z " />
<glyph glyph-name="scaron" unicode="&#x161;" horiz-adv-x="461" d="M55 700 L165 552 L298 552 L407 700 L302 700 L232 625 L162 700 L55 700 Z M29 137 C35 81 86 -15 234 -15 C363 -15 425 67 425 147 C425 219 376 278 279 298 L209 313 C182 318 164 333 164 357 C164 385 192 406 227 406 C283 406 304 369 308 340 L419 365 C413 418 366 507 226 507 C120 507 42 434 42 346 C42 277 85 220 180 199 L245 184 C283 176 298 158 298 136 C298 110 277 87 233 87 C175 87 146 123 143 162 L29 137 Z " />
<glyph glyph-name="Ydieresis" unicode="&#x178;" horiz-adv-x="655" d="M139 823 C139 782 170 751 211 751 C252 751 284 782 284 823 C284 863 252 895 211 895 C170 895 139 863 139 823 L139 823 Z M376 823 C376 782 407 751 448 751 C488 751 520 782 520 823 C520 863 488 895 448 895 C407 895 376 863 376 823 L376 823 Z M257 298 L257 0 L395 0 L395 298 L645 709 L490 709 L331 428 L172 709 L10 709 L257 298 Z " />
<glyph glyph-name="Zcaron" unicode="&#x17d;" horiz-adv-x="640" d="M137 886 L257 759 L393 759 L515 886 L394 886 L327 822 L261 886 L137 886 Z M597 0 L597 132 L217 132 L592 580 L592 709 L52 709 L52 578 L408 578 L39 134 L39 0 L597 0 Z " />
<glyph glyph-name="zcaron" unicode="&#x17e;" horiz-adv-x="481" d="M68 700 L178 552 L311 552 L420 700 L315 700 L245 625 L175 700 L68 700 Z M444 0 L444 116 L200 116 L440 381 L440 492 L43 492 L43 377 L270 377 L37 117 L37 0 L444 0 Z " />
<glyph glyph-name="florin" unicode="&#x192;" horiz-adv-x="513" d="M119 27 C106 -39 62 -49 35 -49 C10 -49 -12 -46 -30 -42 L-30 -156 C-3 -165 15 -170 62 -170 C142 -170 227 -123 249 -13 L328 379 L468 379 L468 491 L351 491 L362 544 C375 610 419 619 446 619 C470 619 490 616 508 612 L508 727 C480 736 465 740 419 740 C339 740 254 694 232 583 L213 491 L92 491 L92 379 L190 379 L119 27 Z " />
<glyph glyph-name="circumflex" unicode="&#x2c6;" horiz-adv-x="404" d="M130 552 L200 627 L271 552 L378 552 L268 699 L136 699 L26 552 L130 552 Z " />
<glyph glyph-name="caron" unicode="&#x2c7;" horiz-adv-x="404" d="M26 700 L136 552 L269 552 L378 700 L273 700 L203 625 L133 700 L26 700 Z " />
<glyph glyph-name="uni02C9" unicode="&#x2c9;" horiz-adv-x="335" d="M308 577 L308 674 L27 674 L27 577 L308 577 Z " />
<glyph glyph-name="breve" unicode="&#x2d8;" horiz-adv-x="374" d="M187 549 C293 549 346 622 348 700 L259 700 C257 673 237 641 187 641 C137 641 117 673 115 700 L26 700 C28 622 82 549 187 549 L187 549 Z " />
<glyph glyph-name="dotaccent" unicode="&#x2d9;" horiz-adv-x="192" d="M16 627 C16 583 52 549 96 549 C140 549 176 583 176 627 C176 672 140 706 96 706 C52 706 16 672 16 627 L16 627 Z " />
<glyph glyph-name="ring" unicode="&#x2da;" horiz-adv-x="282" d="M256 648 C256 713 202 760 141 760 C80 760 26 713 26 648 C26 584 80 538 141 538 C202 538 256 584 256 648 L256 648 Z M181 648 C181 624 163 607 140 607 C117 607 100 624 100 648 C100 673 117 690 140 690 C163 690 181 673 181 648 L181 648 Z " />
<glyph glyph-name="ogonek" unicode="&#x2db;" horiz-adv-x="224" d="M146 -223 C169 -223 185 -220 198 -215 L198 -136 C190 -138 180 -139 170 -139 C140 -139 119 -124 119 -94 C119 -51 160 -18 198 0 L126 16 C81 -4 23 -41 23 -116 C23 -181 75 -223 146 -223 L146 -223 Z " />
<glyph glyph-name="tilde" unicode="&#x2dc;" horiz-adv-x="391" d="M369 696 L289 696 C289 667 277 653 256 653 C240 653 225 662 208 672 L202 676 C181 687 159 698 130 698 C69 698 21 658 21 577 L21 556 L103 556 C104 587 117 599 138 599 C162 599 172 589 185 581 L191 577 C210 564 234 555 262 555 C324 555 369 595 369 678 L369 696 Z " />
<glyph glyph-name="hungarumlaut" unicode="&#x2dd;" horiz-adv-x="396" d="M205 701 L76 701 L24 551 L108 551 L205 701 Z M372 701 L241 701 L175 551 L260 551 L372 701 Z " />
<glyph glyph-name="uni0394" unicode="&#x394;" horiz-adv-x="691" d="M0 0 L691 0 L420 709 L270 709 L0 0 Z M345 559 L500 128 L191 128 L345 559 Z " />
<glyph glyph-name="uni03A9" unicode="&#x3a9;" horiz-adv-x="782" d="M391 595 C494 595 594 524 594 394 C594 281 512 208 427 190 L427 0 L729 0 L729 126 L550 126 C648 165 737 264 737 403 C737 601 574 725 391 725 C208 725 45 601 45 403 C45 264 133 165 231 126 L52 126 L52 0 L354 0 L354 190 C269 208 188 281 188 394 C188 524 288 595 391 595 L391 595 Z " />
<glyph glyph-name="uni03BC" unicode="&#x3bc;" horiz-adv-x="594" d="M399 0 L526 0 C524 13 521 49 521 89 L521 492 L388 492 L388 206 C388 149 354 109 295 109 C233 109 205 153 205 208 L205 492 L72 492 L72 -190 L205 -190 L205 -6 C221 -11 239 -13 259 -13 C311 -13 368 7 395 53 C395 33 397 10 399 0 L399 0 Z " />
<glyph glyph-name="pi" unicode="&#x3c0;" horiz-adv-x="638" d="M597 5 L597 109 C587 108 582 106 566 106 C541 106 517 117 517 153 L517 378 L595 378 L595 492 L36 492 L36 378 L119 378 L119 0 L252 0 L252 378 L385 378 L385 135 C385 51 431 -8 527 -8 C568 -8 593 3 597 5 L597 5 Z " />
<glyph glyph-name="uni2007" unicode="&#x2007;" horiz-adv-x="624" d="" />
<glyph glyph-name="uni2008" unicode="&#x2008;" horiz-adv-x="311" d="" />
<glyph glyph-name="uni200B" unicode="&#x200b;" d="" />
<glyph glyph-name="endash" unicode="&#x2013;" horiz-adv-x="640" d="M578 239 L578 354 L62 354 L62 239 L578 239 Z " />
<glyph glyph-name="emdash" unicode="&#x2014;" horiz-adv-x="1084" d="M1012 239 L1012 354 L72 354 L72 239 L1012 239 Z " />
<glyph glyph-name="quoteleft" unicode="&#x2018;" horiz-adv-x="233" d="M199 508 C199 550 173 577 128 577 C119 577 112 575 107 572 C109 618 151 649 189 655 L189 716 C126 710 34 665 34 531 C34 478 68 435 121 435 C168 435 199 469 199 508 L199 508 Z " />
<glyph glyph-name="quoteright" unicode="&#x2019;" horiz-adv-x="235" d="M34 643 C34 601 62 571 107 571 C116 571 123 573 128 576 C126 530 84 497 46 491 L46 430 C109 436 201 485 201 619 C201 672 167 716 114 716 C67 716 34 682 34 643 L34 643 Z " />
<glyph glyph-name="quotesinglbase" unicode="&#x201a;" horiz-adv-x="235" d="M34 69 C34 26 62 -4 107 -4 C115 -4 123 -2 128 1 C126 -45 84 -78 46 -83 L46 -145 C109 -139 201 -90 201 44 C201 98 167 141 114 141 C67 141 34 108 34 69 L34 69 Z " />
<glyph glyph-name="quotedblleft" unicode="&#x201c;" horiz-adv-x="430" d="M199 508 C199 550 173 577 128 577 C119 577 112 575 107 572 C109 618 151 649 189 655 L189 716 C126 710 34 665 34 531 C34 478 68 435 121 435 C168 435 199 469 199 508 L199 508 Z M396 508 C396 550 370 577 325 577 C316 577 309 575 304 572 C306 618 348 649 386 655 L386 716 C323 710 231 665 231 531 C231 478 265 435 318 435 C365 435 396 469 396 508 L396 508 Z " />
<glyph glyph-name="quotedblright" unicode="&#x201d;" horiz-adv-x="429" d="M34 643 C34 601 62 571 107 571 C116 571 123 573 128 576 C126 530 84 497 46 491 L46 430 C109 436 201 485 201 619 C201 672 167 716 114 716 C67 716 34 682 34 643 L34 643 Z M230 643 C230 601 258 571 303 571 C312 571 319 573 324 576 C322 530 280 497 242 491 L242 430 C305 436 397 485 397 619 C397 672 363 716 310 716 C263 716 230 682 230 643 L230 643 Z " />
<glyph glyph-name="quotedblbase" unicode="&#x201e;" horiz-adv-x="429" d="M34 70 C34 27 61 -3 106 -3 C114 -3 123 -1 128 2 C126 -44 84 -77 46 -82 L46 -144 C109 -138 201 -89 201 45 C201 99 167 142 114 142 C67 142 34 109 34 70 L34 70 Z M228 70 C228 27 255 -3 300 -3 C308 -3 317 -1 322 2 C320 -44 278 -77 240 -82 L240 -144 C303 -138 395 -89 395 45 C395 99 361 142 308 142 C261 142 228 109 228 70 L228 70 Z " />
<glyph glyph-name="dagger" unicode="&#x2020;" horiz-adv-x="413" d="M262 163 L262 463 L385 463 L385 567 L262 567 L262 709 L151 709 L151 567 L28 567 L28 463 L151 463 L151 163 L262 163 Z " />
<glyph glyph-name="daggerdbl" unicode="&#x2021;" horiz-adv-x="453" d="M48 247 L48 144 L171 144 L171 0 L282 0 L282 144 L405 144 L405 247 L282 247 L282 462 L405 462 L405 565 L282 565 L282 709 L171 709 L171 565 L48 565 L48 462 L171 462 L171 247 L48 247 Z " />
<glyph glyph-name="bullet" unicode="&#x2022;" horiz-adv-x="532" d="M58 299 C58 185 152 90 266 90 C381 90 474 185 474 299 C474 414 381 508 266 508 C152 508 58 414 58 299 L58 299 Z " />
<glyph glyph-name="ellipsis" unicode="&#x2026;" horiz-adv-x="921" d="M846 70 C846 115 810 151 765 151 C721 151 685 115 685 70 C685 26 721 -10 765 -10 C810 -10 846 26 846 70 L846 70 Z M541 70 C541 115 505 151 460 151 C416 151 379 115 379 70 C379 26 416 -10 460 -10 C505 -10 541 26 541 70 L541 70 Z M236 70 C236 115 201 151 156 151 C111 151 75 115 75 70 C75 26 111 -10 156 -10 C201 -10 236 26 236 70 L236 70 Z " />
<glyph glyph-name="perthousand" unicode="&#x2030;" horiz-adv-x="1084" d="M144 496 C144 536 173 565 210 565 C248 565 276 536 276 496 C276 454 248 426 210 426 C173 426 144 454 144 496 L144 496 Z M44 496 C44 404 119 333 210 333 C300 333 377 402 377 496 C377 587 300 659 210 659 C120 659 44 587 44 496 L44 496 Z M580 153 C580 194 609 222 647 222 C685 222 714 194 714 153 C714 112 685 83 647 83 C609 83 580 111 580 153 L580 153 Z M258 0 L716 649 L600 649 L142 0 L258 0 Z M809 153 C809 194 839 222 876 222 C914 222 943 194 943 153 C943 112 914 83 876 83 C839 83 809 111 809 153 L809 153 Z M480 153 C480 62 556 -10 646 -10 C695 -10 735 9 762 42 C788 10 827 -10 876 -10 C966 -10 1044 60 1044 153 C1044 245 966 317 876 317 C828 317 788 296 762 264 C735 297 695 317 647 317 C557 317 480 245 480 153 L480 153 Z " />
<glyph glyph-name="guilsinglleft" unicode="&#x2039;" horiz-adv-x="307" d="M290 101 L154 294 L290 492 L165 492 L27 295 L164 101 L290 101 Z " />
<glyph glyph-name="guilsinglright" unicode="&#x203a;" horiz-adv-x="307" d="M144 101 L280 295 L143 492 L17 492 L153 294 L18 101 L144 101 Z " />
<glyph glyph-name="uni2042" unicode="&#x2042;" horiz-adv-x="837" d="M463 708 L370 708 L370 597 L269 631 L241 546 L343 513 L280 427 L352 373 L416 461 L483 373 L555 426 L490 513 L593 546 L564 631 L463 597 L463 708 Z M256 322 L163 322 L163 211 L62 245 L34 160 L136 127 L73 41 L145 -13 L209 75 L276 -13 L348 40 L283 127 L386 160 L357 245 L256 211 L256 322 Z M674 322 L581 322 L581 211 L480 245 L452 160 L554 127 L491 41 L563 -13 L627 75 L694 -13 L766 40 L701 127 L804 160 L775 245 L674 211 L674 322 Z " />
<glyph glyph-name="fraction" unicode="&#x2044;" horiz-adv-x="574" d="M116 0 L574 649 L458 649 L0 0 L116 0 Z " />
<glyph glyph-name="uni2051" unicode="&#x2051;" horiz-adv-x="428" d="M260 708 L167 708 L167 597 L66 631 L38 546 L140 513 L77 427 L149 373 L213 461 L280 373 L352 426 L287 513 L390 546 L361 631 L260 597 L260 708 Z M260 325 L167 325 L167 214 L66 248 L38 163 L140 130 L77 44 L149 -10 L213 78 L280 -10 L352 43 L287 130 L390 163 L361 248 L260 214 L260 325 Z " />
<glyph glyph-name="uni2070" unicode="&#x2070;" horiz-adv-x="434" d="M155 525 C155 576 163 633 217 633 C272 633 280 575 280 525 C280 475 272 418 217 418 C163 418 155 475 155 525 L155 525 Z M51 525 C51 479 59 432 87 395 C113 359 154 334 217 334 C280 334 322 359 348 395 C375 432 383 479 383 525 C383 571 375 619 348 656 C322 691 280 717 217 717 C154 717 113 691 87 656 C59 619 51 571 51 525 L51 525 Z " />
<glyph glyph-name="uni2074" unicode="&#x2074;" horiz-adv-x="441" d="M51 412 L229 412 L229 341 L329 341 L329 412 L390 412 L390 491 L329 491 L329 709 L220 709 L51 511 L51 412 Z M229 491 L132 491 L229 605 L229 491 Z " />
<glyph glyph-name="uni2075" unicode="&#x2075;" horiz-adv-x="405" d="M51 445 C60 385 120 335 201 335 C299 335 354 395 354 467 C354 541 303 586 225 586 C199 586 171 578 154 563 L169 626 L331 626 L331 709 L109 709 L63 520 L146 495 C158 508 177 517 198 517 C231 517 254 501 254 466 C254 436 232 418 201 418 C170 418 144 437 140 468 L51 445 Z " />
<glyph glyph-name="uni2076" unicode="&#x2076;" horiz-adv-x="419" d="M353 699 C326 710 295 715 264 715 C144 715 51 635 51 501 C51 393 124 332 211 332 C302 332 368 387 368 465 C368 543 311 584 238 584 C204 584 172 572 153 552 C168 610 218 634 270 634 C294 634 316 629 335 622 L353 699 Z M157 462 C157 493 183 512 211 512 C240 512 265 493 265 462 C265 433 240 413 211 413 C183 413 157 433 157 462 L157 462 Z " />
<glyph glyph-name="uni2077" unicode="&#x2077;" horiz-adv-x="409" d="M358 709 L51 709 L51 625 L237 625 C237 625 122 524 109 341 L216 341 C232 514 324 597 358 624 L358 709 Z " />
<glyph glyph-name="uni2078" unicode="&#x2078;" horiz-adv-x="420" d="M210 562 C180 562 164 580 164 601 C164 618 179 637 210 637 C240 637 255 618 255 601 C255 580 239 562 210 562 L210 562 Z M210 412 C171 412 155 433 155 455 C155 475 172 495 210 495 C247 495 265 475 265 455 C265 433 248 412 210 412 L210 412 Z M210 333 C310 333 366 379 366 445 C366 484 333 518 292 530 C332 543 354 577 354 612 C354 671 301 716 210 716 C118 716 65 671 65 612 C65 577 87 543 127 530 C84 517 54 483 54 443 C54 378 111 333 210 333 L210 333 Z " />
<glyph glyph-name="uni2079" unicode="&#x2079;" horiz-adv-x="418" d="M70 349 C98 338 130 333 161 333 C277 333 366 409 366 547 C366 655 295 717 208 717 C113 717 51 662 51 584 C51 507 114 465 183 465 C216 465 250 477 269 498 C256 435 204 415 150 415 C127 415 105 421 87 427 L70 349 Z M259 587 C259 556 234 536 205 536 C175 536 151 556 151 587 C151 616 175 636 205 636 C234 636 259 616 259 587 L259 587 Z " />
<glyph glyph-name="uni2080" unicode="&#x2080;" horiz-adv-x="434" d="M155 110 C155 161 163 218 217 218 C272 218 280 160 280 110 C280 60 272 3 217 3 C163 3 155 60 155 110 L155 110 Z M51 110 C51 64 59 17 87 -20 C113 -56 154 -81 217 -81 C280 -81 322 -56 348 -20 C375 17 383 64 383 110 C383 156 375 204 348 241 C322 276 280 302 217 302 C154 302 113 276 87 241 C59 204 51 156 51 110 L51 110 Z " />
<glyph glyph-name="uni2081" unicode="&#x2081;" horiz-adv-x="307" d="M232 -104 L232 263 L141 263 C134 227 101 185 38 185 L38 119 L129 119 L129 -104 L232 -104 Z " />
<glyph glyph-name="uni2082" unicode="&#x2082;" horiz-adv-x="394" d="M149 120 C147 126 146 133 146 138 C146 171 166 190 197 190 C225 190 239 169 239 151 C239 132 226 115 201 100 L141 65 C75 26 52 -27 52 -92 L52 -104 L343 -104 L343 -19 L179 -19 C179 -13 184 -8 191 -4 L261 38 C311 68 340 102 340 150 C340 216 288 272 198 272 C104 272 54 217 54 148 C54 137 56 126 58 119 L149 120 Z " />
<glyph glyph-name="uni2083" unicode="&#x2083;" horiz-adv-x="411" d="M51 4 C59 -55 113 -111 203 -111 C300 -111 360 -53 360 14 C360 77 318 114 259 122 L349 183 L349 265 L65 265 L65 182 L226 182 L139 123 L172 55 C179 58 191 61 204 61 C231 61 257 48 257 16 C257 -9 236 -28 203 -28 C169 -28 145 -5 142 25 L51 4 Z " />
<glyph glyph-name="uni2084" unicode="&#x2084;" horiz-adv-x="441" d="M51 -33 L229 -33 L229 -104 L329 -104 L329 -33 L390 -33 L390 46 L329 46 L329 264 L220 264 L51 66 L51 -33 Z M229 46 L132 46 L229 160 L229 46 Z " />
<glyph glyph-name="uni2085" unicode="&#x2085;" horiz-adv-x="405" d="M51 0 C60 -60 120 -110 201 -110 C299 -110 354 -50 354 22 C354 96 303 141 225 141 C199 141 171 133 154 118 L169 181 L331 181 L331 264 L109 264 L63 75 L146 50 C158 63 177 72 198 72 C231 72 254 56 254 21 C254 -9 232 -27 201 -27 C170 -27 144 -8 140 23 L51 0 Z " />
<glyph glyph-name="uni2086" unicode="&#x2086;" horiz-adv-x="419" d="M353 255 C326 266 295 271 264 271 C144 271 51 191 51 57 C51 -51 124 -112 211 -112 C302 -112 368 -57 368 21 C368 99 311 140 238 140 C204 140 172 128 153 108 C168 166 218 190 270 190 C294 190 316 185 335 178 L353 255 Z M157 18 C157 49 183 68 211 68 C240 68 265 49 265 18 C265 -11 240 -31 211 -31 C183 -31 157 -11 157 18 L157 18 Z " />
<glyph glyph-name="uni2087" unicode="&#x2087;" horiz-adv-x="409" d="M358 263 L51 263 L51 179 L237 179 C237 179 122 78 109 -105 L216 -105 C232 68 324 151 358 178 L358 263 Z " />
<glyph glyph-name="uni2088" unicode="&#x2088;" horiz-adv-x="420" d="M210 117 C180 117 164 135 164 156 C164 173 179 192 210 192 C240 192 255 173 255 156 C255 135 239 117 210 117 L210 117 Z M210 -33 C171 -33 155 -12 155 10 C155 30 172 50 210 50 C247 50 265 30 265 10 C265 -12 248 -33 210 -33 L210 -33 Z M210 -112 C310 -112 366 -66 366 0 C366 39 333 73 292 85 C332 98 354 132 354 167 C354 226 301 271 210 271 C118 271 65 226 65 167 C65 132 87 98 127 85 C84 72 54 38 54 -2 C54 -67 111 -112 210 -112 L210 -112 Z " />
<glyph glyph-name="uni2089" unicode="&#x2089;" horiz-adv-x="418" d="M70 -95 C98 -106 130 -111 161 -111 C277 -111 366 -35 366 103 C366 211 295 273 208 273 C113 273 51 218 51 140 C51 63 114 21 183 21 C216 21 250 33 269 54 C256 -9 204 -29 150 -29 C127 -29 105 -23 87 -17 L70 -95 Z M259 143 C259 112 234 92 205 92 C175 92 151 112 151 143 C151 172 175 192 205 192 C234 192 259 172 259 143 L259 143 Z " />
<glyph glyph-name="Euro" unicode="&#x20ac;" horiz-adv-x="679" d="M601 149 C569 122 523 106 469 106 C400 106 338 135 303 196 L447 196 L490 290 L274 290 C272 308 272 315 272 321 C272 332 272 340 274 354 L516 354 L560 448 L300 448 C336 514 401 544 469 544 C517 544 559 534 590 513 L641 618 C596 647 542 664 469 664 C331 664 203 584 155 448 L62 448 L62 354 L135 354 C134 338 134 330 134 322 C134 313 134 308 135 290 L62 290 L62 196 L155 196 C203 61 328 -16 469 -16 C549 -16 617 13 663 50 L601 149 Z " />
<glyph glyph-name="uni2113" unicode="&#x2113;" horiz-adv-x="429" d="M29 271 L29 154 C53 158 76 164 98 171 L98 166 C98 70 157 -5 274 -5 C344 -5 375 20 379 25 L379 136 C369 129 343 111 288 111 C258 111 220 131 220 189 L220 226 C332 298 400 405 400 504 C400 605 341 663 250 663 C162 663 98 600 98 496 L98 294 C68 281 42 274 29 271 L29 271 Z M279 509 C279 451 253 406 220 372 L220 502 C220 540 235 550 250 550 C268 550 279 537 279 509 L279 509 Z " />
<glyph glyph-name="trademark" unicode="&#x2122;" horiz-adv-x="876" d="M334 625 L334 709 L33 709 L33 625 L137 625 L137 344 L231 344 L231 625 L334 625 Z M816 344 L816 709 L690 709 L604 495 L515 709 L387 709 L387 344 L478 344 L478 563 L568 344 L636 344 L725 566 L725 344 L816 344 Z " />
<glyph glyph-name="Omega" unicode="&#x2126;" horiz-adv-x="782" d="M391 595 C494 595 594 524 594 394 C594 281 512 208 427 190 L427 0 L729 0 L729 126 L550 126 C648 165 737 264 737 403 C737 601 574 725 391 725 C208 725 45 601 45 403 C45 264 133 165 231 126 L52 126 L52 0 L354 0 L354 190 C269 208 188 281 188 394 C188 524 288 595 391 595 L391 595 Z " />
<glyph glyph-name="uni2160" unicode="&#x2160;" horiz-adv-x="498" d="M452 649 L46 649 L46 532 L181 532 L181 117 L46 117 L46 0 L452 0 L452 117 L318 117 L318 532 L452 532 L452 649 Z " />
<glyph glyph-name="uni2161" unicode="&#x2161;" horiz-adv-x="786" d="M740 117 L604 117 L604 532 L740 532 L740 649 L46 649 L46 532 L183 532 L183 117 L46 117 L46 0 L740 0 L740 117 Z M467 117 L320 117 L320 532 L467 532 L467 117 Z " />
<glyph glyph-name="uni2162" unicode="&#x2162;" horiz-adv-x="1060" d="M1014 117 L878 117 L878 532 L1014 532 L1014 649 L46 649 L46 532 L183 532 L183 117 L46 117 L46 0 L1014 0 L1014 117 Z M741 117 L599 117 L599 532 L741 532 L741 117 Z M320 532 L462 532 L462 117 L320 117 L320 532 Z " />
<glyph glyph-name="uni2163" unicode="&#x2163;" horiz-adv-x="1053" d="M1007 117 L765 117 L899 532 L1007 532 L1007 649 L46 649 L46 532 L178 532 L178 117 L46 117 L46 0 L1007 0 L1007 117 Z M315 532 L392 532 L528 117 L315 117 L315 532 Z M648 166 L536 532 L760 532 L648 166 Z " />
<glyph glyph-name="uni2164" unicode="&#x2164;" horiz-adv-x="808" d="M762 649 L46 649 L46 532 L149 532 L285 117 L48 117 L48 0 L760 0 L760 117 L522 117 L656 532 L762 532 L762 649 Z M405 166 L293 532 L517 532 L405 166 Z " />
<glyph glyph-name="uni2165" unicode="&#x2165;" horiz-adv-x="1050" d="M1004 117 L873 117 L873 532 L1004 532 L1004 649 L46 649 L46 532 L150 532 L286 117 L46 117 L46 0 L1004 0 L1004 117 Z M659 532 L736 532 L736 117 L524 117 L659 532 Z M407 166 L294 532 L519 532 L407 166 Z " />
<glyph glyph-name="uni2166" unicode="&#x2166;" horiz-adv-x="1330" d="M1284 117 L1148 117 L1148 532 L1283 532 L1283 649 L46 649 L46 532 L150 532 L286 117 L46 117 L46 0 L1284 0 L1284 117 Z M1011 117 L872 117 L872 532 L1011 532 L1011 117 Z M658 532 L735 532 L735 117 L523 117 L658 532 Z M407 166 L294 532 L518 532 L407 166 Z " />
<glyph glyph-name="uni2167" unicode="&#x2167;" horiz-adv-x="1594" d="M1548 117 L1414 117 L1414 532 L1547 532 L1547 649 L46 649 L46 532 L151 532 L285 117 L46 117 L46 0 L1548 0 L1548 117 Z M654 532 L733 532 L733 117 L522 117 L654 532 Z M870 532 L1005 532 L1005 117 L870 117 L870 532 Z M1142 532 L1277 532 L1277 117 L1142 117 L1142 532 Z M405 166 L295 532 L515 532 L405 166 Z " />
<glyph glyph-name="uni2168" unicode="&#x2168;" horiz-adv-x="1026" d="M980 117 L872 117 L723 319 L877 532 L980 532 L980 649 L46 649 L46 532 L178 532 L178 117 L46 117 L46 0 L980 0 L980 117 Z M549 321 L398 117 L315 117 L315 532 L395 532 L549 321 Z M556 532 L718 532 L637 417 L556 532 Z M634 225 L711 117 L557 117 L634 225 Z " />
<glyph glyph-name="uni2169" unicode="&#x2169;" horiz-adv-x="780" d="M734 649 L46 649 L46 532 L149 532 L303 321 L152 117 L46 117 L46 0 L734 0 L734 117 L626 117 L477 319 L631 532 L734 532 L734 649 Z M310 532 L471 532 L390 417 L310 532 Z M388 225 L464 117 L311 117 L388 225 Z " />
<glyph glyph-name="uni216C" unicode="&#x216c;" horiz-adv-x="658" d="M612 292 L481 292 L481 117 L300 117 L300 532 L428 532 L428 649 L46 649 L46 532 L163 532 L163 117 L46 117 L46 0 L612 0 L612 292 Z " />
<glyph glyph-name="uni216D" unicode="&#x216d;" horiz-adv-x="736" d="M690 245 L556 245 C547 191 500 108 380 108 C273 108 179 183 179 324 C179 474 279 543 378 543 C494 543 542 469 552 409 L685 409 L685 649 L552 649 L552 591 C515 632 459 664 372 664 C197 664 46 530 46 324 C46 118 195 -15 374 -15 C462 -15 519 17 556 60 L556 0 L690 0 L690 245 Z " />
<glyph glyph-name="uni216E" unicode="&#x216e;" horiz-adv-x="743" d="M382 649 L46 649 L46 532 L169 532 L169 117 L46 117 L46 0 L377 0 C565 0 697 121 697 324 C697 525 568 647 382 649 L382 649 Z M306 117 L306 532 L369 532 C474 532 558 462 558 324 C558 187 475 118 371 117 L306 117 Z " />
<glyph glyph-name="uni216F" unicode="&#x216f;" horiz-adv-x="1051" d="M375 117 L295 117 L295 445 L473 6 L574 6 L753 447 L753 117 L670 117 L670 0 L1005 0 L1005 117 L888 117 L888 532 L1005 532 L1005 649 L693 649 L524 216 L351 649 L46 649 L46 532 L163 532 L163 117 L46 117 L46 0 L375 0 L375 117 Z " />
<glyph glyph-name="arrowleft" unicode="&#x2190;" horiz-adv-x="1062" d="M254 72 L254 239 L1001 239 L1001 354 L254 354 L254 522 L-9 297 L254 72 Z " />
<glyph glyph-name="arrowup" unicode="&#x2191;" horiz-adv-x="486" d="M262 800 L31 533 L205 533 L205 -147 L319 -147 L319 533 L491 533 L262 800 Z " />
<glyph glyph-name="arrowright" unicode="&#x2192;" horiz-adv-x="1085" d="M1050 297 L756 533 L756 354 L25 354 L25 239 L756 239 L756 62 L1050 297 Z " />
<glyph glyph-name="arrowdown" unicode="&#x2193;" horiz-adv-x="478" d="M460 117 L283 117 L283 794 L169 794 L169 117 L-9 117 L226 -152 L460 117 Z " />
<glyph glyph-name="uni2196" unicode="&#x2196;" horiz-adv-x="876" d="M64 708 L64 374 L190 501 L704 -12 L785 69 L271 582 L396 708 L64 708 Z " />
<glyph glyph-name="uni2197" unicode="&#x2197;" horiz-adv-x="757" d="M334 708 L458 582 L-55 69 L26 -12 L539 501 L666 374 L666 708 L334 708 Z " />
<glyph glyph-name="uni2198" unicode="&#x2198;" horiz-adv-x="858" d="M767 1 L767 335 L640 207 L127 721 L46 640 L559 126 L435 1 L767 1 Z " />
<glyph glyph-name="uni2199" unicode="&#x2199;" horiz-adv-x="748" d="M368 1 L243 126 L757 640 L676 721 L162 207 L36 335 L36 1 L368 1 Z " />
<glyph glyph-name="uni21A9" unicode="&#x21a9;" horiz-adv-x="861" d="M241 50 L241 215 L605 215 C748 215 844 310 844 434 C844 558 747 652 605 652 L404 652 L404 537 L599 537 C675 537 726 497 726 434 C726 373 671 331 601 331 L241 331 L241 500 L-22 274 L241 50 Z " />
<glyph glyph-name="uni21B0" unicode="&#x21b0;" horiz-adv-x="804" d="M301 274 L301 442 L609 442 L609 0 L723 0 L723 557 L301 557 L301 725 L38 499 L301 274 Z " />
<glyph glyph-name="uni21B1" unicode="&#x21b1;" horiz-adv-x="749" d="M150 0 L150 442 L477 442 L477 274 L740 499 L477 725 L477 557 L35 557 L35 0 L150 0 Z " />
<glyph glyph-name="uni21B2" unicode="&#x21b2;" horiz-adv-x="771" d="M578 709 L578 267 L250 267 L250 435 L-13 210 L250 -16 L250 152 L692 152 L692 709 L578 709 Z " />
<glyph glyph-name="uni21B3" unicode="&#x21b3;" horiz-adv-x="851" d="M515 435 L515 267 L188 267 L188 709 L73 709 L73 152 L515 152 L515 -16 L778 210 L515 435 Z " />
<glyph glyph-name="uni21B4" unicode="&#x21b4;" horiz-adv-x="799" d="M61 594 L511 594 L511 242 L346 242 L571 -15 L794 242 L626 242 L626 709 L61 709 L61 594 Z " />
<glyph glyph-name="uni21C6" unicode="&#x21c6;" horiz-adv-x="1167" d="M1112 162 L849 388 L849 220 L92 220 L92 105 L849 105 L849 -62 L1112 162 Z M327 332 L327 497 L1083 497 L1083 612 L327 612 L327 782 L64 556 L327 332 Z " />
<glyph glyph-name="partialdiff" unicode="&#x2202;" horiz-adv-x="621" d="M252 600 C351 600 434 545 441 403 C418 429 372 459 280 459 C160 459 36 376 36 228 C36 66 160 -16 291 -16 C488 -16 581 141 581 348 C581 659 387 721 260 721 C204 721 129 710 61 672 L107 566 C169 595 223 600 252 600 L252 600 Z M310 346 C368 346 414 325 444 290 C443 212 407 107 296 107 C234 107 171 149 171 222 C171 291 216 346 310 346 L310 346 Z " />
<glyph glyph-name="Delta" unicode="&#x2206;" horiz-adv-x="691" d="M0 0 L691 0 L420 709 L270 709 L0 0 Z M345 559 L500 128 L191 128 L345 559 Z " />
<glyph glyph-name="product" unicode="&#x220f;" horiz-adv-x="686" d="M605 0 L605 709 L81 709 L81 0 L219 0 L219 582 L467 582 L467 0 L605 0 Z " />
<glyph glyph-name="summation" unicode="&#x2211;" horiz-adv-x="569" d="M36 0 L550 0 L550 128 L216 128 L477 354 L225 581 L550 581 L550 709 L36 709 L36 584 L292 354 L36 125 L36 0 Z " />
<glyph glyph-name="minus" unicode="&#x2212;" horiz-adv-x="573" d="M524 241 L524 350 L49 350 L49 241 L524 241 Z " />
<glyph glyph-name="uni2215" unicode="&#x2215;" horiz-adv-x="444" d="M444 658 L323 658 L0 -10 L120 -10 L444 658 Z " />
<glyph glyph-name="uni2219" unicode="&#x2219;" horiz-adv-x="288" d="M61 309 C61 261 99 225 147 225 C195 225 233 261 233 309 C233 357 195 394 147 394 C99 394 61 357 61 309 L61 309 Z " />
<glyph glyph-name="radical" unicode="&#x221a;" horiz-adv-x="697" d="M729 768 L729 879 L510 879 L282 183 L162 537 L32 537 L222 0 L340 0 L598 768 L729 768 Z " />
<glyph glyph-name="infinity" unicode="&#x221e;" horiz-adv-x="831" d="M414 201 C471 137 529 105 597 105 C708 105 789 184 789 290 C789 396 708 476 597 476 C533 476 474 439 417 377 C362 441 300 476 234 476 C123 476 42 396 42 290 C42 184 123 105 234 105 C301 105 356 138 414 201 L414 201 Z M236 362 C276 362 308 329 343 287 C310 247 275 217 236 217 C190 217 161 248 161 289 C161 330 190 362 236 362 L236 362 Z M595 217 C556 217 522 248 488 289 C524 331 555 362 595 362 C641 362 670 330 670 289 C670 248 641 217 595 217 L595 217 Z " />
<glyph glyph-name="integral" unicode="&#x222b;" horiz-adv-x="350" d="M109 -17 C109 -59 85 -83 51 -83 L5 -83 L5 -200 L59 -200 C173 -200 242 -128 242 -15 L242 527 C242 569 265 592 300 592 L345 592 L345 710 L294 710 C179 710 109 638 109 525 L109 -17 Z " />
<glyph glyph-name="approxequal" unicode="&#x2248;" horiz-adv-x="594" d="M492 463 C467 430 437 415 405 415 C386 415 367 421 349 431 L301 457 C264 477 228 487 193 487 C127 487 69 451 32 386 L104 327 C127 357 158 375 190 375 C208 375 226 370 245 360 L292 334 C328 314 365 304 400 304 C467 304 526 340 562 404 L492 463 Z M492 261 C469 229 438 214 406 214 C387 214 367 220 349 230 L301 256 C264 276 229 286 194 286 C128 286 69 250 32 185 L104 126 C128 157 160 173 193 173 C210 173 228 168 245 159 L292 133 C329 112 364 103 401 103 C467 103 525 139 562 203 L492 261 Z " />
<glyph glyph-name="notequal" unicode="&#x2260;" horiz-adv-x="603" d="M544 142 L544 250 L336 250 L395 341 L544 341 L544 448 L465 448 L525 540 L405 540 L345 448 L59 448 L59 341 L275 341 L216 250 L59 250 L59 142 L145 142 L82 45 L202 45 L265 142 L544 142 Z " />
<glyph glyph-name="lessequal" unicode="&#x2264;" horiz-adv-x="545" d="M56 153 L56 44 L486 44 L486 153 L56 153 Z M56 316 L486 181 L486 293 L207 372 L486 450 L486 560 L56 424 L56 316 Z " />
<glyph glyph-name="greaterequal" unicode="&#x2265;" horiz-adv-x="545" d="M59 153 L59 44 L489 44 L489 153 L59 153 Z M489 424 L59 560 L59 448 L338 369 L59 291 L59 181 L489 316 L489 424 Z " />
<glyph glyph-name="dotmath" unicode="&#x22c5;" horiz-adv-x="288" d="M61 309 C61 261 99 225 147 225 C195 225 233 261 233 309 C233 357 195 394 147 394 C99 394 61 357 61 309 L61 309 Z " />
<glyph glyph-name="uni24C5" unicode="&#x24c5;" horiz-adv-x="816" d="M124 354 C124 518 248 646 407 646 C566 646 690 518 690 354 C690 191 566 63 407 63 C248 63 124 191 124 354 L124 354 Z M39 354 C39 151 203 -16 407 -16 C611 -16 777 151 777 354 C777 558 611 725 407 725 C203 725 39 558 39 354 L39 354 Z M377 370 L377 477 L431 477 C467 477 489 456 489 423 C489 391 467 370 431 370 L377 370 Z M448 292 C526 292 585 351 585 423 C585 496 526 555 448 555 L283 555 L283 155 L377 155 L377 292 L448 292 Z " />
<glyph glyph-name="filledbox" unicode="&#x25a0;" horiz-adv-x="908" d="M101 0 L807 0 L807 709 L101 709 L101 0 Z " />
<glyph glyph-name="H22073" unicode="&#x25a1;" horiz-adv-x="908" d="M807 0 L807 709 L101 709 L101 0 L807 0 Z M215 597 L690 597 L690 111 L215 111 L215 597 Z " />
<glyph glyph-name="triagup" unicode="&#x25b2;" horiz-adv-x="838" d="M421 725 L0 0 L838 0 L421 725 Z " />
<glyph glyph-name="uni25B3" unicode="&#x25b3;" horiz-adv-x="838" d="M419 725 L0 0 L838 0 L419 725 Z M639 112 L198 112 L419 496 L639 112 Z " />
<glyph glyph-name="lozenge" unicode="&#x25ca;" horiz-adv-x="617" d="M180 354 L309 577 L437 354 L309 132 L180 354 Z M29 354 L236 0 L381 0 L588 354 L381 709 L236 709 L29 354 Z " />
<glyph glyph-name="circle" unicode="&#x25cb;" horiz-adv-x="813" d="M36 354 C36 149 202 -16 407 -16 C612 -16 777 149 777 354 C777 559 612 725 407 725 C202 725 36 559 36 354 L36 354 Z M151 354 C151 496 265 612 407 612 C547 612 660 496 660 354 C660 212 547 96 407 96 C265 96 151 212 151 354 L151 354 Z " />
<glyph glyph-name="H18533" unicode="&#x25cf;" horiz-adv-x="813" d="M36 354 C36 149 201 -16 406 -16 C611 -16 777 149 777 354 C777 559 611 725 406 725 C201 725 36 559 36 354 L36 354 Z " />
<glyph glyph-name="uni262E" unicode="&#x262e;" horiz-adv-x="815" d="M776 354 C776 559 611 725 407 725 C203 725 39 559 39 354 C39 150 203 -16 407 -16 C611 -16 776 150 776 354 L776 354 Z M663 354 C663 320 655 288 642 259 L461 416 L461 610 C576 584 663 480 663 354 L663 354 Z M150 354 C150 479 235 582 349 608 L349 416 L169 261 C157 289 150 321 150 354 L150 354 Z M461 99 L461 274 L583 164 C549 132 508 109 461 99 L461 99 Z M228 166 L349 274 L349 99 C302 110 261 133 228 166 L228 166 Z " />
<glyph glyph-name="uni2713" unicode="&#x2713;" horiz-adv-x="942" d="M926 645 L844 726 L313 153 L99 386 L16 308 L309 -16 L926 645 Z " />
<glyph glyph-name="uni2715" unicode="&#x2715;" horiz-adv-x="755" d="M656 -5 L736 76 L456 355 L730 632 L650 712 L376 436 L100 712 L19 632 L296 355 L19 76 L99 -5 L376 274 L656 -5 Z " />
<glyph glyph-name="uni2780" unicode="&#x2780;" horiz-adv-x="822" d="M127 354 C127 518 251 646 410 646 C569 646 693 518 693 354 C693 191 569 63 410 63 C251 63 127 191 127 354 L127 354 Z M42 354 C42 151 206 -16 410 -16 C614 -16 780 151 780 354 C780 558 614 725 410 725 C206 725 42 558 42 354 L42 354 Z M480 173 L480 540 L389 540 C382 504 349 462 286 462 L286 396 L377 396 L377 173 L480 173 Z " />
<glyph glyph-name="uni2781" unicode="&#x2781;" horiz-adv-x="822" d="M127 354 C127 518 251 646 410 646 C569 646 693 518 693 354 C693 191 569 63 410 63 C251 63 127 191 127 354 L127 354 Z M42 354 C42 151 206 -16 410 -16 C614 -16 780 151 780 354 C780 558 614 725 410 725 C206 725 42 558 42 354 L42 354 Z M358 406 C356 412 355 419 355 424 C355 457 375 476 406 476 C434 476 448 455 448 437 C448 418 435 401 410 386 L350 351 C284 312 261 259 261 194 L261 182 L552 182 L552 267 L388 267 C388 273 393 278 400 282 L470 324 C520 354 549 388 549 436 C549 502 497 558 407 558 C313 558 263 503 263 434 C263 423 265 412 267 405 L358 406 Z " />
<glyph glyph-name="uni2782" unicode="&#x2782;" horiz-adv-x="822" d="M127 354 C127 518 251 646 410 646 C569 646 693 518 693 354 C693 191 569 63 410 63 C251 63 127 191 127 354 L127 354 Z M42 354 C42 151 206 -16 410 -16 C614 -16 780 151 780 354 C780 558 614 725 410 725 C206 725 42 558 42 354 L42 354 Z M253 275 C261 216 315 160 405 160 C502 160 562 218 562 285 C562 348 520 385 461 393 L551 454 L551 536 L267 536 L267 453 L428 453 L341 394 L374 326 C381 329 393 332 406 332 C433 332 459 319 459 287 C459 262 438 243 405 243 C371 243 347 266 344 296 L253 275 Z " />
<glyph glyph-name="uni2783" unicode="&#x2783;" horiz-adv-x="822" d="M127 354 C127 518 251 646 410 646 C569 646 693 518 693 354 C693 191 569 63 410 63 C251 63 127 191 127 354 L127 354 Z M42 354 C42 151 206 -16 410 -16 C614 -16 780 151 780 354 C780 558 614 725 410 725 C206 725 42 558 42 354 L42 354 Z M231 249 L409 249 L409 178 L509 178 L509 249 L570 249 L570 328 L509 328 L509 546 L400 546 L231 348 L231 249 Z M409 328 L312 328 L409 442 L409 328 Z " />
<glyph glyph-name="uni2784" unicode="&#x2784;" horiz-adv-x="822" d="M127 354 C127 518 251 646 410 646 C569 646 693 518 693 354 C693 191 569 63 410 63 C251 63 127 191 127 354 L127 354 Z M42 354 C42 151 206 -16 410 -16 C614 -16 780 151 780 354 C780 558 614 725 410 725 C206 725 42 558 42 354 L42 354 Z M251 269 C260 209 320 159 401 159 C499 159 554 219 554 291 C554 365 503 410 425 410 C399 410 371 402 354 387 L369 450 L531 450 L531 533 L309 533 L263 344 L346 319 C358 332 377 341 398 341 C431 341 454 325 454 290 C454 260 432 242 401 242 C370 242 344 261 340 292 L251 269 Z " />
<glyph glyph-name="uni2785" unicode="&#x2785;" horiz-adv-x="822" d="M127 354 C127 518 251 646 410 646 C569 646 693 518 693 354 C693 191 569 63 410 63 C251 63 127 191 127 354 L127 354 Z M42 354 C42 151 206 -16 410 -16 C614 -16 780 151 780 354 C780 558 614 725 410 725 C206 725 42 558 42 354 L42 354 Z M542 531 C515 542 484 547 453 547 C333 547 240 467 240 333 C240 225 313 164 400 164 C491 164 557 219 557 297 C557 375 500 416 427 416 C393 416 361 404 342 384 C357 442 407 466 459 466 C483 466 505 461 524 454 L542 531 Z M346 294 C346 325 372 344 400 344 C429 344 454 325 454 294 C454 265 429 245 400 245 C372 245 346 265 346 294 L346 294 Z " />
<glyph glyph-name="uni2786" unicode="&#x2786;" horiz-adv-x="822" d="M127 354 C127 518 251 646 410 646 C569 646 693 518 693 354 C693 191 569 63 410 63 C251 63 127 191 127 354 L127 354 Z M42 354 C42 151 206 -16 410 -16 C614 -16 780 151 780 354 C780 558 614 725 410 725 C206 725 42 558 42 354 L42 354 Z M562 531 L255 531 L255 447 L441 447 C441 447 326 346 313 163 L420 163 C436 336 528 419 562 446 L562 531 Z " />
<glyph glyph-name="uni2787" unicode="&#x2787;" horiz-adv-x="822" d="M127 354 C127 518 251 646 410 646 C569 646 693 518 693 354 C693 191 569 63 410 63 C251 63 127 191 127 354 L127 354 Z M42 354 C42 151 206 -16 410 -16 C614 -16 780 151 780 354 C780 558 614 725 410 725 C206 725 42 558 42 354 L42 354 Z M411 394 C381 394 365 412 365 433 C365 450 380 469 411 469 C441 469 456 450 456 433 C456 412 440 394 411 394 L411 394 Z M411 244 C372 244 356 265 356 287 C356 307 373 327 411 327 C448 327 466 307 466 287 C466 265 449 244 411 244 L411 244 Z M411 165 C511 165 567 211 567 277 C567 316 534 350 493 362 C533 375 555 409 555 444 C555 503 502 548 411 548 C319 548 266 503 266 444 C266 409 288 375 328 362 C285 349 255 315 255 275 C255 210 312 165 411 165 L411 165 Z " />
<glyph glyph-name="uni2788" unicode="&#x2788;" horiz-adv-x="822" d="M127 354 C127 518 251 646 410 646 C569 646 693 518 693 354 C693 191 569 63 410 63 C251 63 127 191 127 354 L127 354 Z M42 354 C42 151 206 -16 410 -16 C614 -16 780 151 780 354 C780 558 614 725 410 725 C206 725 42 558 42 354 L42 354 Z M278 180 C306 169 338 164 369 164 C485 164 574 240 574 378 C574 486 503 548 416 548 C321 548 259 493 259 415 C259 338 322 296 391 296 C424 296 458 308 477 329 C464 266 412 246 358 246 C335 246 313 252 295 258 L278 180 Z M467 418 C467 387 442 367 413 367 C383 367 359 387 359 418 C359 447 383 467 413 467 C442 467 467 447 467 418 L467 418 Z " />
<glyph glyph-name="uniE000" unicode="&#xe000;" horiz-adv-x="745" d="M222 -15 L447 242 L282 242 L282 594 L732 594 L732 709 L167 709 L167 242 L-1 242 L222 -15 Z " />
<glyph glyph-name="uni21B5" unicode="&#xe001;" horiz-adv-x="1110" d="M251 104 L465 354 L304 354 C304 495 418 610 560 610 C603 610 644 599 680 580 L733 682 C681 709 622 725 559 725 C355 725 190 558 189 354 L36 354 L251 104 Z M926 354 L1080 354 L865 605 L651 354 L810 354 C810 213 697 98 556 98 C512 98 472 110 435 129 L383 27 C435 0 494 -16 556 -16 C761 -16 926 149 926 354 L926 354 Z " />
<glyph glyph-name="uniE002" unicode="&#xe002;" horiz-adv-x="956" d="M506 354 L668 354 C668 213 555 97 415 97 C273 97 159 213 159 354 C159 495 273 610 415 610 C455 610 492 601 526 584 L572 690 C524 712 471 725 414 725 C210 725 44 559 44 354 C44 149 210 -16 414 -16 C619 -16 784 149 784 354 L935 354 L720 605 L506 354 Z " />
<glyph glyph-name="uniFB00" unicode="&#xfb00;" horiz-adv-x="680" d="M553 546 C554 601 594 614 623 614 C645 614 658 611 665 609 L665 721 C654 726 627 731 599 731 C490 731 420 659 420 548 L420 492 L230 492 L230 546 C230 601 270 614 299 614 C321 614 334 611 341 609 L341 721 C330 726 303 731 275 731 C166 731 96 659 96 548 L96 492 L14 492 L14 378 L96 378 L96 0 L230 0 L230 378 L420 378 L420 0 L553 0 L553 378 L664 378 L664 492 L553 492 L553 546 Z " />
<glyph glyph-name="fi" unicode="&#xfb01;" horiz-adv-x="631" d="M427 378 L427 0 L559 0 L559 492 L230 492 L230 546 C230 601 270 614 299 614 C321 614 334 611 341 609 L341 721 C330 726 303 731 275 731 C166 731 96 659 96 548 L96 492 L14 492 L14 378 L96 378 L96 0 L230 0 L230 378 L427 378 Z M411 654 C411 609 448 573 493 573 C538 573 575 609 575 654 C575 700 538 737 493 737 C448 737 411 700 411 654 L411 654 Z " />
<glyph glyph-name="fl" unicode="&#xfb02;" horiz-adv-x="630" d="M299 614 C321 614 334 611 341 609 L341 721 C330 726 303 731 275 731 C166 731 96 659 96 548 L96 492 L14 492 L14 378 L96 378 L96 0 L230 0 L230 378 L426 378 L426 0 L559 0 L559 724 L426 724 L426 492 L230 492 L230 546 C230 601 270 614 299 614 L299 614 Z " />
<glyph glyph-name="uniFB03" unicode="&#xfb03;" horiz-adv-x="957" d="M737 654 C737 609 773 573 818 573 C864 573 901 609 901 654 C901 700 864 737 818 737 C773 737 737 700 737 654 L737 654 Z M420 492 L230 492 L230 546 C230 601 270 614 299 614 C321 614 334 611 341 609 L341 721 C330 726 303 731 275 731 C166 731 96 659 96 548 L96 492 L14 492 L14 378 L96 378 L96 0 L230 0 L230 378 L420 378 L420 0 L553 0 L553 378 L752 378 L752 0 L885 0 L885 492 L553 492 L553 546 C553 601 593 614 622 614 C644 614 657 611 664 609 L664 721 C653 726 626 731 598 731 C490 731 420 660 420 550 L420 492 Z " />
<glyph glyph-name="uniFB04" unicode="&#xfb04;" horiz-adv-x="957" d="M420 548 L420 492 L230 492 L230 546 C230 601 270 614 299 614 C321 614 334 611 341 609 L341 721 C330 726 303 731 275 731 C166 731 96 659 96 548 L96 492 L14 492 L14 378 L96 378 L96 0 L230 0 L230 378 L420 378 L420 0 L553 0 L553 378 L753 378 L753 0 L886 0 L886 724 L753 724 L753 492 L553 492 L553 546 C553 601 593 614 622 614 C644 614 657 611 664 609 L664 721 C653 726 626 731 598 731 C490 731 420 660 420 548 L420 548 Z " />
<glyph glyph-name="uniFEFF" unicode="&#xfeff;" d="" />
</font>
</svg>
