<?xml version="1.0" encoding="UTF-8"?>
<svg xmlns="http://www.w3.org/2000/svg" xmlns:xlink="http://www.w3.org/1999/xlink" version="1.2" >
<font id="Circular Std Medium">
<font-face  font-family="Circular Std" units-per-em="1000" ascent="809" descent="-191" font-style="normal" font-weight="500" font-stretch="normal" cap-height="709" x-height="487" underline-position="-155" underline-thickness="80" />
<missing-glyph  horiz-adv-x="574" d="M75 0 L499 0 L499 709 L75 709 L75 0 Z M171 96 L171 613 L403 613 L403 96 L171 96 Z " />
<glyph glyph-name=".null" d="" />
<glyph glyph-name="CR" unicode="&#xd;" horiz-adv-x="250" d="" />
<glyph glyph-name="space" unicode="&#x20;" horiz-adv-x="248" d="" />
<glyph glyph-name="uni000D" horiz-adv-x="248" d="" />
<glyph glyph-name="exclam" unicode="&#x21;" horiz-adv-x="324" d="M232 709 L91 709 L120 210 L204 210 L232 709 Z M89 66 C89 26 121 -7 161 -7 C202 -7 235 26 235 66 C235 106 202 140 161 140 C121 140 89 106 89 66 L89 66 Z " />
<glyph glyph-name="quotedbl" unicode="&#x22;" horiz-adv-x="390" d="M37 591 C37 584 39 573 40 568 L84 383 L125 383 L170 568 C172 574 173 584 173 591 C173 631 145 660 105 660 C65 660 37 631 37 591 L37 591 Z M217 591 C217 584 219 573 220 568 L264 383 L305 383 L350 568 C352 574 353 584 353 591 C353 631 325 660 285 660 C245 660 217 631 217 591 L217 591 Z " />
<glyph glyph-name="numbersign" unicode="&#x23;" horiz-adv-x="740" d="M94 400 L219 400 L187 251 L45 251 L45 164 L169 164 L134 0 L229 0 L264 164 L400 164 L365 0 L461 0 L496 164 L646 164 L646 251 L514 251 L546 400 L695 400 L695 487 L565 487 L600 648 L504 648 L469 487 L333 487 L368 648 L273 648 L238 487 L94 487 L94 400 Z M314 400 L450 400 L418 251 L282 251 L314 400 Z " />
<glyph glyph-name="dollar" unicode="&#x24;" horiz-adv-x="595" d="M354 -117 L354 -11 C477 6 543 92 543 182 C543 271 482 346 363 372 L354 374 L354 553 C404 534 423 488 428 458 L536 492 C522 558 472 640 354 659 L354 766 L262 766 L262 660 C152 645 72 563 72 464 C72 366 138 304 244 280 L262 276 L262 92 C195 108 164 164 159 221 L47 190 C56 104 123 5 262 -12 L262 -117 L354 -117 Z M189 471 C189 509 214 545 262 557 L262 393 C212 403 189 435 189 471 L189 471 Z M427 176 C427 138 404 102 354 92 L354 256 C404 242 427 212 427 176 L427 176 Z " />
<glyph glyph-name="percent" unicode="&#x25;" horiz-adv-x="837" d="M142 496 C142 539 173 569 213 569 C253 569 283 539 283 496 C283 453 253 422 213 422 C173 422 142 453 142 496 L142 496 Z M49 496 C49 406 124 336 212 336 C301 336 377 405 377 496 C377 586 301 657 213 657 C124 657 49 586 49 496 L49 496 Z M560 151 C560 194 591 224 631 224 C671 224 701 194 701 151 C701 108 671 77 631 77 C591 77 560 108 560 151 L560 151 Z M467 151 C467 61 542 -9 630 -9 C719 -9 795 60 795 151 C795 241 719 312 631 312 C542 312 467 241 467 151 L467 151 Z M244 0 L705 648 L601 648 L139 0 L244 0 Z " />
<glyph glyph-name="ampersand" unicode="&#x26;" horiz-adv-x="708" d="M553 0 L708 0 L548 167 L645 274 L645 424 L476 242 L358 365 L389 388 C439 426 489 478 489 548 C489 654 406 724 295 724 C203 724 105 660 105 543 C105 477 152 422 186 387 L198 374 L191 369 C117 314 68 264 68 173 C68 80 142 -13 279 -13 C356 -13 418 25 473 84 L553 0 Z M281 92 C223 92 187 137 187 181 C187 227 211 256 245 281 L269 299 L400 160 L399 159 C363 120 328 92 281 92 L281 92 Z M219 550 C219 601 259 626 296 626 C342 626 375 592 375 550 C375 523 364 497 327 469 L286 439 L266 461 C241 488 219 516 219 550 L219 550 Z " />
<glyph glyph-name="quotesingle" unicode="&#x27;" horiz-adv-x="210" d="M37 591 C37 584 39 573 40 568 L84 383 L125 383 L170 568 C172 574 173 584 173 591 C173 631 145 660 105 660 C65 660 37 631 37 591 L37 591 Z " />
<glyph glyph-name="parenleft" unicode="&#x28;" horiz-adv-x="317" d="M48 320 C48 96 137 -56 249 -168 L317 -107 C213 7 146 141 146 320 C146 498 213 632 317 746 L249 808 C137 696 48 544 48 320 L48 320 Z " />
<glyph glyph-name="parenright" unicode="&#x29;" horiz-adv-x="317" d="M269 320 C269 544 181 696 68 808 L0 746 C105 632 171 498 171 320 C171 141 105 7 0 -107 L68 -168 C181 -56 269 96 269 320 L269 320 Z " />
<glyph glyph-name="asterisk" unicode="&#x2a;" horiz-adv-x="448" d="M271 709 L177 709 L177 578 L58 619 L29 533 L150 493 L74 392 L148 338 L223 442 L303 337 L376 391 L298 493 L419 533 L390 619 L271 579 L271 709 Z " />
<glyph glyph-name="plus" unicode="&#x2b;" horiz-adv-x="579" d="M52 339 L52 244 L240 244 L240 47 L339 47 L339 244 L527 244 L527 339 L339 339 L339 534 L240 534 L240 339 L52 339 Z " />
<glyph glyph-name="comma" unicode="&#x2c;" horiz-adv-x="304" d="M65 73 C65 27 97 -3 141 -3 C154 -3 161 0 165 2 C164 -50 122 -96 76 -106 L76 -165 C144 -156 239 -97 239 43 C239 107 201 149 148 149 C101 149 65 115 65 73 L65 73 Z " />
<glyph glyph-name="hyphen" unicode="&#x2d;" horiz-adv-x="372" d="M327 241 L327 344 L45 344 L45 241 L327 241 Z " />
<glyph glyph-name="period" unicode="&#x2e;" horiz-adv-x="296" d="M67 75 C67 30 103 -6 148 -6 C193 -6 230 30 230 75 C230 120 193 157 148 157 C103 157 67 120 67 75 L67 75 Z " />
<glyph glyph-name="slash" unicode="&#x2f;" horiz-adv-x="456" d="M456 714 L349 714 L0 -5 L107 -5 L456 714 Z " />
<glyph glyph-name="zero" unicode="0" horiz-adv-x="619" d="M164 324 C164 406 178 469 210 509 C232 538 263 557 310 557 C357 557 387 538 410 509 C441 469 455 406 455 324 C455 242 441 179 410 139 C387 110 357 91 310 91 C263 91 232 110 210 139 C179 179 164 242 164 324 L164 324 Z M45 324 C45 238 59 157 103 91 C145 28 213 -15 310 -15 C407 -15 474 28 516 91 C560 157 574 238 574 324 C574 410 560 491 516 557 C474 620 407 663 310 663 C213 663 145 620 103 557 C59 491 45 410 45 324 L45 324 Z " />
<glyph glyph-name="one" unicode="1" horiz-adv-x="376" d="M303 0 L303 648 L199 648 C185 580 121 528 28 526 L28 444 L185 444 L185 0 L303 0 Z " />
<glyph glyph-name="two" unicode="2" horiz-adv-x="537" d="M158 405 C157 416 155 428 155 438 C155 505 192 558 268 558 C341 558 377 510 377 457 C377 410 352 371 294 335 L187 268 C74 198 35 111 33 0 L502 0 L502 106 L181 106 C190 138 216 161 247 180 L373 258 C451 306 498 375 498 459 C498 570 413 663 270 663 C123 663 39 562 39 450 C39 437 41 422 42 413 L158 405 Z " />
<glyph glyph-name="three" unicode="3" horiz-adv-x="551" d="M219 294 C229 299 249 305 280 305 C335 305 395 273 395 198 C395 139 351 88 272 88 C200 88 146 139 143 214 L26 190 C34 82 123 -15 273 -15 C427 -15 516 86 516 197 C516 322 419 392 322 394 L498 548 L498 648 L48 648 L48 543 L343 543 L164 383 L219 294 Z " />
<glyph glyph-name="four" unicode="4" horiz-adv-x="587" d="M33 142 L345 142 L345 0 L463 0 L463 142 L572 142 L572 248 L463 248 L463 648 L309 648 L33 272 L33 142 Z M345 248 L141 248 L345 527 L345 248 Z " />
<glyph glyph-name="five" unicode="5" horiz-adv-x="551" d="M32 179 C40 77 136 -16 276 -16 C426 -16 520 86 520 208 C520 344 427 424 298 424 C252 424 202 408 174 379 L214 543 L488 543 L488 648 L133 648 L53 321 L166 280 C189 306 228 325 274 325 C340 325 399 285 399 205 C399 133 344 87 276 87 C201 87 150 139 145 208 L32 179 Z " />
<glyph glyph-name="six" unicode="6" horiz-adv-x="581" d="M532 631 C504 649 454 663 394 663 C193 663 46 521 46 286 C46 120 140 -15 305 -15 C441 -15 551 75 551 210 C551 343 460 429 331 429 C262 429 200 404 166 352 C177 478 265 559 387 559 C440 559 474 546 498 533 L532 631 Z M179 208 C179 284 237 329 305 329 C373 329 431 284 431 208 C431 133 373 87 305 87 C239 87 179 134 179 208 L179 208 Z " />
<glyph glyph-name="seven" unicode="7" horiz-adv-x="494" d="M489 648 L5 648 L5 543 L353 543 C353 543 127 362 99 0 L223 0 C252 334 435 498 489 543 L489 648 Z " />
<glyph glyph-name="eight" unicode="8" horiz-adv-x="565" d="M282 378 C218 379 176 419 176 473 C176 522 216 565 282 565 C348 565 389 522 389 473 C389 419 347 379 282 378 L282 378 Z M282 86 C204 86 161 132 161 185 C161 238 204 285 282 285 C361 285 404 238 404 185 C404 132 361 86 282 86 L282 86 Z M282 -15 C431 -15 523 65 523 173 C523 247 471 308 403 332 C465 355 508 417 508 480 C508 588 412 663 282 663 C152 663 57 588 57 480 C57 416 100 355 162 332 C93 308 42 247 42 173 C42 65 134 -15 282 -15 L282 -15 Z " />
<glyph glyph-name="nine" unicode="9" horiz-adv-x="582" d="M55 22 C88 0 152 -15 205 -15 C425 -15 537 125 537 360 C537 567 416 663 281 663 C145 663 37 571 37 437 C37 299 144 219 261 219 C338 219 395 252 419 294 C413 172 340 90 204 90 C161 90 113 104 88 120 L55 22 Z M403 441 C403 367 344 320 279 320 C212 320 155 365 155 441 C155 514 213 561 279 561 C344 561 403 513 403 441 L403 441 Z " />
<glyph glyph-name="colon" unicode="&#x3a;" horiz-adv-x="302" d="M71 74 C71 30 107 -6 152 -6 C196 -6 233 30 233 74 C233 119 196 155 152 155 C107 155 71 119 71 74 L71 74 Z M70 412 C70 368 106 332 151 332 C195 332 232 368 232 412 C232 457 195 493 151 493 C106 493 70 457 70 412 L70 412 Z " />
<glyph glyph-name="semicolon" unicode="&#x3b;" horiz-adv-x="307" d="M71 69 C71 26 101 -3 143 -3 C155 -3 162 0 166 2 C165 -47 125 -91 81 -101 L81 -157 C146 -148 236 -92 236 41 C236 102 200 142 150 142 C105 142 71 109 71 69 L71 69 Z M70 412 C70 368 106 332 151 332 C195 332 232 368 232 412 C232 457 195 493 151 493 C106 493 70 457 70 412 L70 412 Z " />
<glyph glyph-name="less" unicode="&#x3c;" horiz-adv-x="490" d="M35 244 L457 33 L457 144 L155 292 L457 439 L457 550 L35 338 L35 244 Z " />
<glyph glyph-name="equal" unicode="&#x3d;" horiz-adv-x="598" d="M537 343 L537 437 L62 437 L62 343 L537 343 Z M537 146 L537 241 L62 241 L62 146 L537 146 Z " />
<glyph glyph-name="greater" unicode="&#x3e;" horiz-adv-x="490" d="M455 338 L33 550 L33 438 L337 291 L33 143 L33 33 L455 244 L455 338 Z " />
<glyph glyph-name="question" unicode="&#x3f;" horiz-adv-x="520" d="M295 210 C294 216 294 221 294 223 C294 262 311 295 344 318 L387 348 C445 389 487 445 487 524 C487 626 407 724 259 724 C108 724 33 615 33 515 C33 499 35 483 39 469 L152 461 C148 472 146 491 146 506 C146 563 185 620 259 620 C332 620 367 571 367 519 C367 485 353 456 320 432 L274 399 C216 357 193 308 193 248 C193 234 194 223 195 210 L295 210 Z M173 66 C173 26 205 -7 246 -7 C286 -7 319 26 319 66 C319 106 286 140 246 140 C205 140 173 106 173 66 L173 66 Z " />
<glyph glyph-name="at" unicode="&#x40;" horiz-adv-x="826" d="M594 138 C698 139 791 246 791 397 C791 584 637 724 433 724 C219 724 42 565 42 332 C42 105 209 -47 443 -47 C525 -47 625 -15 681 37 L636 98 C578 54 510 34 443 34 C249 34 134 162 134 332 C134 518 262 642 434 642 C595 642 704 539 704 396 C704 297 654 217 601 217 C576 217 567 235 567 255 C567 261 569 271 570 276 L623 524 L535 524 L526 476 C511 518 465 537 425 537 C318 537 227 440 227 308 C227 206 291 136 379 136 C423 136 469 158 496 200 C506 162 543 138 594 138 L594 138 Z M504 368 C502 281 458 219 397 219 C343 219 320 261 320 315 C320 380 360 453 429 453 C478 453 504 421 504 368 L504 368 Z " />
<glyph glyph-name="A" unicode="A" horiz-adv-x="711" d="M570 0 L701 0 L425 709 L286 709 L10 0 L137 0 L203 178 L503 178 L570 0 Z M353 579 L461 289 L245 289 L353 579 Z " />
<glyph glyph-name="B" unicode="B" horiz-adv-x="607" d="M85 709 L85 0 L347 0 C479 0 567 82 567 196 C567 280 515 345 440 365 C501 387 545 443 545 518 C545 629 465 709 329 709 L85 709 Z M204 409 L204 607 L310 607 C383 607 425 568 425 508 C425 449 383 409 313 409 L204 409 Z M204 102 L204 308 L330 308 C404 308 445 265 445 204 C445 141 398 102 326 102 L204 102 Z " />
<glyph glyph-name="C" unicode="C" horiz-adv-x="758" d="M400 -15 C581 -15 689 100 721 220 L611 256 C587 176 519 100 400 100 C279 100 165 188 165 354 C165 526 282 611 399 611 C518 611 584 542 605 456 L718 494 C686 618 579 724 399 724 C215 724 42 585 42 354 C42 123 209 -15 400 -15 L400 -15 Z " />
<glyph glyph-name="D" unicode="D" horiz-adv-x="722" d="M205 110 L205 599 L332 599 C455 599 556 519 556 353 C556 189 454 110 331 110 L205 110 Z M335 0 C527 0 681 126 681 353 C681 581 529 709 336 709 L85 709 L85 0 L335 0 Z " />
<glyph glyph-name="E" unicode="E" horiz-adv-x="582" d="M523 0 L523 112 L205 112 L205 300 L493 300 L493 409 L205 409 L205 597 L523 597 L523 709 L85 709 L85 0 L523 0 Z " />
<glyph glyph-name="F" unicode="F" horiz-adv-x="557" d="M205 0 L205 286 L493 286 L493 397 L205 397 L205 596 L526 596 L526 709 L85 709 L85 0 L205 0 Z " />
<glyph glyph-name="G" unicode="G" horiz-adv-x="774" d="M714 0 L714 359 L367 359 L367 254 L601 254 C595 193 541 95 398 95 C276 95 164 182 164 355 C164 531 284 613 399 613 C512 613 582 545 606 465 L719 508 C681 625 571 724 399 724 C215 724 42 588 42 355 C42 121 206 -15 391 -15 C504 -15 577 38 608 90 L617 0 L714 0 Z " />
<glyph glyph-name="H" unicode="H" horiz-adv-x="744" d="M659 0 L659 709 L538 709 L538 416 L205 416 L205 709 L85 709 L85 0 L205 0 L205 303 L538 303 L538 0 L659 0 Z " />
<glyph glyph-name="I" unicode="I" horiz-adv-x="292" d="M207 0 L207 709 L85 709 L85 0 L207 0 Z " />
<glyph glyph-name="J" unicode="J" horiz-adv-x="547" d="M20 214 C20 76 108 -15 247 -15 C382 -15 470 90 470 216 L470 709 L350 709 L350 213 C350 141 310 98 246 98 C184 98 137 135 137 218 L137 284 L20 260 L20 214 Z " />
<glyph glyph-name="K" unicode="K" horiz-adv-x="685" d="M520 0 L671 0 L381 396 L668 709 L510 709 L205 369 L205 709 L85 709 L85 0 L205 0 L205 204 L299 307 L520 0 Z " />
<glyph glyph-name="L" unicode="L" horiz-adv-x="555" d="M530 0 L530 114 L205 114 L205 709 L85 709 L85 0 L530 0 Z " />
<glyph glyph-name="M" unicode="M" horiz-adv-x="950" d="M865 0 L865 709 L702 709 L475 168 L245 709 L85 709 L85 0 L202 0 L202 520 L421 0 L525 0 L746 522 L746 0 L865 0 Z " />
<glyph glyph-name="N" unicode="N" horiz-adv-x="765" d="M680 0 L680 709 L560 709 L560 206 L238 709 L85 709 L85 0 L205 0 L205 537 L555 0 L680 0 Z " />
<glyph glyph-name="O" unicode="O" horiz-adv-x="805" d="M165 355 C165 526 283 611 402 611 C522 611 640 526 640 355 C640 184 522 99 402 99 C283 99 165 184 165 355 L165 355 Z M42 355 C42 122 216 -15 402 -15 C588 -15 763 122 763 355 C763 587 588 724 402 724 C216 724 42 587 42 355 L42 355 Z " />
<glyph glyph-name="P" unicode="P" horiz-adv-x="602" d="M205 383 L205 603 L330 603 C406 603 452 560 452 492 C452 425 406 383 330 383 L205 383 Z M348 277 C484 277 574 368 574 493 C574 617 484 709 348 709 L85 709 L85 0 L205 0 L205 277 L348 277 Z " />
<glyph glyph-name="Q" unicode="Q" horiz-adv-x="805" d="M42 355 C42 122 216 -15 402 -15 C467 -15 532 2 587 34 L674 -61 L755 8 L671 102 C727 164 763 250 763 355 C763 587 588 724 402 724 C216 724 42 587 42 355 L42 355 Z M165 355 C165 526 283 611 402 611 C522 611 640 526 640 355 C640 286 621 232 591 191 L473 322 L391 252 L508 122 C475 106 438 99 402 99 C283 99 165 184 165 355 L165 355 Z " />
<glyph glyph-name="R" unicode="R" horiz-adv-x="622" d="M443 0 L579 0 L419 292 C518 316 579 393 579 494 C579 614 494 709 357 709 L85 709 L85 0 L206 0 L206 280 L294 280 L443 0 Z M206 386 L206 603 L335 603 C409 603 457 560 457 494 C457 429 409 386 335 386 L206 386 Z " />
<glyph glyph-name="S" unicode="S" horiz-adv-x="599" d="M551 543 C535 622 470 724 303 724 C171 724 62 626 62 507 C62 401 134 330 242 308 L342 287 C403 274 437 237 437 191 C437 136 393 93 308 93 C206 93 153 161 146 235 L34 203 C45 101 128 -15 308 -15 C470 -15 559 90 559 200 C559 300 492 379 367 404 L265 425 C210 437 182 471 182 516 C182 570 232 618 304 618 C399 618 436 553 443 509 L551 543 Z " />
<glyph glyph-name="T" unicode="T" horiz-adv-x="607" d="M594 596 L594 709 L13 709 L13 596 L243 596 L243 0 L363 0 L363 596 L594 596 Z " />
<glyph glyph-name="U" unicode="U" horiz-adv-x="683" d="M341 -15 C490 -15 606 76 606 247 L606 709 L486 709 L486 254 C486 154 432 99 341 99 C251 99 196 154 196 254 L196 709 L77 709 L77 247 C77 76 193 -15 341 -15 L341 -15 Z " />
<glyph glyph-name="V" unicode="V" horiz-adv-x="674" d="M338 157 L140 709 L10 709 L274 0 L396 0 L664 709 L537 709 L338 157 Z " />
<glyph glyph-name="W" unicode="W" horiz-adv-x="1017" d="M741 187 L572 709 L447 709 L281 191 L139 709 L13 709 L214 0 L337 0 L509 536 L681 0 L805 0 L1004 709 L880 709 L741 187 Z " />
<glyph glyph-name="X" unicode="X" horiz-adv-x="646" d="M631 709 L490 709 L324 449 L159 709 L15 709 L250 355 L13 0 L154 0 L321 259 L486 0 L630 0 L395 354 L631 709 Z " />
<glyph glyph-name="Y" unicode="Y" horiz-adv-x="638" d="M258 300 L258 0 L378 0 L378 300 L628 709 L493 709 L322 412 L152 709 L10 709 L258 300 Z " />
<glyph glyph-name="Z" unicode="Z" horiz-adv-x="636" d="M595 0 L595 114 L192 114 L590 595 L590 709 L53 709 L53 596 L435 596 L42 118 L42 0 L595 0 Z " />
<glyph glyph-name="bracketleft" unicode="&#x5b;" horiz-adv-x="304" d="M299 -157 L299 -66 L183 -66 L183 709 L299 709 L299 799 L85 799 L85 -157 L299 -157 Z " />
<glyph glyph-name="backslash" unicode="&#x5c;" horiz-adv-x="457" d="M348 -5 L457 -5 L110 714 L0 714 L348 -5 Z " />
<glyph glyph-name="bracketright" unicode="&#x5d;" horiz-adv-x="304" d="M219 -157 L219 799 L5 799 L5 709 L121 709 L121 -66 L5 -66 L5 -157 L219 -157 Z " />
<glyph glyph-name="asciicircum" unicode="&#x5e;" horiz-adv-x="526" d="M506 352 L310 710 L216 710 L20 352 L134 352 L264 596 L393 352 L506 352 Z " />
<glyph glyph-name="underscore" unicode="&#x5f;" horiz-adv-x="531" d="M521 -96 L521 0 L10 0 L10 -96 L521 -96 Z " />
<glyph glyph-name="grave" unicode="&#x60;" horiz-adv-x="285" d="M161 548 L256 548 L168 696 L29 696 L161 548 Z " />
<glyph glyph-name="a" unicode="a" horiz-adv-x="532" d="M45 132 C45 55 108 -15 210 -15 C289 -15 337 25 360 62 C360 23 364 3 365 0 L473 0 C472 5 467 34 467 78 L467 320 C467 417 410 502 260 502 C140 502 64 427 55 343 L161 319 C166 368 200 407 261 407 C325 407 353 374 353 333 C353 316 345 302 317 298 L192 279 C109 267 45 219 45 132 L45 132 Z M232 76 C186 76 161 106 161 139 C161 179 190 199 226 205 L353 224 L353 202 C353 107 297 76 232 76 L232 76 Z " />
<glyph glyph-name="b" unicode="b" horiz-adv-x="604" d="M188 0 L188 65 C216 18 269 -12 338 -12 C480 -12 567 99 567 246 C567 389 488 500 342 500 C267 500 211 465 189 427 L189 724 L75 724 L75 0 L188 0 Z M450 245 C450 149 395 91 319 91 C245 91 188 149 188 245 C188 342 245 397 319 397 C396 397 450 342 450 245 L450 245 Z " />
<glyph glyph-name="c" unicode="c" horiz-adv-x="541" d="M287 395 C361 395 394 347 405 304 L509 342 C489 420 417 502 286 502 C146 502 37 394 37 244 C37 96 146 -15 289 -15 C417 -15 490 68 513 144 L411 181 C400 144 365 91 289 91 C216 91 153 146 153 244 C153 342 216 395 287 395 L287 395 Z " />
<glyph glyph-name="d" unicode="d" horiz-adv-x="602" d="M153 245 C153 338 209 397 285 397 C361 397 413 339 413 246 C413 153 360 90 284 90 C205 90 153 152 153 245 L153 245 Z M525 724 L412 724 L412 430 C397 461 354 500 269 500 C132 500 37 385 37 245 C37 98 131 -12 271 -12 C340 -12 391 22 414 63 C414 43 417 11 419 0 L530 0 C529 8 525 45 525 89 L525 724 Z " />
<glyph glyph-name="e" unicode="e" horiz-adv-x="548" d="M156 297 C160 349 202 405 275 405 C355 405 393 354 395 297 L156 297 Z M408 170 C392 122 356 85 286 85 C214 85 156 138 153 212 L509 212 C510 214 512 230 512 249 C512 403 424 502 274 502 C151 502 37 400 37 246 C37 81 154 -15 286 -15 C403 -15 480 54 506 139 L408 170 Z " />
<glyph glyph-name="f" unicode="f" horiz-adv-x="350" d="M291 625 C313 625 326 622 333 620 L333 719 C325 723 301 729 272 729 C172 729 102 663 102 554 L102 487 L17 487 L17 386 L102 386 L102 0 L219 0 L219 386 L332 386 L332 487 L219 487 L219 551 C219 611 260 625 291 625 L291 625 Z " />
<glyph glyph-name="g" unicode="g" horiz-adv-x="589" d="M40 -27 C53 -125 143 -205 272 -205 C455 -205 522 -84 522 46 L522 487 L410 487 L410 425 C389 465 342 496 266 496 C132 496 41 389 41 259 C41 122 136 22 266 22 C337 22 386 55 407 93 L407 42 C407 -57 361 -104 269 -104 C202 -104 155 -59 147 1 L40 -27 Z M285 121 C209 121 158 174 158 259 C158 342 211 396 285 396 C357 396 410 342 410 259 C410 175 359 121 285 121 L285 121 Z " />
<glyph glyph-name="h" unicode="h" horiz-adv-x="574" d="M191 286 C193 348 228 396 292 396 C365 396 392 348 392 288 L392 0 L508 0 L508 308 C508 415 450 501 330 501 C279 501 224 483 191 440 L191 724 L75 724 L75 0 L191 0 L191 286 Z " />
<glyph glyph-name="i" unicode="i" horiz-adv-x="265" d="M190 0 L190 487 L75 487 L75 0 L190 0 Z M57 658 C57 616 91 583 132 583 C174 583 208 616 208 658 C208 700 174 734 132 734 C91 734 57 700 57 658 L57 658 Z " />
<glyph glyph-name="j" unicode="j" horiz-adv-x="266" d="M75 -40 C75 -80 59 -103 15 -103 C2 -103 -15 -101 -20 -100 L-20 -196 C-15 -198 7 -205 46 -205 C136 -205 191 -140 191 -49 L191 487 L75 487 L75 -40 Z M57 659 C57 618 91 584 132 584 C174 584 208 618 208 659 C208 701 174 735 132 735 C91 735 57 701 57 659 L57 659 Z " />
<glyph glyph-name="k" unicode="k" horiz-adv-x="544" d="M531 487 L377 487 L190 290 L190 724 L75 724 L75 0 L190 0 L190 136 L250 199 L393 0 L535 0 L331 281 L531 487 Z " />
<glyph glyph-name="l" unicode="l" horiz-adv-x="266" d="M191 0 L191 724 L75 724 L75 0 L191 0 Z " />
<glyph glyph-name="m" unicode="m" horiz-adv-x="873" d="M190 0 L190 289 C190 351 229 397 291 397 C357 397 385 353 385 297 L385 0 L499 0 L499 289 C499 349 539 397 600 397 C665 397 694 354 694 297 L694 0 L806 0 L806 316 C806 445 722 501 634 501 C571 501 514 479 476 415 C450 472 394 501 330 501 C275 501 214 475 186 425 L186 487 L75 487 L75 0 L190 0 Z " />
<glyph glyph-name="n" unicode="n" horiz-adv-x="574" d="M191 281 C191 345 226 396 292 396 C365 396 392 348 392 288 L392 0 L508 0 L508 308 C508 415 451 501 332 501 C278 501 220 478 188 422 L188 487 L75 487 L75 0 L191 0 L191 281 Z " />
<glyph glyph-name="o" unicode="o" horiz-adv-x="579" d="M289 89 C218 89 153 143 153 244 C153 345 218 397 289 397 C361 397 425 345 425 244 C425 142 361 89 289 89 L289 89 Z M289 502 C144 502 37 393 37 244 C37 94 144 -15 289 -15 C435 -15 542 94 542 244 C542 393 435 502 289 502 L289 502 Z " />
<glyph glyph-name="p" unicode="p" horiz-adv-x="604" d="M190 -190 L190 55 C215 18 268 -12 338 -12 C478 -12 567 98 567 244 C567 388 486 498 342 498 C267 498 211 463 187 421 L187 487 L75 487 L75 -190 L190 -190 Z M451 244 C451 151 397 91 320 91 C244 91 189 151 189 244 C189 335 244 395 320 395 C398 395 451 335 451 244 L451 244 Z " />
<glyph glyph-name="q" unicode="q" horiz-adv-x="596" d="M528 -190 L528 487 L417 487 L417 422 C400 457 353 499 268 499 C126 499 37 385 37 245 C37 100 132 -12 271 -12 C339 -12 390 15 414 58 L414 -190 L528 -190 Z M154 245 C154 338 207 396 284 396 C360 396 415 338 415 245 C415 152 360 90 284 90 C208 90 154 152 154 245 L154 245 Z " />
<glyph glyph-name="r" unicode="r" horiz-adv-x="380" d="M360 490 C355 491 343 493 329 493 C265 493 211 462 188 409 L188 487 L75 487 L75 0 L191 0 L191 232 C191 323 232 375 322 375 C334 375 347 374 360 372 L360 490 Z " />
<glyph glyph-name="s" unicode="s" horiz-adv-x="457" d="M32 132 C38 77 92 -15 233 -15 C357 -15 417 67 417 141 C417 213 369 269 277 289 L203 304 C173 310 154 329 154 355 C154 385 183 411 224 411 C289 411 310 366 314 338 L412 366 C404 414 360 502 224 502 C123 502 45 430 45 345 C45 278 90 222 176 203 L248 187 C287 179 305 159 305 133 C305 103 280 77 232 77 C170 77 137 116 133 160 L32 132 Z " />
<glyph glyph-name="t" unicode="t" horiz-adv-x="365" d="M222 636 L117 636 L117 563 C117 520 94 487 42 487 L17 487 L17 384 L107 384 L107 139 C107 48 163 -6 253 -6 C295 -6 317 2 324 5 L324 101 C319 100 300 97 284 97 C241 97 222 115 222 158 L222 384 L323 384 L323 487 L222 487 L222 636 Z " />
<glyph glyph-name="u" unicode="u" horiz-adv-x="577" d="M392 54 C392 34 394 11 396 0 L507 0 C505 18 502 49 502 89 L502 487 L386 487 L386 199 C386 135 351 90 284 90 C214 90 186 141 186 201 L186 487 L70 487 L70 180 C70 72 138 -14 254 -14 C311 -14 368 10 392 54 L392 54 Z " />
<glyph glyph-name="v" unicode="v" horiz-adv-x="525" d="M515 487 L393 487 L267 139 L138 487 L10 487 L208 0 L324 0 L515 487 Z " />
<glyph glyph-name="w" unicode="w" horiz-adv-x="814" d="M351 487 L236 150 L137 487 L13 487 L171 0 L290 0 L408 350 L529 0 L645 0 L801 487 L683 487 L586 150 L471 487 L351 487 Z " />
<glyph glyph-name="x" unicode="x" horiz-adv-x="513" d="M11 0 L144 0 C153 15 244 148 254 163 L367 0 L503 0 L326 248 L497 487 L365 487 L259 331 C250 345 161 472 152 487 L14 487 L188 246 L11 0 Z " />
<glyph glyph-name="y" unicode="y" horiz-adv-x="543" d="M223 -197 L533 487 L410 487 L279 179 L139 487 L8 487 L216 58 L99 -197 L223 -197 Z " />
<glyph glyph-name="z" unicode="z" horiz-adv-x="474" d="M436 0 L436 102 L181 102 L431 389 L431 487 L43 487 L43 385 L285 385 L38 101 L38 0 L436 0 Z " />
<glyph glyph-name="braceleft" unicode="&#x7b;" horiz-adv-x="365" d="M45 273 C102 273 150 247 150 176 L150 37 C150 -91 219 -153 337 -153 L360 -153 L360 -64 L338 -64 C278 -64 248 -37 248 32 L248 198 C248 263 210 308 146 323 C210 337 248 382 248 447 L248 613 C248 682 278 710 338 710 L360 710 L360 799 L337 799 C219 799 150 737 150 609 L150 469 C150 399 102 373 45 373 L45 273 Z " />
<glyph glyph-name="bar" unicode="&#x7c;" horiz-adv-x="268" d="M183 -153 L183 799 L85 799 L85 -153 L183 -153 Z " />
<glyph glyph-name="braceright" unicode="&#x7d;" horiz-adv-x="365" d="M320 373 C263 373 215 399 215 469 L215 609 C215 737 146 799 28 799 L5 799 L5 710 L27 710 C87 710 117 682 117 613 L117 447 C117 382 155 337 219 323 C155 308 117 263 117 198 L117 32 C117 -37 87 -64 27 -64 L5 -64 L5 -153 L28 -153 C146 -153 215 -91 215 37 L215 176 C215 247 263 273 320 273 L320 373 Z " />
<glyph glyph-name="asciitilde" unicode="&#x7e;" horiz-adv-x="577" d="M287 236 C322 217 356 208 389 208 C453 208 510 242 547 307 L481 360 C459 326 426 307 391 307 C373 307 354 312 336 322 L290 347 C256 366 222 374 189 374 C125 374 67 339 30 274 L96 221 C121 255 153 275 188 275 C205 275 222 270 240 261 L287 236 Z " />
<glyph glyph-name="uni00A0" unicode="&#xa0;" horiz-adv-x="248" d="" />
<glyph glyph-name="exclamdown" unicode="&#xa1;" horiz-adv-x="291" d="M187 285 L104 285 L74 -213 L216 -213 L187 285 Z M72 429 C72 388 105 356 145 356 C185 356 219 388 219 429 C219 469 185 502 145 502 C105 502 72 469 72 429 L72 429 Z " />
<glyph glyph-name="cent" unicode="&#xa2;" horiz-adv-x="546" d="M325 0 L325 87 C424 101 481 169 501 232 L403 267 C395 239 371 201 325 188 L325 459 C367 446 389 412 397 381 L497 416 C480 479 424 546 325 561 L325 649 L234 649 L234 559 C125 537 45 446 45 325 C45 206 124 112 234 90 L234 0 L325 0 Z M154 325 C154 392 187 436 234 455 L234 193 C187 212 154 258 154 325 L154 325 Z " />
<glyph glyph-name="sterling" unicode="&#xa3;" horiz-adv-x="593" d="M67 368 L67 273 L165 273 C167 261 169 249 169 237 C169 180 128 129 62 104 L62 0 L398 0 C504 0 571 78 571 185 L463 197 C463 146 433 103 375 103 L198 103 C253 134 281 188 281 249 C281 257 280 265 279 273 L438 273 L438 368 L250 368 C236 401 223 434 223 471 C223 532 268 563 316 563 C374 563 412 528 413 462 L523 480 C520 561 470 663 314 663 C192 663 108 577 108 473 C108 431 118 398 131 368 L67 368 Z " />
<glyph glyph-name="currency" unicode="&#xa4;" horiz-adv-x="585" d="M80 242 C80 201 91 162 112 130 L39 56 L110 -14 L183 60 C216 40 254 29 295 29 C334 29 372 39 404 58 L475 -14 L545 56 L476 126 C497 159 510 199 510 242 C510 285 497 326 475 359 L545 431 L474 502 L401 428 C370 446 333 456 295 456 C255 456 217 445 185 426 L111 502 L39 431 L113 356 C92 323 80 284 80 242 L80 242 Z M179 242 C179 310 229 359 295 359 C361 359 410 310 410 242 C410 174 361 125 295 125 C229 125 179 174 179 242 L179 242 Z " />
<glyph glyph-name="yen" unicode="&#xa5;" horiz-adv-x="600" d="M535 144 L535 228 L361 228 L361 302 L535 302 L535 386 L418 386 L576 648 L446 648 L304 397 L158 648 L23 648 L185 386 L74 386 L74 302 L245 302 L245 228 L74 228 L74 144 L245 144 L245 0 L361 0 L361 144 L535 144 Z " />
<glyph glyph-name="brokenbar" unicode="&#xa6;" horiz-adv-x="268" d="M85 799 L85 400 L183 400 L183 799 L85 799 Z M85 245 L85 -154 L183 -154 L183 245 L85 245 Z " />
<glyph glyph-name="section" unicode="&#xa7;" horiz-adv-x="566" d="M488 246 C488 336 421 381 347 419 L245 472 C212 489 194 515 194 545 C194 593 231 626 285 626 C346 626 381 587 381 518 L491 538 C489 644 415 724 286 724 C177 724 77 651 77 536 C77 480 105 429 159 392 C120 372 79 328 79 267 C79 176 144 132 219 94 L322 41 C353 25 372 -2 372 -33 C372 -84 335 -114 282 -114 C219 -114 185 -73 185 -5 L76 -25 C79 -136 152 -212 281 -212 C390 -212 490 -138 490 -23 C490 31 461 84 408 121 C447 141 488 185 488 246 L488 246 Z M327 301 C365 280 379 257 379 225 C379 196 362 173 340 158 L239 212 C200 232 187 256 187 288 C187 316 203 340 225 355 L327 301 Z " />
<glyph glyph-name="dieresis" unicode="&#xa8;" horiz-adv-x="393" d="M32 625 C32 588 60 560 96 560 C133 560 162 588 162 625 C162 661 133 690 96 690 C60 690 32 661 32 625 L32 625 Z M232 625 C232 588 260 560 296 560 C332 560 361 588 361 625 C361 661 332 690 296 690 C260 690 232 661 232 625 L232 625 Z " />
<glyph glyph-name="copyright" unicode="&#xa9;" horiz-adv-x="818" d="M124 355 C124 520 248 648 408 648 C567 648 692 520 692 355 C692 189 567 61 408 61 C248 61 124 189 124 355 L124 355 Z M42 355 C42 151 205 -15 408 -15 C611 -15 776 151 776 355 C776 558 611 724 408 724 C205 724 42 558 42 355 L42 355 Z M412 473 C470 473 496 436 504 402 L586 432 C570 493 514 558 411 558 C301 558 215 473 215 355 C215 238 301 151 413 151 C514 151 571 216 589 276 L509 305 C500 276 473 235 413 235 C356 235 306 278 306 355 C306 432 356 473 412 473 L412 473 Z " />
<glyph glyph-name="ordfeminine" unicode="&#xaa;" horiz-adv-x="425" d="M59 399 C59 344 104 295 177 295 C229 295 262 320 279 347 C279 325 282 308 283 305 L365 305 C364 309 361 332 361 360 L361 529 C361 598 321 659 213 659 C123 659 72 602 66 546 L147 529 C150 560 173 586 213 586 C254 586 274 565 274 539 C274 528 267 518 248 515 L162 502 C105 494 59 460 59 399 L59 399 Z M196 363 C164 363 149 383 149 404 C149 431 168 444 192 448 L274 460 L274 445 C274 383 236 363 196 363 L196 363 Z " />
<glyph glyph-name="guillemotleft" unicode="&#xab;" horiz-adv-x="500" d="M274 100 L141 292 L275 487 L164 487 L28 293 L163 100 L274 100 Z M481 100 L348 292 L482 487 L371 487 L235 293 L370 100 L481 100 Z " />
<glyph glyph-name="logicalnot" unicode="&#xac;" horiz-adv-x="583" d="M523 142 L523 434 L45 434 L45 337 L422 337 L422 142 L523 142 Z " />
<glyph glyph-name="uni00AD" unicode="&#xad;" horiz-adv-x="372" d="M327 241 L327 344 L45 344 L45 241 L327 241 Z " />
<glyph glyph-name="registered" unicode="&#xae;" horiz-adv-x="818" d="M42 355 C42 151 205 -15 408 -15 C611 -15 776 151 776 355 C776 558 611 724 408 724 C205 724 42 558 42 355 L42 355 Z M124 355 C124 520 248 648 408 648 C567 648 692 520 692 355 C692 189 567 61 408 61 C248 61 124 189 124 355 L124 355 Z M471 157 L569 157 L484 312 C533 331 566 375 566 430 C566 501 507 558 429 558 L280 558 L280 157 L366 157 L366 301 L395 301 L471 157 Z M366 374 L366 485 L415 485 C455 485 478 464 478 429 C478 395 455 374 415 374 L366 374 Z " />
<glyph glyph-name="macron" unicode="&#xaf;" horiz-adv-x="338" d="M308 577 L308 667 L30 667 L30 577 L308 577 Z " />
<glyph glyph-name="degree" unicode="&#xb0;" horiz-adv-x="372" d="M115 500 C115 543 146 573 186 573 C226 573 256 543 256 500 C256 457 226 426 186 426 C146 426 115 457 115 500 L115 500 Z M22 500 C22 410 97 340 185 340 C274 340 350 409 350 500 C350 590 274 661 186 661 C97 661 22 590 22 500 L22 500 Z " />
<glyph glyph-name="plusminus" unicode="&#xb1;" horiz-adv-x="581" d="M63 405 L63 311 L241 311 L241 183 L340 183 L340 311 L518 311 L518 405 L340 405 L340 534 L241 534 L241 405 L63 405 Z M63 143 L63 47 L518 47 L518 143 L63 143 Z " />
<glyph glyph-name="twosuperior" unicode="&#xb2;" horiz-adv-x="392" d="M146 567 C144 575 143 586 143 591 C143 622 163 643 195 643 C228 643 244 621 244 599 C244 578 230 559 203 543 L143 507 C80 469 56 418 56 355 L56 343 L337 343 L337 419 L168 419 C170 428 178 437 188 444 L259 487 C306 515 334 551 334 598 C334 662 284 717 197 717 C108 717 59 661 59 596 C59 587 60 576 62 566 L146 567 Z " />
<glyph glyph-name="threesuperior" unicode="&#xb3;" horiz-adv-x="412" d="M55 444 C65 389 116 335 205 335 C298 335 356 391 356 458 C356 523 312 562 253 568 L347 637 L347 709 L68 709 L68 634 L232 634 L141 565 L173 504 C183 508 192 510 204 510 C235 510 265 496 265 459 C265 432 241 410 204 410 C167 410 140 435 135 468 L55 444 Z " />
<glyph glyph-name="acute" unicode="&#xb4;" horiz-adv-x="286" d="M256 696 L119 696 L30 548 L125 548 L256 696 Z " />
<glyph glyph-name="mu" unicode="&#xb5;" horiz-adv-x="584" d="M397 54 C397 34 399 11 401 0 L512 0 C509 27 507 58 507 89 L507 487 L391 487 L391 199 C391 135 356 90 289 90 C219 90 191 141 191 201 L191 487 L75 487 L75 -190 L191 -190 L191 -2 C211 -10 234 -14 259 -14 C316 -14 373 10 397 54 L397 54 Z " />
<glyph glyph-name="paragraph" unicode="&#xb6;" horiz-adv-x="648" d="M341 616 L436 616 L436 -197 L531 -197 L531 616 L628 616 L628 709 L262 709 C136 709 30 637 30 505 C30 395 121 310 229 310 L246 310 L246 -197 L341 -197 L341 616 Z " />
<glyph glyph-name="periodcentered" unicode="&#xb7;" horiz-adv-x="284" d="M65 298 C65 254 100 221 143 221 C187 221 222 254 222 298 C222 341 187 376 143 376 C100 376 65 341 65 298 L65 298 Z " />
<glyph glyph-name="cedilla" unicode="&#xb8;" horiz-adv-x="296" d="M117 -105 C125 -102 136 -100 145 -100 C171 -100 186 -114 186 -130 C186 -151 166 -160 142 -160 C107 -160 82 -138 69 -125 L28 -175 C47 -199 90 -223 143 -223 C231 -223 266 -178 266 -131 C266 -81 226 -48 169 -47 L208 13 L130 13 L82 -62 L117 -105 Z " />
<glyph glyph-name="onesuperior" unicode="&#xb9;" horiz-adv-x="298" d="M223 343 L223 709 L141 709 C134 673 100 637 43 636 L43 576 L132 576 L132 343 L223 343 Z " />
<glyph glyph-name="ordmasculine" unicode="&#xba;" horiz-adv-x="483" d="M242 376 C195 376 153 411 153 477 C153 544 195 577 242 577 C289 577 331 544 331 477 C331 410 289 376 242 376 L242 376 Z M242 659 C139 659 62 583 62 477 C62 371 139 295 242 295 C345 295 422 371 422 477 C422 583 345 659 242 659 L242 659 Z " />
<glyph glyph-name="guillemotright" unicode="&#xbb;" horiz-adv-x="500" d="M337 100 L472 293 L336 487 L225 487 L359 292 L226 100 L337 100 Z M130 100 L265 293 L129 487 L18 487 L152 292 L19 100 L130 100 Z " />
<glyph glyph-name="onequarter" unicode="&#xbc;" horiz-adv-x="796" d="M230 282 L230 648 L148 648 C141 612 107 576 50 575 L50 515 L139 515 L139 282 L230 282 Z M417 71 L598 71 L598 0 L688 0 L688 71 L750 71 L750 144 L688 144 L688 366 L589 366 L417 159 L417 71 Z M598 144 L495 144 L598 269 L598 144 Z M195 0 L656 648 L552 648 L90 0 L195 0 Z " />
<glyph glyph-name="onehalf" unicode="&#xbd;" horiz-adv-x="805" d="M230 282 L230 648 L148 648 C141 612 107 576 50 575 L50 515 L139 515 L139 282 L230 282 Z M194 0 L655 648 L551 648 L89 0 L194 0 Z M567 224 C565 232 564 243 564 248 C564 279 584 300 616 300 C649 300 665 278 665 256 C665 235 651 216 624 200 L564 164 C501 126 477 75 477 12 L477 0 L758 0 L758 76 L589 76 C591 85 599 94 609 101 L680 144 C727 172 755 208 755 255 C755 319 705 374 618 374 C529 374 480 318 480 253 C480 244 481 233 483 223 L567 224 Z " />
<glyph glyph-name="threequarters" unicode="&#xbe;" horiz-adv-x="869" d="M52 383 C62 328 113 274 202 274 C295 274 353 330 353 397 C353 462 309 501 250 507 L344 576 L344 648 L65 648 L65 573 L229 573 L138 504 L170 443 C180 447 189 449 201 449 C232 449 262 435 262 398 C262 371 238 349 201 349 C164 349 137 374 132 407 L52 383 Z M491 71 L672 71 L672 0 L762 0 L762 71 L824 71 L824 144 L762 144 L762 366 L663 366 L491 159 L491 71 Z M672 144 L569 144 L672 269 L672 144 Z M280 0 L741 648 L637 648 L175 0 L280 0 Z " />
<glyph glyph-name="questiondown" unicode="&#xbf;" horiz-adv-x="487" d="M208 286 L208 276 C208 236 191 201 159 178 L116 148 C58 107 17 52 17 -28 C17 -129 96 -228 245 -228 C396 -228 470 -120 470 -20 C470 -4 469 12 465 26 L351 38 C355 26 357 8 357 -7 C357 -65 322 -123 245 -123 C172 -123 137 -75 137 -23 C137 11 151 41 184 65 L230 98 C288 139 310 188 310 248 C310 262 309 274 307 286 L208 286 Z M184 429 C184 389 216 356 257 356 C297 356 330 389 330 429 C330 469 297 502 257 502 C216 502 184 469 184 429 L184 429 Z " />
<glyph glyph-name="Agrave" unicode="&#xc0;" horiz-adv-x="711" d="M570 0 L701 0 L425 709 L286 709 L10 0 L137 0 L203 178 L503 178 L570 0 Z M353 579 L461 289 L245 289 L353 579 Z M306 759 L414 759 L311 883 L163 883 L306 759 Z " />
<glyph glyph-name="Aacute" unicode="&#xc1;" horiz-adv-x="711" d="M570 0 L701 0 L425 709 L286 709 L10 0 L137 0 L203 178 L503 178 L570 0 Z M353 579 L461 289 L245 289 L353 579 Z M546 883 L397 883 L295 759 L404 759 L546 883 Z " />
<glyph glyph-name="Acircumflex" unicode="&#xc2;" horiz-adv-x="711" d="M570 0 L701 0 L425 709 L286 709 L10 0 L137 0 L203 178 L503 178 L570 0 Z M353 579 L461 289 L245 289 L353 579 Z M278 759 L350 823 L425 759 L535 759 L416 883 L287 883 L171 759 L278 759 Z " />
<glyph glyph-name="Atilde" unicode="&#xc3;" horiz-adv-x="711" d="M570 0 L701 0 L425 709 L286 709 L10 0 L137 0 L203 178 L503 178 L570 0 Z M353 579 L461 289 L245 289 L353 579 Z M517 886 L443 886 L443 876 C443 852 429 843 412 843 C399 843 385 851 369 860 L359 866 C339 878 314 889 285 889 C230 889 185 853 185 779 L185 757 L260 757 L260 767 C260 789 275 800 290 800 C305 800 319 793 335 783 L345 776 C365 764 389 753 418 753 C473 753 517 790 517 863 L517 886 Z " />
<glyph glyph-name="Adieresis" unicode="&#xc4;" horiz-adv-x="711" d="M134 821 C134 784 163 755 200 755 C238 755 267 784 267 821 C267 858 238 888 200 888 C163 888 134 858 134 821 L134 821 Z M441 821 C441 784 469 755 506 755 C544 755 573 784 573 821 C573 858 544 888 506 888 C469 888 441 858 441 821 L441 821 Z M570 0 L701 0 L425 709 L286 709 L10 0 L137 0 L203 178 L503 178 L570 0 Z M353 579 L461 289 L245 289 L353 579 Z " />
<glyph glyph-name="Aring" unicode="&#xc5;" horiz-adv-x="711" d="M353 579 L461 289 L245 289 L353 579 Z M353 709 C325 709 303 729 303 759 C303 788 325 808 353 808 C381 808 403 788 403 759 C403 729 381 709 353 709 L353 709 Z M483 759 C483 831 423 885 353 885 C284 885 224 831 224 759 C224 720 241 686 268 663 L10 0 L137 0 L203 178 L503 178 L570 0 L701 0 L441 666 C467 689 483 721 483 759 L483 759 Z " />
<glyph glyph-name="AE" unicode="&#xc6;" horiz-adv-x="1044" d="M986 0 L986 112 L668 112 L668 300 L956 300 L956 409 L668 409 L668 597 L986 597 L986 709 L477 709 L7 0 L156 0 L271 180 L548 180 L548 0 L986 0 Z M337 283 L548 611 L548 283 L337 283 Z " />
<glyph glyph-name="Ccedilla" unicode="&#xc7;" horiz-adv-x="758" d="M370 -105 C378 -102 389 -100 398 -100 C424 -100 439 -114 439 -130 C439 -151 419 -160 395 -160 C360 -160 335 -138 322 -125 L281 -175 C300 -199 343 -223 396 -223 C484 -223 519 -178 519 -131 C519 -81 479 -48 422 -47 L444 -12 C598 4 691 110 721 220 L611 256 C587 176 519 100 400 100 C279 100 165 188 165 354 C165 526 282 611 399 611 C518 611 584 542 605 456 L718 494 C686 618 579 724 399 724 C215 724 42 585 42 354 C42 137 189 2 366 -13 L335 -62 L370 -105 Z " />
<glyph glyph-name="Egrave" unicode="&#xc8;" horiz-adv-x="582" d="M280 759 L388 759 L285 883 L137 883 L280 759 Z M523 0 L523 112 L205 112 L205 300 L493 300 L493 409 L205 409 L205 597 L523 597 L523 709 L85 709 L85 0 L523 0 Z " />
<glyph glyph-name="Eacute" unicode="&#xc9;" horiz-adv-x="582" d="M474 883 L325 883 L223 759 L332 759 L474 883 Z M523 0 L523 112 L205 112 L205 300 L493 300 L493 409 L205 409 L205 597 L523 597 L523 709 L85 709 L85 0 L523 0 Z " />
<glyph glyph-name="Ecircumflex" unicode="&#xca;" horiz-adv-x="582" d="M228 759 L300 823 L375 759 L485 759 L366 883 L237 883 L121 759 L228 759 Z M523 0 L523 112 L205 112 L205 300 L493 300 L493 409 L205 409 L205 597 L523 597 L523 709 L85 709 L85 0 L523 0 Z " />
<glyph glyph-name="Edieresis" unicode="&#xcb;" horiz-adv-x="582" d="M125 821 C125 784 154 755 191 755 C228 755 258 784 258 821 C258 858 228 888 191 888 C154 888 125 858 125 821 L125 821 Z M353 821 C353 784 381 755 419 755 C456 755 485 784 485 821 C485 858 456 888 419 888 C381 888 353 858 353 821 L353 821 Z M523 0 L523 112 L205 112 L205 300 L493 300 L493 409 L205 409 L205 597 L523 597 L523 709 L85 709 L85 0 L523 0 Z " />
<glyph glyph-name="Igrave" unicode="&#xcc;" horiz-adv-x="292" d="M207 0 L207 709 L85 709 L85 0 L207 0 Z M96 759 L204 759 L101 883 L-47 883 L96 759 Z " />
<glyph glyph-name="Iacute" unicode="&#xcd;" horiz-adv-x="292" d="M207 0 L207 709 L85 709 L85 0 L207 0 Z M339 883 L190 883 L88 759 L197 759 L339 883 Z " />
<glyph glyph-name="Icircumflex" unicode="&#xce;" horiz-adv-x="292" d="M207 0 L207 709 L85 709 L85 0 L207 0 Z M76 759 L148 823 L223 759 L333 759 L214 883 L85 883 L-31 759 L76 759 Z " />
<glyph glyph-name="Idieresis" unicode="&#xcf;" horiz-adv-x="292" d="M-2 821 C-2 786 25 758 60 758 C95 758 123 786 123 821 C123 856 95 884 60 884 C25 884 -2 856 -2 821 L-2 821 Z M171 821 C171 786 198 758 234 758 C269 758 296 786 296 821 C296 856 269 884 234 884 C198 884 171 856 171 821 L171 821 Z M207 0 L207 709 L85 709 L85 0 L207 0 Z " />
<glyph glyph-name="Eth" unicode="&#xd0;" horiz-adv-x="740" d="M349 0 C541 0 695 126 695 353 C695 581 543 709 350 709 L99 709 L99 412 L17 412 L17 319 L99 319 L99 0 L349 0 Z M219 110 L219 319 L350 319 L350 412 L219 412 L219 599 L346 599 C469 599 570 519 570 353 C570 189 468 110 345 110 L219 110 Z " />
<glyph glyph-name="Ntilde" unicode="&#xd1;" horiz-adv-x="765" d="M550 886 L476 886 L476 876 C476 852 462 843 445 843 C432 843 418 851 402 860 L392 866 C372 878 347 889 318 889 C263 889 218 853 218 779 L218 757 L293 757 L293 767 C293 789 308 800 323 800 C338 800 352 793 368 783 L378 776 C398 764 422 753 451 753 C506 753 550 790 550 863 L550 886 Z M680 0 L680 709 L560 709 L560 206 L238 709 L85 709 L85 0 L205 0 L205 537 L555 0 L680 0 Z " />
<glyph glyph-name="Ograve" unicode="&#xd2;" horiz-adv-x="805" d="M353 759 L461 759 L358 883 L210 883 L353 759 Z M165 355 C165 526 283 611 402 611 C522 611 640 526 640 355 C640 184 522 99 402 99 C283 99 165 184 165 355 L165 355 Z M42 355 C42 122 216 -15 402 -15 C588 -15 763 122 763 355 C763 587 588 724 402 724 C216 724 42 587 42 355 L42 355 Z " />
<glyph glyph-name="Oacute" unicode="&#xd3;" horiz-adv-x="805" d="M590 883 L441 883 L339 759 L448 759 L590 883 Z M165 355 C165 526 283 611 402 611 C522 611 640 526 640 355 C640 184 522 99 402 99 C283 99 165 184 165 355 L165 355 Z M42 355 C42 122 216 -15 402 -15 C588 -15 763 122 763 355 C763 587 588 724 402 724 C216 724 42 587 42 355 L42 355 Z " />
<glyph glyph-name="Ocircumflex" unicode="&#xd4;" horiz-adv-x="805" d="M328 759 L400 823 L475 759 L585 759 L466 883 L337 883 L221 759 L328 759 Z M165 355 C165 526 283 611 402 611 C522 611 640 526 640 355 C640 184 522 99 402 99 C283 99 165 184 165 355 L165 355 Z M42 355 C42 122 216 -15 402 -15 C588 -15 763 122 763 355 C763 587 588 724 402 724 C216 724 42 587 42 355 L42 355 Z " />
<glyph glyph-name="Otilde" unicode="&#xd5;" horiz-adv-x="805" d="M569 887 L495 887 L495 877 C495 853 481 844 464 844 C451 844 437 852 421 861 L411 867 C391 879 366 890 337 890 C282 890 237 854 237 780 L237 758 L312 758 L312 768 C312 790 327 801 342 801 C357 801 371 794 387 784 L397 777 C417 765 441 754 470 754 C525 754 569 791 569 864 L569 887 Z M165 355 C165 526 283 611 402 611 C522 611 640 526 640 355 C640 184 522 99 402 99 C283 99 165 184 165 355 L165 355 Z M42 355 C42 122 216 -15 402 -15 C588 -15 763 122 763 355 C763 587 588 724 402 724 C216 724 42 587 42 355 L42 355 Z " />
<glyph glyph-name="Odieresis" unicode="&#xd6;" horiz-adv-x="805" d="M175 821 C175 784 204 755 241 755 C278 755 308 784 308 821 C308 858 278 888 241 888 C204 888 175 858 175 821 L175 821 Z M498 821 C498 784 527 755 564 755 C601 755 631 784 631 821 C631 858 601 888 564 888 C527 888 498 858 498 821 L498 821 Z M165 355 C165 526 283 611 402 611 C522 611 640 526 640 355 C640 184 522 99 402 99 C283 99 165 184 165 355 L165 355 Z M42 355 C42 122 216 -15 402 -15 C588 -15 763 122 763 355 C763 587 588 724 402 724 C216 724 42 587 42 355 L42 355 Z " />
<glyph glyph-name="multiply" unicode="&#xd7;" horiz-adv-x="548" d="M441 51 L510 120 L342 292 L509 463 L440 532 L274 361 L108 532 L39 463 L206 292 L38 120 L107 51 L274 222 L441 51 Z " />
<glyph glyph-name="Oslash" unicode="&#xd8;" horiz-adv-x="805" d="M42 355 C42 246 80 158 140 95 L69 4 L149 -55 L217 33 C273 1 337 -15 402 -15 C588 -15 763 122 763 355 C763 463 725 550 665 613 L737 705 L659 765 L588 674 C532 706 468 724 402 724 C216 724 42 587 42 355 L42 355 Z M165 355 C165 526 283 611 402 611 C442 611 482 601 517 582 L214 191 C183 232 165 286 165 355 L165 355 Z M640 355 C640 184 522 99 402 99 C363 99 324 108 289 126 L592 517 C621 476 640 422 640 355 L640 355 Z " />
<glyph glyph-name="Ugrave" unicode="&#xd9;" horiz-adv-x="683" d="M307 759 L415 759 L312 883 L164 883 L307 759 Z M341 -15 C490 -15 606 76 606 247 L606 709 L486 709 L486 254 C486 154 432 99 341 99 C251 99 196 154 196 254 L196 709 L77 709 L77 247 C77 76 193 -15 341 -15 L341 -15 Z " />
<glyph glyph-name="Uacute" unicode="&#xda;" horiz-adv-x="683" d="M513 883 L364 883 L262 759 L371 759 L513 883 Z M341 -15 C490 -15 606 76 606 247 L606 709 L486 709 L486 254 C486 154 432 99 341 99 C251 99 196 154 196 254 L196 709 L77 709 L77 247 C77 76 193 -15 341 -15 L341 -15 Z " />
<glyph glyph-name="Ucircumflex" unicode="&#xdb;" horiz-adv-x="683" d="M267 759 L339 823 L414 759 L524 759 L405 883 L276 883 L160 759 L267 759 Z M341 -15 C490 -15 606 76 606 247 L606 709 L486 709 L486 254 C486 154 432 99 341 99 C251 99 196 154 196 254 L196 709 L77 709 L77 247 C77 76 193 -15 341 -15 L341 -15 Z " />
<glyph glyph-name="Udieresis" unicode="&#xdc;" horiz-adv-x="683" d="M158 821 C158 784 186 755 224 755 C261 755 290 784 290 821 C290 858 261 888 224 888 C186 888 158 858 158 821 L158 821 Z M394 821 C394 784 422 755 460 755 C497 755 526 784 526 821 C526 858 497 888 460 888 C422 888 394 858 394 821 L394 821 Z M341 -15 C490 -15 606 76 606 247 L606 709 L486 709 L486 254 C486 154 432 99 341 99 C251 99 196 154 196 254 L196 709 L77 709 L77 247 C77 76 193 -15 341 -15 L341 -15 Z " />
<glyph glyph-name="Yacute" unicode="&#xdd;" horiz-adv-x="638" d="M258 300 L258 0 L378 0 L378 300 L628 709 L493 709 L322 412 L152 709 L10 709 L258 300 Z M494 883 L345 883 L243 759 L352 759 L494 883 Z " />
<glyph glyph-name="Thorn" unicode="&#xde;" horiz-adv-x="599" d="M205 251 L205 472 L330 472 C406 472 452 429 452 360 C452 294 406 251 330 251 L205 251 Z M343 147 C476 147 574 238 574 361 C574 484 476 576 342 576 L205 576 L205 709 L85 709 L85 0 L205 0 L205 147 L343 147 Z " />
<glyph glyph-name="germandbls" unicode="&#xdf;" horiz-adv-x="583" d="M381 343 C381 362 393 373 410 383 L434 398 C479 427 522 469 522 547 C522 645 437 724 305 724 C181 724 75 644 75 489 L75 0 L189 0 L189 482 C189 578 244 622 305 622 C373 622 407 584 407 542 C407 509 386 485 354 465 L329 448 C295 426 264 390 264 335 C264 258 322 226 371 205 L403 191 C437 176 453 157 453 128 C453 104 433 76 392 76 C339 76 322 120 321 149 L225 127 C226 69 271 -15 392 -15 C511 -15 563 69 563 136 C563 207 516 260 455 287 L422 302 C396 313 382 321 381 343 L381 343 Z " />
<glyph glyph-name="agrave" unicode="&#xe0;" horiz-adv-x="532" d="M45 132 C45 55 108 -15 210 -15 C289 -15 337 25 360 62 C360 23 364 3 365 0 L473 0 C472 5 467 34 467 78 L467 320 C467 417 410 502 260 502 C140 502 64 427 55 343 L161 319 C166 368 200 407 261 407 C325 407 353 374 353 333 C353 316 345 302 317 298 L192 279 C109 267 45 219 45 132 L45 132 Z M232 76 C186 76 161 106 161 139 C161 179 190 199 226 205 L353 224 L353 202 C353 107 297 76 232 76 L232 76 Z M230 548 L325 548 L237 696 L98 696 L230 548 Z " />
<glyph glyph-name="aacute" unicode="&#xe1;" horiz-adv-x="532" d="M45 132 C45 55 108 -15 210 -15 C289 -15 337 25 360 62 C360 23 364 3 365 0 L473 0 C472 5 467 34 467 78 L467 320 C467 417 410 502 260 502 C140 502 64 427 55 343 L161 319 C166 368 200 407 261 407 C325 407 353 374 353 333 C353 316 345 302 317 298 L192 279 C109 267 45 219 45 132 L45 132 Z M232 76 C186 76 161 106 161 139 C161 179 190 199 226 205 L353 224 L353 202 C353 107 297 76 232 76 L232 76 Z M422 696 L285 696 L196 548 L291 548 L422 696 Z " />
<glyph glyph-name="acircumflex" unicode="&#xe2;" horiz-adv-x="532" d="M45 132 C45 55 108 -15 210 -15 C289 -15 337 25 360 62 C360 23 364 3 365 0 L473 0 C472 5 467 34 467 78 L467 320 C467 417 410 502 260 502 C140 502 64 427 55 343 L161 319 C166 368 200 407 261 407 C325 407 353 374 353 333 C353 316 345 302 317 298 L192 279 C109 267 45 219 45 132 L45 132 Z M232 76 C186 76 161 106 161 139 C161 179 190 199 226 205 L353 224 L353 202 C353 107 297 76 232 76 L232 76 Z M193 549 L263 626 L333 549 L432 549 L324 692 L203 692 L96 549 L193 549 Z " />
<glyph glyph-name="atilde" unicode="&#xe3;" horiz-adv-x="532" d="M45 132 C45 55 108 -15 210 -15 C289 -15 337 25 360 62 C360 23 364 3 365 0 L473 0 C472 5 467 34 467 78 L467 320 C467 417 410 502 260 502 C140 502 64 427 55 343 L161 319 C166 368 200 407 261 407 C325 407 353 374 353 333 C353 316 345 302 317 298 L192 279 C109 267 45 219 45 132 L45 132 Z M232 76 C186 76 161 106 161 139 C161 179 190 199 226 205 L353 224 L353 202 C353 107 297 76 232 76 L232 76 Z M102 556 L178 556 C178 587 188 599 208 599 C223 599 236 592 251 583 L261 577 C281 565 303 554 332 554 C390 554 434 593 434 671 L434 688 L358 688 C358 657 347 644 327 644 C312 644 299 652 284 661 L274 667 C254 679 233 689 204 689 C146 689 101 652 101 574 L102 556 Z " />
<glyph glyph-name="adieresis" unicode="&#xe4;" horiz-adv-x="532" d="M45 132 C45 55 108 -15 210 -15 C289 -15 337 25 360 62 C360 23 364 3 365 0 L473 0 C472 5 467 34 467 78 L467 320 C467 417 410 502 260 502 C140 502 64 427 55 343 L161 319 C166 368 200 407 261 407 C325 407 353 374 353 333 C353 316 345 302 317 298 L192 279 C109 267 45 219 45 132 L45 132 Z M232 76 C186 76 161 106 161 139 C161 179 190 199 226 205 L353 224 L353 202 C353 107 297 76 232 76 L232 76 Z M99 625 C99 588 127 560 163 560 C200 560 229 588 229 625 C229 661 200 690 163 690 C127 690 99 661 99 625 L99 625 Z M299 625 C299 588 327 560 363 560 C399 560 428 588 428 625 C428 661 399 690 363 690 C327 690 299 661 299 625 L299 625 Z " />
<glyph glyph-name="aring" unicode="&#xe5;" horiz-adv-x="532" d="M45 132 C45 55 108 -15 210 -15 C289 -15 337 25 360 62 C360 23 364 3 365 0 L473 0 C472 5 467 34 467 78 L467 320 C467 417 410 502 260 502 C140 502 64 427 55 343 L161 319 C166 368 200 407 261 407 C325 407 353 374 353 333 C353 316 345 302 317 298 L192 279 C109 267 45 219 45 132 L45 132 Z M232 76 C186 76 161 106 161 139 C161 179 190 199 226 205 L353 224 L353 202 C353 107 297 76 232 76 L232 76 Z M373 648 C373 712 320 759 259 759 C199 759 146 712 146 648 C146 585 199 538 259 538 C320 538 373 585 373 648 L373 648 Z M303 648 C303 623 284 604 258 604 C234 604 215 623 215 648 C215 674 234 693 258 693 C284 693 303 674 303 648 L303 648 Z " />
<glyph glyph-name="ae" unicode="&#xe6;" horiz-adv-x="872" d="M731 171 C714 122 678 85 608 85 C536 85 477 137 474 212 L832 212 C833 221 834 238 834 249 C834 403 748 502 598 502 C536 502 476 476 433 431 C401 473 346 502 265 502 C153 502 63 430 55 343 L157 322 C162 368 201 408 264 408 C329 408 361 373 361 333 C361 318 354 302 324 298 L192 279 C109 267 45 219 45 132 C45 55 108 -15 224 -15 C324 -15 381 33 412 80 C457 19 529 -15 607 -15 C720 -15 803 54 829 139 L731 171 Z M236 76 C187 76 161 106 161 137 C161 177 188 200 226 205 L361 224 L361 201 C361 107 295 76 236 76 L236 76 Z M477 297 C481 349 523 405 597 405 C677 405 716 354 718 297 L477 297 Z " />
<glyph glyph-name="ccedilla" unicode="&#xe7;" horiz-adv-x="541" d="M255 -106 C263 -103 274 -101 283 -101 C309 -101 324 -115 324 -131 C324 -152 304 -161 280 -161 C245 -161 220 -139 207 -126 L166 -176 C185 -200 228 -224 281 -224 C369 -224 404 -179 404 -132 C404 -82 364 -49 307 -48 L330 -12 C433 3 492 76 513 144 L411 181 C400 144 365 91 289 91 C216 91 153 146 153 244 C153 342 216 395 287 395 C361 395 394 347 405 304 L509 342 C489 420 417 502 286 502 C146 502 37 394 37 244 C37 109 129 4 253 -12 L220 -63 L255 -106 Z " />
<glyph glyph-name="egrave" unicode="&#xe8;" horiz-adv-x="548" d="M156 297 C160 349 202 405 275 405 C355 405 393 354 395 297 L156 297 Z M408 170 C392 122 356 85 286 85 C214 85 156 138 153 212 L509 212 C510 214 512 230 512 249 C512 403 424 502 274 502 C151 502 37 400 37 246 C37 81 154 -15 286 -15 C403 -15 480 54 506 139 L408 170 Z M244 548 L339 548 L251 696 L112 696 L244 548 Z " />
<glyph glyph-name="eacute" unicode="&#xe9;" horiz-adv-x="548" d="M448 696 L311 696 L222 548 L317 548 L448 696 Z M156 297 C160 349 202 405 275 405 C355 405 393 354 395 297 L156 297 Z M408 170 C392 122 356 85 286 85 C214 85 156 138 153 212 L509 212 C510 214 512 230 512 249 C512 403 424 502 274 502 C151 502 37 400 37 246 C37 81 154 -15 286 -15 C403 -15 480 54 506 139 L408 170 Z " />
<glyph glyph-name="ecircumflex" unicode="&#xea;" horiz-adv-x="548" d="M210 549 L280 626 L350 549 L449 549 L341 692 L220 692 L113 549 L210 549 Z M156 297 C160 349 202 405 275 405 C355 405 393 354 395 297 L156 297 Z M408 170 C392 122 356 85 286 85 C214 85 156 138 153 212 L509 212 C510 214 512 230 512 249 C512 403 424 502 274 502 C151 502 37 400 37 246 C37 81 154 -15 286 -15 C403 -15 480 54 506 139 L408 170 Z " />
<glyph glyph-name="edieresis" unicode="&#xeb;" horiz-adv-x="548" d="M115 625 C115 588 143 560 179 560 C216 560 245 588 245 625 C245 661 216 690 179 690 C143 690 115 661 115 625 L115 625 Z M315 625 C315 588 343 560 379 560 C415 560 444 588 444 625 C444 661 415 690 379 690 C343 690 315 661 315 625 L315 625 Z M156 297 C160 349 202 405 275 405 C355 405 393 354 395 297 L156 297 Z M408 170 C392 122 356 85 286 85 C214 85 156 138 153 212 L509 212 C510 214 512 230 512 249 C512 403 424 502 274 502 C151 502 37 400 37 246 C37 81 154 -15 286 -15 C403 -15 480 54 506 139 L408 170 Z " />
<glyph glyph-name="igrave" unicode="&#xec;" horiz-adv-x="265" d="M190 0 L190 487 L75 487 L75 0 L190 0 Z M93 548 L188 548 L100 696 L-39 696 L93 548 Z " />
<glyph glyph-name="iacute" unicode="&#xed;" horiz-adv-x="265" d="M307 696 L170 696 L81 548 L176 548 L307 696 Z M190 0 L190 487 L75 487 L75 0 L190 0 Z " />
<glyph glyph-name="icircumflex" unicode="&#xee;" horiz-adv-x="265" d="M62 549 L132 626 L202 549 L301 549 L193 692 L72 692 L-35 549 L62 549 Z M190 0 L190 487 L75 487 L75 0 L190 0 Z " />
<glyph glyph-name="idieresis" unicode="&#xef;" horiz-adv-x="265" d="M-10 625 C-10 590 16 564 51 564 C86 564 113 590 113 625 C113 660 86 687 51 687 C16 687 -10 660 -10 625 L-10 625 Z M152 625 C152 590 179 564 213 564 C248 564 275 590 275 625 C275 660 248 687 213 687 C179 687 152 660 152 625 L152 625 Z M190 0 L190 487 L75 487 L75 0 L190 0 Z " />
<glyph glyph-name="eth" unicode="&#xf0;" horiz-adv-x="576" d="M495 629 L463 702 L351 651 C288 696 220 722 164 736 L128 647 C164 636 204 622 241 601 L149 559 L180 487 L315 548 C352 514 382 472 400 419 C375 448 325 463 273 463 C156 463 37 379 37 228 C37 89 143 -14 288 -14 C451 -14 540 113 540 270 C540 415 488 520 417 594 L495 629 Z M288 89 C217 89 152 139 152 229 C152 319 217 369 288 369 C360 369 423 321 423 229 C423 138 360 89 288 89 L288 89 Z " />
<glyph glyph-name="ntilde" unicode="&#xf1;" horiz-adv-x="574" d="M191 281 C191 345 226 396 292 396 C365 396 392 348 392 288 L392 0 L508 0 L508 308 C508 415 451 501 332 501 C278 501 220 478 188 422 L188 487 L75 487 L75 0 L191 0 L191 281 Z M133 556 L209 556 C209 587 219 599 239 599 C254 599 267 592 282 583 L292 577 C312 565 334 554 363 554 C421 554 465 593 465 671 L465 688 L389 688 C389 657 378 644 358 644 C343 644 330 652 315 661 L305 667 C285 679 264 689 235 689 C177 689 132 652 132 574 L133 556 Z " />
<glyph glyph-name="ograve" unicode="&#xf2;" horiz-adv-x="579" d="M289 89 C218 89 153 143 153 244 C153 345 218 397 289 397 C361 397 425 345 425 244 C425 142 361 89 289 89 L289 89 Z M289 502 C144 502 37 393 37 244 C37 94 144 -15 289 -15 C435 -15 542 94 542 244 C542 393 435 502 289 502 L289 502 Z M247 548 L342 548 L254 696 L115 696 L247 548 Z " />
<glyph glyph-name="oacute" unicode="&#xf3;" horiz-adv-x="579" d="M458 696 L321 696 L232 548 L327 548 L458 696 Z M289 89 C218 89 153 143 153 244 C153 345 218 397 289 397 C361 397 425 345 425 244 C425 142 361 89 289 89 L289 89 Z M289 502 C144 502 37 393 37 244 C37 94 144 -15 289 -15 C435 -15 542 94 542 244 C542 393 435 502 289 502 L289 502 Z " />
<glyph glyph-name="ocircumflex" unicode="&#xf4;" horiz-adv-x="579" d="M220 549 L290 626 L360 549 L459 549 L351 692 L230 692 L123 549 L220 549 Z M289 89 C218 89 153 143 153 244 C153 345 218 397 289 397 C361 397 425 345 425 244 C425 142 361 89 289 89 L289 89 Z M289 502 C144 502 37 393 37 244 C37 94 144 -15 289 -15 C435 -15 542 94 542 244 C542 393 435 502 289 502 L289 502 Z " />
<glyph glyph-name="otilde" unicode="&#xf5;" horiz-adv-x="579" d="M289 89 C218 89 153 143 153 244 C153 345 218 397 289 397 C361 397 425 345 425 244 C425 142 361 89 289 89 L289 89 Z M289 502 C144 502 37 393 37 244 C37 94 144 -15 289 -15 C435 -15 542 94 542 244 C542 393 435 502 289 502 L289 502 Z M126 556 L202 556 C202 587 212 599 232 599 C247 599 260 592 275 583 L285 577 C305 565 327 554 356 554 C414 554 458 593 458 671 L458 688 L382 688 C382 657 371 644 351 644 C336 644 323 652 308 661 L298 667 C278 679 257 689 228 689 C170 689 125 652 125 574 L126 556 Z " />
<glyph glyph-name="odieresis" unicode="&#xf6;" horiz-adv-x="579" d="M124 625 C124 588 152 560 188 560 C225 560 254 588 254 625 C254 661 225 690 188 690 C152 690 124 661 124 625 L124 625 Z M324 625 C324 588 352 560 388 560 C424 560 453 588 453 625 C453 661 424 690 388 690 C352 690 324 661 324 625 L324 625 Z M289 89 C218 89 153 143 153 244 C153 345 218 397 289 397 C361 397 425 345 425 244 C425 142 361 89 289 89 L289 89 Z M289 502 C144 502 37 393 37 244 C37 94 144 -15 289 -15 C435 -15 542 94 542 244 C542 393 435 502 289 502 L289 502 Z " />
<glyph glyph-name="divide" unicode="&#xf7;" horiz-adv-x="578" d="M215 111 C215 72 248 39 287 39 C327 39 359 72 359 111 C359 150 327 182 287 182 C248 182 215 150 215 111 L215 111 Z M215 472 C215 433 248 400 287 400 C327 400 359 433 359 472 C359 511 327 544 287 544 C248 544 215 511 215 472 L215 472 Z M52 242 L526 242 L526 341 L52 341 L52 242 Z " />
<glyph glyph-name="oslash" unicode="&#xf8;" horiz-adv-x="579" d="M289 502 C144 502 37 393 37 244 C37 174 60 113 100 68 L50 5 L113 -46 L163 17 C198 -3 239 -15 289 -15 C435 -15 542 94 542 244 C542 312 519 373 480 418 L532 483 L470 534 L418 469 C381 490 337 502 289 502 L289 502 Z M153 244 C153 345 218 397 289 397 C310 397 331 392 350 383 L172 159 C160 182 153 210 153 244 L153 244 Z M289 89 C268 89 248 93 230 102 L407 326 C418 304 425 276 425 244 C425 142 361 89 289 89 L289 89 Z " />
<glyph glyph-name="ugrave" unicode="&#xf9;" horiz-adv-x="577" d="M392 54 C392 34 394 11 396 0 L507 0 C505 18 502 49 502 89 L502 487 L386 487 L386 199 C386 135 351 90 284 90 C214 90 186 141 186 201 L186 487 L70 487 L70 180 C70 72 138 -14 254 -14 C311 -14 368 10 392 54 L392 54 Z M257 548 L352 548 L264 696 L125 696 L257 548 Z " />
<glyph glyph-name="uacute" unicode="&#xfa;" horiz-adv-x="577" d="M435 696 L298 696 L209 548 L304 548 L435 696 Z M392 54 C392 34 394 11 396 0 L507 0 C505 18 502 49 502 89 L502 487 L386 487 L386 199 C386 135 351 90 284 90 C214 90 186 141 186 201 L186 487 L70 487 L70 180 C70 72 138 -14 254 -14 C311 -14 368 10 392 54 L392 54 Z " />
<glyph glyph-name="ucircumflex" unicode="&#xfb;" horiz-adv-x="577" d="M216 549 L286 626 L356 549 L455 549 L347 692 L226 692 L119 549 L216 549 Z M392 54 C392 34 394 11 396 0 L507 0 C505 18 502 49 502 89 L502 487 L386 487 L386 199 C386 135 351 90 284 90 C214 90 186 141 186 201 L186 487 L70 487 L70 180 C70 72 138 -14 254 -14 C311 -14 368 10 392 54 L392 54 Z " />
<glyph glyph-name="udieresis" unicode="&#xfc;" horiz-adv-x="577" d="M122 625 C122 588 150 560 186 560 C223 560 252 588 252 625 C252 661 223 690 186 690 C150 690 122 661 122 625 L122 625 Z M322 625 C322 588 350 560 386 560 C422 560 451 588 451 625 C451 661 422 690 386 690 C350 690 322 661 322 625 L322 625 Z M392 54 C392 34 394 11 396 0 L507 0 C505 18 502 49 502 89 L502 487 L386 487 L386 199 C386 135 351 90 284 90 C214 90 186 141 186 201 L186 487 L70 487 L70 180 C70 72 138 -14 254 -14 C311 -14 368 10 392 54 L392 54 Z " />
<glyph glyph-name="yacute" unicode="&#xfd;" horiz-adv-x="543" d="M223 -197 L533 487 L410 487 L279 179 L139 487 L8 487 L216 58 L99 -197 L223 -197 Z M431 696 L294 696 L205 548 L300 548 L431 696 Z " />
<glyph glyph-name="thorn" unicode="&#xfe;" horiz-adv-x="604" d="M190 -190 L190 55 C215 18 268 -12 338 -12 C478 -12 567 98 567 244 C567 388 486 498 342 498 C271 498 217 466 191 427 L191 724 L75 724 L75 -190 L190 -190 Z M451 244 C451 151 397 91 320 91 C244 91 189 151 189 244 C189 335 244 395 320 395 C398 395 451 335 451 244 L451 244 Z " />
<glyph glyph-name="ydieresis" unicode="&#xff;" horiz-adv-x="543" d="M223 -197 L533 487 L410 487 L279 179 L139 487 L8 487 L216 58 L99 -197 L223 -197 Z M108 625 C108 588 136 560 172 560 C209 560 238 588 238 625 C238 661 209 690 172 690 C136 690 108 661 108 625 L108 625 Z M308 625 C308 588 336 560 372 560 C408 560 437 588 437 625 C437 661 408 690 372 690 C336 690 308 661 308 625 L308 625 Z " />
<glyph glyph-name="dotlessi" unicode="&#x131;" horiz-adv-x="265" d="M190 0 L190 487 L75 487 L75 0 L190 0 Z " />
<glyph glyph-name="Lslash" unicode="&#x141;" horiz-adv-x="572" d="M547 0 L547 114 L222 114 L222 327 L381 398 L381 498 L222 427 L222 709 L102 709 L102 373 L8 331 L8 231 L102 273 L102 0 L547 0 Z " />
<glyph glyph-name="lslash" unicode="&#x142;" horiz-adv-x="309" d="M211 0 L211 316 L301 357 L301 457 L211 417 L211 724 L95 724 L95 365 L8 326 L8 225 L95 264 L95 0 L211 0 Z " />
<glyph glyph-name="OE" unicode="&#x152;" horiz-adv-x="1136" d="M1078 0 L1078 112 L760 112 L760 300 L1048 300 L1048 409 L760 409 L760 597 L1077 597 L1077 709 L640 709 L640 627 C580 690 496 724 402 724 C216 724 42 587 42 355 C42 122 216 -15 402 -15 C496 -15 580 19 640 81 L640 0 L1078 0 Z M165 355 C165 526 283 611 402 611 C522 611 640 526 640 355 C640 184 522 99 402 99 C283 99 165 184 165 355 L165 355 Z " />
<glyph glyph-name="oe" unicode="&#x153;" horiz-adv-x="937" d="M289 502 C144 502 37 393 37 244 C37 94 144 -15 289 -15 C369 -15 438 18 483 73 C530 16 600 -15 675 -15 C792 -15 869 54 895 139 L797 170 C781 122 745 85 675 85 C603 85 545 138 542 212 L898 212 C899 214 901 230 901 249 C901 403 813 502 663 502 C593 502 526 468 483 415 C437 470 369 502 289 502 L289 502 Z M289 89 C218 89 153 143 153 244 C153 345 218 397 289 397 C361 397 425 345 425 244 C425 142 361 89 289 89 L289 89 Z M545 297 C549 349 591 405 664 405 C744 405 782 354 784 297 L545 297 Z " />
<glyph glyph-name="Scaron" unicode="&#x160;" horiz-adv-x="599" d="M127 883 L243 759 L372 759 L491 883 L383 883 L308 818 L236 883 L127 883 Z M551 543 C535 622 470 724 303 724 C171 724 62 626 62 507 C62 401 134 330 242 308 L342 287 C403 274 437 237 437 191 C437 136 393 93 308 93 C206 93 153 161 146 235 L34 203 C45 101 128 -15 308 -15 C470 -15 559 90 559 200 C559 300 492 379 367 404 L265 425 C210 437 182 471 182 516 C182 570 232 618 304 618 C399 618 436 553 443 509 L551 543 Z " />
<glyph glyph-name="scaron" unicode="&#x161;" horiz-adv-x="457" d="M61 694 L167 549 L291 549 L397 694 L299 694 L229 617 L159 694 L61 694 Z M32 132 C38 77 92 -15 233 -15 C357 -15 417 67 417 141 C417 213 369 269 277 289 L203 304 C173 310 154 329 154 355 C154 385 183 411 224 411 C289 411 310 366 314 338 L412 366 C404 414 360 502 224 502 C123 502 45 430 45 345 C45 278 90 222 176 203 L248 187 C287 179 305 159 305 133 C305 103 280 77 232 77 C170 77 137 116 133 160 L32 132 Z " />
<glyph glyph-name="Ydieresis" unicode="&#x178;" horiz-adv-x="638" d="M135 821 C135 784 163 755 201 755 C238 755 267 784 267 821 C267 858 238 888 201 888 C163 888 135 858 135 821 L135 821 Z M374 821 C374 784 403 755 440 755 C477 755 507 784 507 821 C507 858 477 888 440 888 C403 888 374 858 374 821 L374 821 Z M258 300 L258 0 L378 0 L378 300 L628 709 L493 709 L322 412 L152 709 L10 709 L258 300 Z " />
<glyph glyph-name="Zcaron" unicode="&#x17d;" horiz-adv-x="636" d="M143 883 L259 759 L388 759 L507 883 L399 883 L324 818 L252 883 L143 883 Z M595 0 L595 114 L192 114 L590 595 L590 709 L53 709 L53 596 L435 596 L42 118 L42 0 L595 0 Z " />
<glyph glyph-name="zcaron" unicode="&#x17e;" horiz-adv-x="474" d="M73 694 L179 549 L303 549 L409 694 L311 694 L241 617 L171 694 L73 694 Z M436 0 L436 102 L181 102 L431 389 L431 487 L43 487 L43 385 L285 385 L38 101 L38 0 L436 0 Z " />
<glyph glyph-name="florin" unicode="&#x192;" horiz-adv-x="498" d="M120 24 C106 -49 62 -59 31 -59 C6 -59 -14 -56 -30 -52 L-30 -153 C-6 -160 11 -165 55 -165 C132 -165 211 -120 232 -13 L313 388 L455 388 L455 487 L333 487 L346 551 C361 625 405 635 436 635 C458 635 477 632 493 627 L493 728 C470 735 454 740 411 740 C334 740 256 695 234 588 L213 487 L90 487 L90 388 L193 388 L120 24 Z " />
<glyph glyph-name="circumflex" unicode="&#x2c6;" horiz-adv-x="396" d="M127 549 L197 626 L267 549 L366 549 L258 692 L137 692 L30 549 L127 549 Z " />
<glyph glyph-name="caron" unicode="&#x2c7;" horiz-adv-x="396" d="M30 694 L136 549 L260 549 L366 694 L268 694 L198 617 L128 694 L30 694 Z " />
<glyph glyph-name="uni02C9" unicode="&#x2c9;" horiz-adv-x="338" d="M308 577 L308 667 L30 667 L30 577 L308 577 Z " />
<glyph glyph-name="breve" unicode="&#x2d8;" horiz-adv-x="369" d="M184 547 C286 547 337 619 339 694 L257 694 C255 666 235 633 184 633 C134 633 114 665 112 694 L30 694 C32 619 84 547 184 547 L184 547 Z " />
<glyph glyph-name="dotaccent" unicode="&#x2d9;" horiz-adv-x="184" d="M20 622 C20 583 52 551 92 551 C132 551 164 583 164 622 C164 662 132 694 92 694 C52 694 20 662 20 622 L20 622 Z " />
<glyph glyph-name="ring" unicode="&#x2da;" horiz-adv-x="287" d="M257 645 C257 709 204 756 143 756 C83 756 30 709 30 645 C30 582 83 535 143 535 C204 535 257 582 257 645 L257 645 Z M187 645 C187 620 168 601 142 601 C118 601 99 620 99 645 C99 671 118 690 142 690 C168 690 187 671 187 645 L187 645 Z " />
<glyph glyph-name="ogonek" unicode="&#x2db;" horiz-adv-x="228" d="M147 -220 C171 -220 185 -217 198 -212 L198 -138 C188 -140 178 -141 167 -141 C140 -141 116 -127 116 -95 C116 -50 160 -18 198 0 L130 16 C85 -4 28 -41 28 -116 C28 -180 80 -220 147 -220 L147 -220 Z " />
<glyph glyph-name="tilde" unicode="&#x2dc;" horiz-adv-x="385" d="M27 556 L103 556 C103 587 113 599 133 599 C148 599 161 592 176 583 L186 577 C206 565 228 554 257 554 C315 554 359 593 359 671 L359 688 L283 688 C283 657 272 644 252 644 C237 644 224 652 209 661 L199 667 C179 679 158 689 129 689 C71 689 26 652 26 574 L27 556 Z " />
<glyph glyph-name="hungarumlaut" unicode="&#x2dd;" horiz-adv-x="383" d="M199 696 L81 696 L29 548 L105 548 L199 696 Z M354 696 L235 696 L171 548 L247 548 L354 696 Z " />
<glyph glyph-name="uni0394" unicode="&#x394;" horiz-adv-x="678" d="M0 0 L678 0 L403 709 L274 709 L0 0 Z M338 576 L510 111 L167 111 L338 576 Z " />
<glyph glyph-name="uni03A9" unicode="&#x3a9;" horiz-adv-x="788" d="M394 614 C506 614 620 535 620 391 C620 264 525 183 433 164 L433 0 L737 0 L737 109 L548 109 C648 148 743 251 743 396 C743 600 577 724 394 724 C211 724 45 600 45 396 C45 251 140 148 240 109 L51 109 L51 0 L355 0 L355 164 C263 183 168 264 168 391 C168 535 282 614 394 614 L394 614 Z " />
<glyph glyph-name="uni03BC" unicode="&#x3bc;" horiz-adv-x="584" d="M397 54 C397 34 399 11 401 0 L512 0 C509 27 507 58 507 89 L507 487 L391 487 L391 199 C391 135 356 90 289 90 C219 90 191 141 191 201 L191 487 L75 487 L75 -190 L191 -190 L191 -2 C211 -10 234 -14 259 -14 C316 -14 373 10 397 54 L397 54 Z " />
<glyph glyph-name="pi" unicode="&#x3c0;" horiz-adv-x="628" d="M582 5 L582 95 C573 92 565 91 551 91 C524 91 500 103 500 139 L500 387 L580 387 L580 487 L40 487 L40 387 L123 387 L123 0 L238 0 L238 387 L385 387 L385 125 C385 51 427 -8 517 -8 C553 -8 574 2 582 5 L582 5 Z " />
<glyph glyph-name="uni2007" unicode="&#x2007;" horiz-adv-x="619" d="" />
<glyph glyph-name="uni2008" unicode="&#x2008;" horiz-adv-x="296" d="" />
<glyph glyph-name="uni200B" unicode="&#x200b;" d="" />
<glyph glyph-name="endash" unicode="&#x2013;" horiz-adv-x="641" d="M577 242 L577 343 L63 343 L63 242 L577 242 Z " />
<glyph glyph-name="emdash" unicode="&#x2014;" horiz-adv-x="1092" d="M1019 242 L1019 343 L73 343 L73 242 L1019 242 Z " />
<glyph glyph-name="quoteleft" unicode="&#x2018;" horiz-adv-x="226" d="M190 509 C190 549 162 576 123 576 C113 576 104 572 102 571 C104 614 140 652 181 660 L181 715 C121 709 37 659 37 534 C37 479 70 443 117 443 C159 443 190 473 190 509 L190 509 Z " />
<glyph glyph-name="quoteright" unicode="&#x2019;" horiz-adv-x="230" d="M37 649 C37 608 65 580 105 580 C115 580 124 584 126 585 C124 540 87 501 46 493 L46 438 C107 444 194 494 194 624 C194 679 159 717 111 717 C68 717 37 685 37 649 L37 649 Z " />
<glyph glyph-name="quotesinglbase" unicode="&#x201a;" horiz-adv-x="230" d="M37 65 C37 24 65 -3 105 -3 C115 -3 124 0 126 2 C124 -44 87 -83 46 -90 L46 -146 C107 -139 194 -89 194 40 C194 96 159 133 111 133 C68 133 37 102 37 65 L37 65 Z " />
<glyph glyph-name="quotedblleft" unicode="&#x201c;" horiz-adv-x="412" d="M375 512 C375 552 348 579 308 579 C298 579 290 575 288 574 C290 617 326 656 366 663 L366 718 C307 712 222 662 222 537 C222 482 256 446 302 446 C344 446 375 476 375 512 L375 512 Z M190 512 C190 552 162 579 123 579 C113 579 104 575 102 574 C104 617 140 656 181 663 L181 718 C121 712 37 662 37 537 C37 482 70 446 117 446 C159 446 190 476 190 512 L190 512 Z " />
<glyph glyph-name="quotedblright" unicode="&#x201d;" horiz-adv-x="411" d="M37 648 C37 608 64 582 103 582 C113 582 122 585 124 587 C122 542 86 505 45 497 L45 443 C105 450 190 498 190 624 C190 679 156 715 109 715 C67 715 37 685 37 648 L37 648 Z M221 648 C221 608 249 582 288 582 C298 582 306 585 308 587 C307 542 271 505 230 497 L230 443 C289 450 374 498 374 624 C374 679 340 715 294 715 C252 715 221 685 221 648 L221 648 Z " />
<glyph glyph-name="quotedblbase" unicode="&#x201e;" horiz-adv-x="411" d="M37 63 C37 23 64 -3 103 -3 C113 -3 122 0 124 2 C122 -43 86 -80 45 -88 L45 -142 C105 -135 190 -87 190 39 C190 94 156 130 109 130 C67 130 37 100 37 63 L37 63 Z M221 63 C221 23 249 -3 288 -3 C298 -3 306 0 308 2 C307 -43 271 -80 230 -88 L230 -142 C289 -135 374 -87 374 39 C374 94 340 130 294 130 C252 130 221 100 221 63 L221 63 Z " />
<glyph glyph-name="dagger" unicode="&#x2020;" horiz-adv-x="401" d="M250 162 L250 470 L374 470 L374 564 L250 564 L250 709 L151 709 L151 564 L27 564 L27 470 L151 470 L151 162 L250 162 Z " />
<glyph glyph-name="daggerdbl" unicode="&#x2021;" horiz-adv-x="441" d="M47 239 L47 146 L171 146 L171 0 L270 0 L270 146 L394 146 L394 239 L270 239 L270 470 L394 470 L394 563 L270 563 L270 709 L171 709 L171 563 L47 563 L47 470 L171 470 L171 239 L47 239 Z " />
<glyph glyph-name="bullet" unicode="&#x2022;" horiz-adv-x="542" d="M63 294 C63 181 157 87 271 87 C385 87 479 181 479 294 C479 410 385 503 271 503 C157 503 63 410 63 294 L63 294 Z " />
<glyph glyph-name="ellipsis" unicode="&#x2026;" horiz-adv-x="926" d="M844 65 C844 106 812 139 771 139 C730 139 697 106 697 65 C697 25 730 -8 771 -8 C812 -8 844 25 844 65 L844 65 Z M536 65 C536 106 504 139 463 139 C422 139 389 106 389 65 C389 25 422 -8 463 -8 C504 -8 536 25 536 65 L536 65 Z M229 65 C229 106 196 139 155 139 C115 139 82 106 82 65 C82 25 115 -8 155 -8 C196 -8 229 25 229 65 L229 65 Z " />
<glyph glyph-name="perthousand" unicode="&#x2030;" horiz-adv-x="1070" d="M141 497 C141 539 172 570 212 570 C253 570 283 539 283 497 C283 453 253 423 212 423 C172 423 141 453 141 497 L141 497 Z M49 497 C49 406 123 336 212 336 C301 336 376 405 376 497 C376 587 301 657 212 657 C124 657 49 587 49 497 L49 497 Z M559 152 C559 194 591 225 631 225 C672 225 702 194 702 152 C702 108 672 78 631 78 C591 78 559 108 559 152 L559 152 Z M244 0 L705 648 L601 648 L139 0 L244 0 Z M792 152 C792 194 823 225 863 225 C904 225 935 194 935 152 C935 108 904 78 863 78 C823 78 792 108 792 152 L792 152 Z M467 152 C467 61 542 -9 630 -9 C679 -9 720 12 747 46 C774 12 814 -9 863 -9 C952 -9 1028 60 1028 152 C1028 242 952 312 863 312 C814 312 774 291 747 257 C720 291 680 312 631 312 C542 312 467 242 467 152 L467 152 Z " />
<glyph glyph-name="guilsinglleft" unicode="&#x2039;" horiz-adv-x="293" d="M274 100 L141 292 L275 487 L164 487 L28 293 L163 100 L274 100 Z " />
<glyph glyph-name="guilsinglright" unicode="&#x203a;" horiz-adv-x="293" d="M130 100 L265 293 L130 487 L18 487 L152 292 L19 100 L130 100 Z " />
<glyph glyph-name="uni2042" unicode="&#x2042;" horiz-adv-x="836" d="M458 708 L375 708 L375 593 L270 629 L245 553 L352 518 L284 428 L350 381 L416 473 L487 380 L551 427 L482 518 L589 553 L564 629 L458 594 L458 708 Z M248 317 L165 317 L165 202 L60 238 L35 162 L142 127 L74 37 L140 -10 L206 82 L277 -11 L341 36 L272 127 L379 162 L354 238 L248 203 L248 317 Z M672 317 L589 317 L589 202 L484 238 L459 162 L566 127 L498 37 L564 -10 L630 82 L701 -11 L765 36 L696 127 L803 162 L778 238 L672 203 L672 317 Z " />
<glyph glyph-name="fraction" unicode="&#x2044;" horiz-adv-x="566" d="M105 0 L566 648 L462 648 L0 0 L105 0 Z " />
<glyph glyph-name="uni2051" unicode="&#x2051;" horiz-adv-x="426" d="M254 708 L171 708 L171 593 L66 629 L41 553 L148 518 L80 428 L146 381 L212 473 L283 380 L347 427 L278 518 L385 553 L360 629 L254 594 L254 708 Z M254 319 L171 319 L171 204 L66 240 L41 164 L148 129 L80 39 L146 -8 L212 84 L283 -9 L347 38 L278 129 L385 164 L360 240 L254 205 L254 319 Z " />
<glyph glyph-name="uni2070" unicode="&#x2070;" horiz-adv-x="431" d="M147 526 C147 579 156 641 215 641 C275 641 283 578 283 526 C283 474 275 412 215 412 C156 412 147 474 147 526 L147 526 Z M55 526 C55 437 90 336 215 336 C341 336 376 439 376 526 C376 615 340 717 215 717 C92 717 55 617 55 526 L55 526 Z " />
<glyph glyph-name="uni2074" unicode="&#x2074;" horiz-adv-x="443" d="M55 414 L236 414 L236 343 L326 343 L326 414 L388 414 L388 487 L326 487 L326 709 L227 709 L55 502 L55 414 Z M236 487 L133 487 L236 612 L236 487 Z " />
<glyph glyph-name="uni2075" unicode="&#x2075;" horiz-adv-x="404" d="M55 439 C66 384 123 336 200 336 C296 336 349 395 349 467 C349 541 299 586 223 586 C196 586 168 578 151 561 L170 634 L328 634 L328 709 L114 709 L67 521 L141 497 C155 511 175 521 199 521 C234 521 259 503 259 465 C259 431 235 412 200 412 C167 412 140 432 134 464 L55 439 Z " />
<glyph glyph-name="uni2076" unicode="&#x2076;" horiz-adv-x="418" d="M347 699 C323 710 291 717 259 717 C144 717 55 635 55 503 C55 392 130 335 211 335 C299 335 363 388 363 466 C363 545 308 588 233 588 C198 588 164 573 146 551 C159 614 208 643 265 643 C288 643 310 639 329 631 L347 699 Z M151 464 C151 499 181 520 212 520 C243 520 272 499 272 464 C272 429 243 409 212 409 C181 409 151 429 151 464 L151 464 Z " />
<glyph glyph-name="uni2077" unicode="&#x2077;" horiz-adv-x="413" d="M358 709 L55 709 L55 633 L246 633 C246 633 130 532 114 343 L210 343 C227 523 323 606 358 632 L358 709 Z " />
<glyph glyph-name="uni2078" unicode="&#x2078;" horiz-adv-x="415" d="M208 562 C176 562 157 581 157 605 C157 626 175 645 208 645 C241 645 258 626 258 605 C258 581 240 562 208 562 L208 562 Z M208 408 C167 408 147 428 147 454 C147 478 168 498 208 498 C248 498 268 478 268 454 C268 428 249 408 208 408 L208 408 Z M208 335 C305 335 359 382 359 446 C359 483 330 517 288 531 C326 545 347 578 347 612 C347 673 293 717 208 717 C123 717 68 673 68 612 C68 578 89 545 128 531 C85 517 57 483 57 444 C57 381 112 335 208 335 L208 335 Z " />
<glyph glyph-name="uni2079" unicode="&#x2079;" horiz-adv-x="417" d="M74 352 C98 341 131 335 163 335 C279 335 362 413 362 554 C362 662 287 717 207 717 C118 717 55 663 55 586 C55 508 115 464 186 464 C221 464 256 479 274 501 C264 435 212 409 153 409 C131 409 110 415 91 422 L74 352 Z M265 587 C265 552 237 531 204 531 C172 531 144 552 144 587 C144 622 172 643 204 643 C237 643 265 622 265 587 L265 587 Z " />
<glyph glyph-name="uni2080" unicode="&#x2080;" horiz-adv-x="431" d="M147 110 C147 163 156 225 215 225 C275 225 283 162 283 110 C283 58 275 -4 215 -4 C156 -4 147 58 147 110 L147 110 Z M55 110 C55 21 90 -80 215 -80 C341 -80 376 23 376 110 C376 199 340 301 215 301 C92 301 55 201 55 110 L55 110 Z " />
<glyph glyph-name="uni2081" unicode="&#x2081;" horiz-adv-x="305" d="M223 -90 L223 276 L141 276 C134 240 100 204 43 203 L43 143 L132 143 L132 -90 L223 -90 Z " />
<glyph glyph-name="uni2082" unicode="&#x2082;" horiz-adv-x="392" d="M146 134 C144 142 143 153 143 158 C143 189 163 210 195 210 C228 210 244 188 244 166 C244 145 230 126 203 110 L143 74 C80 36 56 -15 56 -78 L56 -90 L337 -90 L337 -14 L168 -14 C170 -5 178 4 188 11 L259 54 C306 82 334 118 334 165 C334 229 284 284 197 284 C108 284 59 228 59 163 C59 154 60 143 62 133 L146 134 Z " />
<glyph glyph-name="uni2083" unicode="&#x2083;" horiz-adv-x="412" d="M55 12 C65 -43 116 -97 205 -97 C298 -97 356 -41 356 26 C356 91 312 130 253 136 L347 205 L347 277 L68 277 L68 202 L232 202 L141 133 L173 72 C183 76 192 78 204 78 C235 78 265 64 265 27 C265 0 241 -22 204 -22 C167 -22 140 3 135 36 L55 12 Z " />
<glyph glyph-name="uni2084" unicode="&#x2084;" horiz-adv-x="443" d="M55 -19 L236 -19 L236 -90 L326 -90 L326 -19 L388 -19 L388 54 L326 54 L326 276 L227 276 L55 69 L55 -19 Z M236 54 L133 54 L236 179 L236 54 Z " />
<glyph glyph-name="uni2085" unicode="&#x2085;" horiz-adv-x="404" d="M55 6 C66 -49 123 -97 200 -97 C296 -97 349 -38 349 34 C349 108 299 153 223 153 C196 153 168 145 151 128 L170 201 L328 201 L328 276 L114 276 L67 88 L141 64 C155 78 175 88 199 88 C234 88 259 70 259 32 C259 -2 235 -21 200 -21 C167 -21 140 -1 134 31 L55 6 Z " />
<glyph glyph-name="uni2086" unicode="&#x2086;" horiz-adv-x="418" d="M347 267 C323 278 291 285 259 285 C144 285 55 203 55 71 C55 -40 130 -97 211 -97 C299 -97 363 -44 363 34 C363 113 308 156 233 156 C198 156 164 141 146 119 C159 182 208 211 265 211 C288 211 310 207 329 199 L347 267 Z M151 32 C151 67 181 88 212 88 C243 88 272 67 272 32 C272 -3 243 -23 212 -23 C181 -23 151 -3 151 32 L151 32 Z " />
<glyph glyph-name="uni2087" unicode="&#x2087;" horiz-adv-x="413" d="M358 276 L55 276 L55 200 L246 200 C246 200 130 99 114 -90 L210 -90 C227 90 323 173 358 199 L358 276 Z " />
<glyph glyph-name="uni2088" unicode="&#x2088;" horiz-adv-x="415" d="M208 129 C176 129 157 148 157 172 C157 193 175 212 208 212 C241 212 258 193 258 172 C258 148 240 129 208 129 L208 129 Z M208 -25 C167 -25 147 -5 147 21 C147 45 168 65 208 65 C248 65 268 45 268 21 C268 -5 249 -25 208 -25 L208 -25 Z M208 -98 C305 -98 359 -51 359 13 C359 50 330 84 288 98 C326 112 347 145 347 179 C347 240 293 284 208 284 C123 284 68 240 68 179 C68 145 89 112 128 98 C85 84 57 50 57 11 C57 -52 112 -98 208 -98 L208 -98 Z " />
<glyph glyph-name="uni2089" unicode="&#x2089;" horiz-adv-x="417" d="M74 -80 C98 -91 131 -97 163 -97 C279 -97 362 -19 362 122 C362 230 287 285 207 285 C118 285 55 231 55 154 C55 76 115 32 186 32 C221 32 256 47 274 69 C264 3 212 -23 153 -23 C131 -23 110 -17 91 -10 L74 -80 Z M265 155 C265 120 237 99 204 99 C172 99 144 120 144 155 C144 190 172 211 204 211 C237 211 265 190 265 155 L265 155 Z " />
<glyph glyph-name="Euro" unicode="&#x20ac;" horiz-adv-x="683" d="M63 287 L63 199 L158 199 C206 61 333 -15 468 -15 C548 -15 616 13 663 53 L607 139 C573 107 524 91 468 91 C390 91 320 126 283 199 L444 199 L485 287 L259 287 C258 294 257 306 257 324 C257 340 258 351 259 359 L515 359 L557 446 L282 446 C319 523 392 559 469 559 C518 559 561 548 594 524 L640 617 C595 648 539 663 469 663 C335 663 205 586 157 446 L63 446 L63 359 L140 359 C139 349 138 339 138 323 C138 310 139 296 140 287 L63 287 Z " />
<glyph glyph-name="uni2113" unicode="&#x2113;" horiz-adv-x="419" d="M32 266 L32 162 C56 166 78 171 100 178 L100 156 C100 62 158 -5 268 -5 C340 -5 365 21 368 25 L368 125 C363 121 336 98 278 98 C244 98 210 120 210 176 L210 228 C322 299 387 408 387 508 C387 607 333 664 244 664 C160 664 100 602 100 501 L100 290 C66 274 39 267 32 266 L32 266 Z M278 511 C278 445 248 396 210 359 L210 504 C210 549 227 563 245 563 C268 563 278 546 278 511 L278 511 Z " />
<glyph glyph-name="trademark" unicode="&#x2122;" horiz-adv-x="868" d="M332 632 L332 709 L32 709 L32 632 L139 632 L139 344 L225 344 L225 632 L332 632 Z M808 344 L808 709 L697 709 L602 477 L505 709 L390 709 L390 344 L474 344 L474 568 L567 344 L631 344 L726 571 L726 344 L808 344 Z " />
<glyph glyph-name="Omega" unicode="&#x2126;" horiz-adv-x="788" d="M394 614 C506 614 620 535 620 391 C620 264 525 183 433 164 L433 0 L737 0 L737 109 L548 109 C648 148 743 251 743 396 C743 600 577 724 394 724 C211 724 45 600 45 396 C45 251 140 148 240 109 L51 109 L51 0 L355 0 L355 164 C263 183 168 264 168 391 C168 535 282 614 394 614 L394 614 Z " />
<glyph glyph-name="uni2160" unicode="&#x2160;" horiz-adv-x="501" d="M451 648 L50 648 L50 544 L192 544 L192 104 L50 104 L50 0 L451 0 L451 104 L310 104 L310 544 L451 544 L451 648 Z " />
<glyph glyph-name="uni2161" unicode="&#x2161;" horiz-adv-x="779" d="M729 104 L591 104 L591 544 L729 544 L729 648 L50 648 L50 544 L188 544 L188 104 L50 104 L50 0 L729 0 L729 104 Z M472 104 L307 104 L307 544 L472 544 L472 104 Z " />
<glyph glyph-name="uni2162" unicode="&#x2162;" horiz-adv-x="1053" d="M1003 104 L865 104 L865 544 L1003 544 L1003 648 L50 648 L50 544 L188 544 L188 104 L50 104 L50 0 L1003 0 L1003 104 Z M746 104 L586 104 L586 544 L746 544 L746 104 Z M307 544 L467 544 L467 104 L307 104 L307 544 Z " />
<glyph glyph-name="uni2163" unicode="&#x2163;" horiz-adv-x="1032" d="M982 104 L723 104 L869 544 L981 544 L981 648 L50 648 L50 544 L181 544 L181 104 L50 104 L50 0 L982 0 L982 104 Z M299 544 L379 544 L525 104 L299 104 L299 544 Z M626 155 L504 544 L748 544 L626 155 Z " />
<glyph glyph-name="uni2164" unicode="&#x2164;" horiz-adv-x="806" d="M756 648 L50 648 L50 544 L156 544 L303 104 L53 104 L53 0 L753 0 L753 104 L501 104 L647 544 L756 544 L756 648 Z M404 155 L282 544 L526 544 L404 155 Z " />
<glyph glyph-name="uni2165" unicode="&#x2165;" horiz-adv-x="1030" d="M980 104 L849 104 L849 544 L980 544 L980 648 L50 648 L50 544 L159 544 L306 104 L50 104 L50 0 L980 0 L980 104 Z M652 544 L731 544 L731 104 L504 104 L652 544 Z M407 155 L284 544 L530 544 L407 155 Z " />
<glyph glyph-name="uni2166" unicode="&#x2166;" horiz-adv-x="1313" d="M1263 104 L1125 104 L1125 544 L1263 544 L1263 648 L50 648 L50 544 L159 544 L305 104 L50 104 L50 0 L1263 0 L1263 104 Z M1007 104 L849 104 L849 544 L1007 544 L1007 104 Z M651 544 L730 544 L730 104 L503 104 L651 544 Z M406 155 L284 544 L529 544 L406 155 Z " />
<glyph glyph-name="uni2167" unicode="&#x2167;" horiz-adv-x="1570" d="M1520 104 L1386 104 L1386 544 L1520 544 L1520 648 L50 648 L50 544 L160 544 L303 104 L50 104 L50 0 L1520 0 L1520 104 Z M644 544 L726 544 L726 104 L500 104 L644 544 Z M1115 544 L1268 544 L1268 104 L1115 104 L1115 544 Z M845 544 L997 544 L997 104 L845 104 L845 544 Z M404 155 L284 544 L523 544 L404 155 Z " />
<glyph glyph-name="uni2168" unicode="&#x2168;" horiz-adv-x="1004" d="M954 104 L843 104 L688 318 L849 544 L953 544 L953 648 L50 648 L50 544 L181 544 L181 104 L50 104 L50 0 L954 0 L954 104 Z M544 319 L386 104 L299 104 L299 544 L382 544 L544 319 Z M521 544 L712 544 L616 406 L521 544 Z M614 233 L704 104 L523 104 L614 233 Z " />
<glyph glyph-name="uni2169" unicode="&#x2169;" horiz-adv-x="774" d="M724 648 L50 648 L50 544 L153 544 L315 319 L157 104 L50 104 L50 0 L724 0 L724 104 L613 104 L458 318 L619 544 L724 544 L724 648 Z M292 544 L483 544 L387 406 L292 544 Z M385 233 L475 104 L293 104 L385 233 Z " />
<glyph glyph-name="uni216C" unicode="&#x216c;" horiz-adv-x="656" d="M606 287 L491 287 L491 104 L292 104 L292 544 L425 544 L425 648 L50 648 L50 544 L173 544 L173 104 L50 104 L50 0 L606 0 L606 287 Z " />
<glyph glyph-name="uni216D" unicode="&#x216d;" horiz-adv-x="730" d="M680 239 L563 239 C556 176 505 93 379 93 C266 93 167 170 167 324 C167 484 269 558 378 558 C494 558 550 490 559 416 L676 416 L676 650 L559 650 L559 589 C521 633 463 664 375 664 C206 664 50 536 50 324 C50 114 204 -15 376 -15 C466 -15 524 18 563 64 L563 0 L680 0 L680 239 Z " />
<glyph glyph-name="uni216E" unicode="&#x216e;" horiz-adv-x="739" d="M381 648 L50 648 L50 544 L178 544 L178 104 L50 104 L50 0 L374 0 C552 0 689 116 689 323 C689 528 556 646 381 648 L381 648 Z M297 104 L297 544 L369 544 C479 544 569 470 569 323 C569 179 481 104 373 104 L297 104 Z " />
<glyph glyph-name="uni216F" unicode="&#x216f;" horiz-adv-x="1059" d="M377 104 L287 104 L287 477 L482 3 L572 3 L769 478 L769 104 L678 104 L678 0 L1009 0 L1009 104 L885 104 L885 544 L1009 544 L1009 648 L715 648 L527 179 L338 648 L50 648 L50 544 L171 544 L171 104 L50 104 L50 0 L377 0 L377 104 Z " />
<glyph glyph-name="arrowleft" unicode="&#x2190;" horiz-adv-x="1046" d="M239 86 L239 242 L981 242 L981 343 L239 343 L239 500 L-5 292 L239 86 Z " />
<glyph glyph-name="arrowup" unicode="&#x2191;" horiz-adv-x="469" d="M252 800 L35 543 L202 543 L202 -147 L302 -147 L302 543 L467 543 L252 800 Z " />
<glyph glyph-name="arrowright" unicode="&#x2192;" horiz-adv-x="1058" d="M1019 292 L745 517 L745 342 L29 342 L29 242 L745 242 L745 68 L1019 292 Z " />
<glyph glyph-name="arrowdown" unicode="&#x2193;" horiz-adv-x="465" d="M443 105 L269 105 L269 791 L168 791 L168 105 L-6 105 L219 -157 L443 105 Z " />
<glyph glyph-name="uni2196" unicode="&#x2196;" horiz-adv-x="875" d="M60 709 L60 393 L182 516 L709 -10 L780 61 L253 587 L374 709 L60 709 Z " />
<glyph glyph-name="uni2197" unicode="&#x2197;" horiz-adv-x="764" d="M355 709 L476 587 L-51 61 L20 -10 L546 516 L669 393 L669 709 L355 709 Z " />
<glyph glyph-name="uni2198" unicode="&#x2198;" horiz-adv-x="865" d="M770 0 L770 316 L647 192 L121 719 L50 648 L577 122 L456 0 L770 0 Z " />
<glyph glyph-name="uni2199" unicode="&#x2199;" horiz-adv-x="755" d="M354 0 L233 122 L760 648 L689 719 L162 192 L40 316 L40 0 L354 0 Z " />
<glyph glyph-name="uni21A9" unicode="&#x21a9;" horiz-adv-x="848" d="M401 557 L590 557 C668 557 725 514 725 443 C725 377 670 330 593 330 L231 330 L231 488 L-13 280 L231 73 L231 229 L597 229 C733 229 827 325 827 443 C827 564 731 657 594 657 L401 657 L401 557 Z " />
<glyph glyph-name="uni21B0" unicode="&#x21b0;" horiz-adv-x="791" d="M288 310 L288 467 L606 467 L606 0 L706 0 L706 567 L288 567 L288 724 L43 517 L288 310 Z " />
<glyph glyph-name="uni21B1" unicode="&#x21b1;" horiz-adv-x="736" d="M135 0 L135 467 L487 467 L487 310 L731 517 L487 724 L487 567 L35 567 L35 0 L135 0 Z " />
<glyph glyph-name="uni21B2" unicode="&#x21b2;" horiz-adv-x="766" d="M584 709 L584 242 L232 242 L232 399 L-12 192 L232 -15 L232 142 L685 142 L685 709 L584 709 Z " />
<glyph glyph-name="uni21B3" unicode="&#x21b3;" horiz-adv-x="846" d="M531 399 L531 242 L179 242 L179 709 L78 709 L78 142 L531 142 L531 -15 L775 192 L531 399 Z " />
<glyph glyph-name="uni21B4" unicode="&#x21b4;" horiz-adv-x="806" d="M58 609 L530 609 L530 225 L374 225 L581 -16 L787 225 L630 225 L630 709 L58 709 L58 609 Z " />
<glyph glyph-name="uni21C6" unicode="&#x21c6;" horiz-adv-x="1139" d="M304 342 L304 498 L1060 498 L1060 599 L304 599 L304 757 L60 549 L304 342 Z M1084 166 L840 373 L840 216 L85 216 L85 116 L840 116 L840 -41 L1084 166 Z " />
<glyph glyph-name="partialdiff" unicode="&#x2202;" horiz-adv-x="617" d="M250 617 C358 617 434 559 450 399 C424 428 371 456 285 456 C160 456 41 371 41 225 C41 65 162 -15 289 -15 C479 -15 572 134 572 348 C572 659 382 722 258 722 C202 722 130 711 67 676 L107 584 C164 612 219 617 250 617 L250 617 Z M308 356 C367 356 420 334 452 293 C452 196 406 91 294 91 C226 91 158 137 158 219 C158 295 208 356 308 356 L308 356 Z " />
<glyph glyph-name="Delta" unicode="&#x2206;" horiz-adv-x="678" d="M0 0 L678 0 L403 709 L274 709 L0 0 Z M338 576 L510 111 L167 111 L338 576 Z " />
<glyph glyph-name="product" unicode="&#x220f;" horiz-adv-x="686" d="M601 0 L601 709 L85 709 L85 0 L205 0 L205 600 L483 600 L483 0 L601 0 Z " />
<glyph glyph-name="summation" unicode="&#x2211;" horiz-adv-x="568" d="M40 0 L547 0 L547 111 L194 111 L463 355 L203 598 L547 598 L547 709 L40 709 L40 602 L303 355 L40 107 L40 0 Z " />
<glyph glyph-name="minus" unicode="&#x2212;" horiz-adv-x="555" d="M503 244 L503 340 L52 340 L52 244 L503 244 Z " />
<glyph glyph-name="uni2215" unicode="&#x2215;" horiz-adv-x="426" d="M426 653 L319 653 L0 -5 L107 -5 L426 653 Z " />
<glyph glyph-name="uni2219" unicode="&#x2219;" horiz-adv-x="284" d="M65 298 C65 254 100 221 143 221 C187 221 222 254 222 298 C222 341 187 376 143 376 C100 376 65 341 65 298 L65 298 Z " />
<glyph glyph-name="radical" unicode="&#x221a;" horiz-adv-x="683" d="M716 773 L716 874 L508 874 L277 170 L153 534 L33 534 L223 0 L329 0 L590 773 L716 773 Z " />
<glyph glyph-name="infinity" unicode="&#x221e;" horiz-adv-x="818" d="M408 213 C464 145 523 112 590 112 C697 112 774 188 774 290 C774 392 698 469 591 469 C526 469 468 432 410 366 C355 433 293 469 227 469 C121 469 43 392 43 290 C43 188 121 112 227 112 C294 112 348 147 408 213 L408 213 Z M229 369 C274 369 307 334 346 287 C309 242 273 210 229 210 C179 210 146 244 146 289 C146 334 179 369 229 369 L229 369 Z M588 210 C544 210 509 244 471 290 C511 335 544 369 588 369 C639 369 671 334 671 289 C671 244 639 210 588 210 L588 210 Z " />
<glyph glyph-name="integral" unicode="&#x222b;" horiz-adv-x="332" d="M109 -24 C109 -71 82 -97 44 -97 L5 -97 L5 -200 L54 -200 C161 -200 224 -133 224 -26 L224 535 C224 582 250 606 289 606 L327 606 L327 709 L282 709 C175 709 109 643 109 536 L109 -24 Z " />
<glyph glyph-name="approxequal" unicode="&#x2248;" horiz-adv-x="583" d="M488 447 C464 417 435 402 404 402 C383 402 365 406 339 420 L292 445 C254 465 225 475 186 475 C125 475 71 442 33 382 L97 328 C122 359 153 374 185 374 C204 374 224 369 243 359 L290 333 C327 312 360 303 395 303 C457 303 513 336 550 395 L488 447 Z M488 250 C464 218 434 204 402 204 C378 204 360 211 339 222 L292 247 C255 267 221 277 187 277 C125 277 71 244 33 184 L97 130 C123 162 154 176 188 176 C206 175 225 171 243 161 L290 135 C327 114 361 105 397 105 C458 105 512 138 550 197 L488 250 Z " />
<glyph glyph-name="notequal" unicode="&#x2260;" horiz-adv-x="598" d="M537 146 L537 241 L322 241 L392 343 L537 343 L537 437 L456 437 L522 532 L413 532 L347 437 L62 437 L62 343 L282 343 L212 241 L62 241 L62 146 L146 146 L79 48 L189 48 L256 146 L537 146 Z " />
<glyph glyph-name="lessequal" unicode="&#x2264;" horiz-adv-x="544" d="M60 143 L60 47 L482 47 L482 143 L60 143 Z M60 311 L482 171 L482 270 L190 361 L482 450 L482 549 L60 408 L60 311 Z " />
<glyph glyph-name="greaterequal" unicode="&#x2265;" horiz-adv-x="544" d="M62 143 L62 47 L484 47 L484 143 L62 143 Z M484 408 L62 549 L62 449 L354 359 L62 269 L62 171 L484 311 L484 408 Z " />
<glyph glyph-name="dotmath" unicode="&#x22c5;" horiz-adv-x="284" d="M65 298 C65 254 100 221 143 221 C187 221 222 254 222 298 C222 341 187 376 143 376 C100 376 65 341 65 298 L65 298 Z " />
<glyph glyph-name="uni24C5" unicode="&#x24c5;" horiz-adv-x="818" d="M124 355 C124 520 248 648 408 648 C567 648 692 520 692 355 C692 189 567 61 408 61 C248 61 124 189 124 355 L124 355 Z M42 355 C42 151 205 -15 408 -15 C611 -15 776 151 776 355 C776 558 611 724 408 724 C205 724 42 558 42 355 L42 355 Z M371 369 L371 484 L432 484 C472 484 496 461 496 426 C496 391 472 369 432 369 L371 369 Z M447 296 C525 296 584 354 584 426 C584 498 525 557 447 557 L285 557 L285 156 L371 156 L371 296 L447 296 Z " />
<glyph glyph-name="filledbox" unicode="&#x25a0;" horiz-adv-x="914" d="M105 0 L809 0 L809 709 L105 709 L105 0 Z " />
<glyph glyph-name="H22073" unicode="&#x25a1;" horiz-adv-x="914" d="M809 0 L809 709 L105 709 L105 0 L809 0 Z M205 613 L708 613 L708 95 L205 95 L205 613 Z " />
<glyph glyph-name="triagup" unicode="&#x25b2;" horiz-adv-x="838" d="M420 724 L0 0 L838 0 L420 724 Z " />
<glyph glyph-name="uni25B3" unicode="&#x25b3;" horiz-adv-x="837" d="M420 724 L0 0 L837 0 L420 724 Z M665 95 L172 95 L419 525 L665 95 Z " />
<glyph glyph-name="lozenge" unicode="&#x25ca;" horiz-adv-x="590" d="M160 354 L295 586 L429 354 L295 123 L160 354 Z M32 354 L237 0 L353 0 L558 354 L353 709 L237 709 L32 354 Z " />
<glyph glyph-name="circle" unicode="&#x25cb;" horiz-adv-x="821" d="M40 354 C40 149 205 -16 410 -16 C615 -16 781 149 781 354 C781 559 615 725 410 725 C205 725 40 559 40 354 L40 354 Z M141 354 C141 505 261 627 410 627 C560 627 679 505 679 354 C679 203 560 81 410 81 C261 81 141 203 141 354 L141 354 Z " />
<glyph glyph-name="H18533" unicode="&#x25cf;" horiz-adv-x="821" d="M40 354 C40 149 205 -16 410 -16 C615 -16 781 149 781 354 C781 559 615 725 410 725 C205 725 40 559 40 354 L40 354 Z " />
<glyph glyph-name="uni262E" unicode="&#x262e;" horiz-adv-x="818" d="M776 355 C776 558 612 724 408 724 C205 724 42 558 42 355 C42 151 205 -15 408 -15 C612 -15 776 151 776 355 L776 355 Z M677 355 C677 310 666 269 648 233 L456 412 L456 627 C582 604 677 493 677 355 L677 355 Z M138 355 C138 492 231 603 357 626 L357 412 L166 235 C148 270 138 311 138 355 L138 355 Z M456 82 L456 282 L592 152 C555 116 508 91 456 82 L456 82 Z M221 153 L357 282 L357 82 C304 91 257 116 221 153 L221 153 Z " />
<glyph glyph-name="uni2713" unicode="&#x2713;" horiz-adv-x="954" d="M934 656 L863 727 L312 133 L93 372 L20 304 L308 -17 L934 656 Z " />
<glyph glyph-name="uni2715" unicode="&#x2715;" horiz-adv-x="756" d="M663 -5 L734 66 L447 355 L730 642 L659 713 L377 426 L94 713 L22 642 L306 355 L22 66 L92 -5 L377 284 L663 -5 Z " />
<glyph glyph-name="uni2780" unicode="&#x2780;" horiz-adv-x="821" d="M125 355 C125 520 250 648 410 648 C569 648 694 520 694 355 C694 189 569 61 410 61 C250 61 125 189 125 355 L125 355 Z M43 355 C43 151 207 -15 410 -15 C613 -15 778 151 778 355 C778 558 613 724 410 724 C207 724 43 558 43 355 L43 355 Z M471 172 L471 538 L389 538 C382 502 348 466 291 465 L291 405 L380 405 L380 172 L471 172 Z " />
<glyph glyph-name="uni2781" unicode="&#x2781;" horiz-adv-x="821" d="M125 355 C125 520 250 648 410 648 C569 648 694 520 694 355 C694 189 569 61 410 61 C250 61 125 189 125 355 L125 355 Z M43 355 C43 151 207 -15 410 -15 C613 -15 778 151 778 355 C778 558 613 724 410 724 C207 724 43 558 43 355 L43 355 Z M355 404 C353 412 352 423 352 428 C352 459 372 480 404 480 C437 480 453 458 453 436 C453 415 439 396 412 380 L352 344 C289 306 265 255 265 192 L265 180 L546 180 L546 256 L377 256 C379 265 387 274 397 281 L468 324 C515 352 543 388 543 435 C543 499 493 554 406 554 C317 554 268 498 268 433 C268 424 269 413 271 403 L355 404 Z " />
<glyph glyph-name="uni2782" unicode="&#x2782;" horiz-adv-x="821" d="M125 355 C125 520 250 648 410 648 C569 648 694 520 694 355 C694 189 569 61 410 61 C250 61 125 189 125 355 L125 355 Z M43 355 C43 151 207 -15 410 -15 C613 -15 778 151 778 355 C778 558 613 724 410 724 C207 724 43 558 43 355 L43 355 Z M254 271 C264 216 315 162 404 162 C497 162 555 218 555 285 C555 350 511 389 452 395 L546 464 L546 536 L267 536 L267 461 L431 461 L340 392 L372 331 C382 335 391 337 403 337 C434 337 464 323 464 286 C464 259 440 237 403 237 C366 237 339 262 334 295 L254 271 Z " />
<glyph glyph-name="uni2783" unicode="&#x2783;" horiz-adv-x="821" d="M125 355 C125 520 250 648 410 648 C569 648 694 520 694 355 C694 189 569 61 410 61 C250 61 125 189 125 355 L125 355 Z M43 355 C43 151 207 -15 410 -15 C613 -15 778 151 778 355 C778 558 613 724 410 724 C207 724 43 558 43 355 L43 355 Z M233 249 L414 249 L414 178 L504 178 L504 249 L566 249 L566 322 L504 322 L504 544 L405 544 L233 337 L233 249 Z M414 322 L311 322 L414 447 L414 322 Z " />
<glyph glyph-name="uni2784" unicode="&#x2784;" horiz-adv-x="821" d="M125 355 C125 520 250 648 410 648 C569 648 694 520 694 355 C694 189 569 61 410 61 C250 61 125 189 125 355 L125 355 Z M43 355 C43 151 207 -15 410 -15 C613 -15 778 151 778 355 C778 558 613 724 410 724 C207 724 43 558 43 355 L43 355 Z M254 263 C265 208 322 160 399 160 C495 160 548 219 548 291 C548 365 498 410 422 410 C395 410 367 402 350 385 L369 458 L527 458 L527 533 L313 533 L266 345 L340 321 C354 335 374 345 398 345 C433 345 458 327 458 289 C458 255 434 236 399 236 C366 236 339 256 333 288 L254 263 Z " />
<glyph glyph-name="uni2785" unicode="&#x2785;" horiz-adv-x="821" d="M125 355 C125 520 250 648 410 648 C569 648 694 520 694 355 C694 189 569 61 410 61 C250 61 125 189 125 355 L125 355 Z M43 355 C43 151 207 -15 410 -15 C613 -15 778 151 778 355 C778 558 613 724 410 724 C207 724 43 558 43 355 L43 355 Z M535 529 C511 540 479 547 447 547 C332 547 243 465 243 333 C243 222 318 165 399 165 C487 165 551 218 551 296 C551 375 496 418 421 418 C386 418 352 403 334 381 C347 444 396 473 453 473 C476 473 498 469 517 461 L535 529 Z M339 294 C339 329 369 350 400 350 C431 350 460 329 460 294 C460 259 431 239 400 239 C369 239 339 259 339 294 L339 294 Z " />
<glyph glyph-name="uni2786" unicode="&#x2786;" horiz-adv-x="821" d="M125 355 C125 520 250 648 410 648 C569 648 694 520 694 355 C694 189 569 61 410 61 C250 61 125 189 125 355 L125 355 Z M43 355 C43 151 207 -15 410 -15 C613 -15 778 151 778 355 C778 558 613 724 410 724 C207 724 43 558 43 355 L43 355 Z M561 531 L258 531 L258 455 L449 455 C449 455 333 354 317 165 L413 165 C430 345 526 428 561 454 L561 531 Z " />
<glyph glyph-name="uni2787" unicode="&#x2787;" horiz-adv-x="821" d="M125 355 C125 520 250 648 410 648 C569 648 694 520 694 355 C694 189 569 61 410 61 C250 61 125 189 125 355 L125 355 Z M43 355 C43 151 207 -15 410 -15 C613 -15 778 151 778 355 C778 558 613 724 410 724 C207 724 43 558 43 355 L43 355 Z M410 392 C378 392 359 411 359 435 C359 456 377 475 410 475 C443 475 460 456 460 435 C460 411 442 392 410 392 L410 392 Z M410 238 C369 238 349 258 349 284 C349 308 370 328 410 328 C450 328 470 308 470 284 C470 258 451 238 410 238 L410 238 Z M410 165 C507 165 561 212 561 276 C561 313 532 347 490 361 C528 375 549 408 549 442 C549 503 495 547 410 547 C325 547 270 503 270 442 C270 408 291 375 330 361 C287 347 259 313 259 274 C259 211 314 165 410 165 L410 165 Z " />
<glyph glyph-name="uni2788" unicode="&#x2788;" horiz-adv-x="821" d="M125 355 C125 520 250 648 410 648 C569 648 694 520 694 355 C694 189 569 61 410 61 C250 61 125 189 125 355 L125 355 Z M43 355 C43 151 207 -15 410 -15 C613 -15 778 151 778 355 C778 558 613 724 410 724 C207 724 43 558 43 355 L43 355 Z M280 181 C304 170 337 164 369 164 C485 164 568 242 568 383 C568 491 493 546 413 546 C324 546 261 492 261 415 C261 337 321 293 392 293 C427 293 462 308 480 330 C470 264 418 238 359 238 C337 238 316 244 297 251 L280 181 Z M471 416 C471 381 443 360 410 360 C378 360 350 381 350 416 C350 451 378 472 410 472 C443 472 471 451 471 416 L471 416 Z " />
<glyph glyph-name="uniE020" unicode="&#xe020;" horiz-adv-x="776" d="M222 -16 L429 225 L273 225 L273 609 L744 609 L744 709 L172 709 L172 225 L15 225 L222 -16 Z " />
<glyph glyph-name="uni21B5" unicode="&#xe021;" horiz-adv-x="1097" d="M239 122 L437 355 L284 355 C284 504 404 624 554 624 C601 624 645 612 685 590 L730 680 C678 708 617 724 553 724 C349 724 184 560 183 355 L40 355 L239 122 Z M921 353 L1067 353 L868 586 L669 354 L819 354 C819 205 700 85 551 85 C503 85 459 97 419 119 L374 29 C427 1 487 -15 551 -15 C755 -15 920 149 921 353 L921 353 Z " />
<glyph glyph-name="uniE022" unicode="&#xe022;" horiz-adv-x="953" d="M531 354 L685 354 C685 204 566 83 417 83 C267 83 148 204 148 354 C148 504 267 624 417 624 C462 624 505 613 543 593 L585 684 C534 710 477 724 416 724 C212 724 47 559 47 354 C47 150 212 -15 416 -15 C621 -15 786 150 786 354 L928 354 L729 586 L531 354 Z " />
<glyph glyph-name="uniFB00" unicode="&#xfb00;" horiz-adv-x="670" d="M611 625 C633 625 646 622 653 620 L653 719 C645 723 621 729 592 729 C492 729 422 663 422 554 L422 487 L219 487 L219 551 C219 611 261 625 291 625 C313 625 326 622 333 620 L333 719 C325 723 301 729 272 729 C172 729 102 663 102 554 L102 487 L17 487 L17 386 L102 386 L102 0 L219 0 L219 386 L422 386 L422 0 L539 0 L539 386 L652 386 L652 487 L539 487 L539 551 C539 611 581 625 611 625 L611 625 Z " />
<glyph glyph-name="fi" unicode="&#xfb01;" horiz-adv-x="619" d="M272 729 C172 729 102 663 102 554 L102 487 L17 487 L17 386 L102 386 L102 0 L219 0 L219 386 L429 386 L429 0 L543 0 L543 487 L219 487 L219 551 C219 611 261 625 291 625 C313 625 326 622 333 620 L333 719 C325 723 301 729 272 729 L272 729 Z M411 659 C411 618 444 584 486 584 C528 584 562 618 562 659 C562 701 528 735 486 735 C444 735 411 701 411 659 L411 659 Z " />
<glyph glyph-name="fl" unicode="&#xfb02;" horiz-adv-x="617" d="M291 625 C313 625 326 622 333 620 L333 719 C325 723 301 729 272 729 C172 729 102 663 102 554 L102 487 L17 487 L17 386 L102 386 L102 0 L219 0 L219 386 L427 386 L427 0 L542 0 L542 724 L427 724 L427 487 L219 487 L219 551 C219 611 261 625 291 625 L291 625 Z " />
<glyph glyph-name="uniFB03" unicode="&#xfb03;" horiz-adv-x="940" d="M732 659 C732 618 766 584 807 584 C849 584 883 618 883 659 C883 701 849 735 807 735 C766 735 732 701 732 659 L732 659 Z M611 625 C633 625 646 622 653 620 L653 719 C645 723 621 729 592 729 C492 729 422 663 422 554 L422 487 L219 487 L219 551 C219 611 260 625 291 625 C313 625 326 622 333 620 L333 719 C325 723 301 729 272 729 C172 729 102 663 102 554 L102 487 L17 487 L17 386 L102 386 L102 0 L219 0 L219 386 L422 386 L422 0 L539 0 L539 386 L750 386 L750 0 L865 0 L865 487 L539 487 L539 551 C539 611 581 625 611 625 L611 625 Z " />
<glyph glyph-name="uniFB04" unicode="&#xfb04;" horiz-adv-x="940" d="M611 625 C633 625 646 622 653 620 L653 719 C645 723 621 729 592 729 C492 729 422 663 422 554 L422 487 L219 487 L219 551 C219 611 261 625 291 625 C313 625 326 622 333 620 L333 719 C325 723 301 729 272 729 C172 729 102 663 102 554 L102 487 L17 487 L17 386 L102 386 L102 0 L219 0 L219 386 L422 386 L422 0 L539 0 L539 386 L750 386 L750 0 L865 0 L865 724 L750 724 L750 487 L539 487 L539 551 C539 611 581 625 611 625 L611 625 Z " />
<glyph glyph-name="uniFEFF" unicode="&#xfeff;" d="" />
</font>
</svg>
